SplineFontDB: 3.2
FontName: LatoMath
FullName: Lato Math
FamilyName: Lato Math
Weight: Regular
Copyright: 
Version: 
ItalicAngle: 0
UnderlinePosition: -50
UnderlineWidth: 50
Ascent: 750
Descent: 250
InvalidEm: 0
sfntRevision: 0x00010000
LayerCount: 2
Layer: 0 0 "Back" 1
Layer: 1 0 "Fore" 0
XUID: [1021 820 2066463419 30152]
StyleMap: 0x0040
FSType: 0
OS2Version: 4
OS2_WeightWidthSlopeOnly: 0
OS2_UseTypoMetrics: 1
CreationTime: 1227710265
ModificationTime: 1579153392
PfmFamily: 17
TTFWeight: 400
TTFWidth: 5
LineGap: 0
VLineGap: 0
Panose: 2 0 5 3 0 0 0 0 0 0
OS2TypoAscent: 750
OS2TypoAOffset: 0
OS2TypoDescent: -250
OS2TypoDOffset: 0
OS2TypoLinegap: 0
OS2WinAscent: 2598
OS2WinAOffset: 0
OS2WinDescent: 918
OS2WinDOffset: 0
HheadAscent: 750
HheadAOffset: 0
HheadDescent: -250
HheadDOffset: 0
OS2SubXSize: 500
OS2SubYSize: 500
OS2SubXOff: 0
OS2SubYOff: 250
OS2SupXSize: 500
OS2SupYSize: 500
OS2SupXOff: 0
OS2SupYOff: 500
OS2StrikeYSize: 50
OS2StrikeYPos: 306
OS2CapHeight: 662
OS2XHeight: 450
OS2Vendor: 'ALIF'
OS2CodePages: 6000009f.dfd70000
OS2UnicodeRanges: a00022ff.0203fdff.0a000020.00000000
Lookup: 1 0 0 "'dtls' Dotless Forms in Mathematical Alphanumeric Symbols lookup 1" { "'dtls' Dotless Forms in Mathematical Alphanumeric Symbols lookup 1 subtable"  } ['dtls' ('math' <'dflt' > ) ]
Lookup: 3 0 0 "'ssty' Script Style in Mathematical Alphanumeric Symbols lookup 2" { "'ssty' Script Style in Mathematical Alphanumeric Symbols lookup 2 subtable"  } ['ssty' ('math' <'dflt' > ) ]
Lookup: 1 0 0 "'ss01' Style Set 1 lookup 3" { "'ss01' Style Set 1 lookup 3 subtable"  } ['ss01' ('DFLT' <'dflt' > 'latn' <'dflt' > 'math' <'dflt' > ) ]
Lookup: 1 0 0 "'ss02' Style Set 2 lookup 4" { "'ss02' Style Set 2 lookup 4 subtable"  } ['ss02' ('DFLT' <'dflt' > 'latn' <'dflt' > 'math' <'dflt' > ) ]
Lookup: 1 0 0 "'ss03' Style Set 3 lookup 5" { "'ss03' Style Set 3 lookup 5 subtable"  } ['ss03' ('DFLT' <'dflt' > 'latn' <'dflt' > 'math' <'dflt' > ) ]

StartChar: .notdef
Encoding: 1114112 -1 0
Width: 531
Flags: HW
LayerCount: 2
Fore
SplineSet
320 495 m 0
 320 531 292 550 255 550 c 0
 219 550 200 538 179 526 c 128
 174 523 170 522 167 522 c 0
 158 522 152 525 148 532 c 2
 125 570 l 1
 157 599 201 624 262 624 c 0
 327 624 372 596 392 551 c 128
 399 536 402 519 402 500 c 256
 402 430 364 402 326 372 c 128
 313 362 297 350 294 333 c 2
 286 280 l 1
 225 280 l 1
 219 339 l 2
 219 341 219 344 219 346 c 0
 219 380 245 398 266 413 c 128
 291 431 320 453 320 495 c 0
253 91 m 0
 221 91 198 114 198 146 c 256
 198 178 221 202 253 202 c 0
 284 202 307 177 307 146 c 256
 307 115 284 91 253 91 c 0
22 716 m 1
 510 716 l 1
 510 0 l 1
 22 0 l 1
 22 716 l 1
48 27 m 1
 481 27 l 1
 481 689 l 1
 48 689 l 1
 48 27 l 1
EndSplineSet
Validated: 1
EndChar

StartChar: exclam
Encoding: 33 33 34
Width: 269
GlyphClass: 2
Flags: HMW
LayerCount: 2
Fore
SplineSet
105 250 m 1
 98 310 92 366 92 430 c 2
 92 716 l 1
 178 716 l 1
 178 430 l 2
 178 366 172 310 165 250 c 1
 105 250 l 1
71 55 m 0
 71 92 97 118 134 118 c 0
 170 118 196 90 196 55 c 0
 196 19 169 -8 134 -8 c 0
 97 -8 71 18 71 55 c 0
EndSplineSet
Validated: 1
EndChar

StartChar: numbersign
Encoding: 35 35 36
Width: 580
GlyphClass: 2
Flags: HMW
LayerCount: 2
Fore
SplineSet
365 440 m 1
 242 440 l 1
 209 277 l 1
 332 277 l 1
 365 440 l 1
554 506 m 1
 548 468 l 2
 545 448 531 440 508 440 c 2
 438 440 l 1
 406 277 l 1
 496 277 l 2
 514 277 520 267 520 249 c 0
 520 246 520 243 520 240 c 1
 515 212 l 1
 396 212 l 1
 354 0 l 1
 314 0 l 2
 298 0 287 13 287 29 c 0
 287 32 287 35 288 38 c 2
 323 212 l 1
 200 212 l 1
 164 34 l 2
 161 13 146 0 124 0 c 2
 84 0 l 1
 126 212 l 1
 53 212 l 2
 36 212 28 220 28 235 c 0
 28 239 29 243 30 248 c 1
 34 277 l 1
 136 277 l 1
 168 440 l 1
 52 440 l 1
 58 477 l 2
 61 497 75 506 98 506 c 2
 178 506 l 1
 214 684 l 2
 218 703 232 716 253 716 c 2
 293 716 l 1
 251 506 l 1
 374 506 l 1
 416 716 l 1
 456 716 l 2
 473 716 484 706 484 689 c 0
 484 687 484 685 484 683 c 1
 448 506 l 1
 554 506 l 1
EndSplineSet
Validated: 1
EndChar

StartChar: dollar
Encoding: 36 36 37
Width: 580
GlyphClass: 2
Flags: HMW
LayerCount: 2
Fore
SplineSet
306 68 m 1
 385 75 442 120 442 204 c 0
 442 276 379 300 324 318 c 1
 306 68 l 1
290 646 m 1
 222 640 164 608 164 536 c 0
 164 466 221 439 274 421 c 1
 290 646 l 1
300 795 m 2
 300 809 311 820 325 820 c 2
 358 820 l 1
 352 721 l 1
 422 713 470 684 510 644 c 1
 488 611 l 2
 481 601 474 596 465 596 c 0
 460 596 455 598 448 602 c 128
 419 619 388 639 346 646 c 1
 330 404 l 1
 424 373 526 343 526 218 c 0
 526 114 469 49 396 15 c 0
 369 2 338 -5 302 -8 c 1
 296 -95 l 2
 296 -109 283 -119 270 -119 c 2
 238 -119 l 1
 245 -6 l 1
 162 2 95 38 49 86 c 1
 76 126 l 2
 81 133 88 139 99 139 c 0
 106 139 112 136 120 130 c 128
 153 103 194 76 250 69 c 1
 268 334 l 1
 171 362 80 401 80 526 c 0
 80 618 138 675 204 704 c 128
 231 716 261 722 295 723 c 1
 300 795 l 2
EndSplineSet
Validated: 1
EndChar

StartChar: percent
Encoding: 37 37 38
Width: 801
GlyphClass: 2
Flags: HMW
LayerCount: 2
Fore
SplineSet
361 544 m 0
 361 460 322 402 263 378 c 128
 244 370 223 366 202 366 c 0
 124 366 77 409 56 468 c 128
 48 490 44 516 44 544 c 0
 44 628 80 687 139 712 c 128
 158 720 179 724 202 724 c 128
 280 724 328 679 349 620 c 128
 357 598 361 573 361 544 c 0
202 424 m 256
 268 424 292 476 292 544 c 0
 292 612 268 665 202 665 c 256
 138 665 114 611 114 544 c 128
 114 477 138 424 202 424 c 256
614 702 m 2
 621 710 628 716 644 716 c 2
 709 716 l 1
 185 14 l 2
 180 6 169 0 156 0 c 2
 91 0 l 1
 614 702 l 2
758 169 m 0
 758 85 718 28 659 4 c 128
 640 -4 619 -8 598 -8 c 0
 521 -8 473 36 452 94 c 128
 444 116 440 141 440 169 c 0
 440 254 476 313 536 338 c 128
 555 346 575 350 598 350 c 128
 677 350 724 305 746 246 c 128
 754 223 758 198 758 169 c 0
598 50 m 256
 663 50 688 102 688 169 c 0
 688 238 665 290 598 290 c 256
 533 290 510 237 510 169 c 0
 510 103 534 50 598 50 c 256
EndSplineSet
Validated: 1
EndChar

StartChar: ampersand
Encoding: 38 38 39
Width: 712
GlyphClass: 2
Flags: HMW
LayerCount: 2
Fore
SplineSet
242 353 m 1
 185 323 135 275 135 198 c 0
 135 132 174 91 223 73 c 128
 240 67 257 64 274 64 c 0
 353 64 412 98 453 140 c 1
 242 353 l 1
622 369 m 1
 622 282 591 208 554 152 c 1
 704 0 l 1
 617 0 l 2
 595 0 586 5 574 18 c 2
 502 91 l 1
 445 35 365 -8 258 -8 c 0
 164 -8 94 42 62 107 c 128
 50 132 44 160 44 191 c 0
 44 243 64 283 89 315 c 128
 117 351 155 379 200 398 c 1
 167 441 141 484 141 549 c 0
 141 633 191 686 254 710 c 0
 278 719 305 724 334 724 c 0
 415 724 471 685 498 630 c 128
 507 612 513 592 514 572 c 1
 459 560 l 2
 457 560 455 559 454 559 c 0
 435 559 431 587 423 603 c 128
 409 632 377 655 334 655 c 0
 281 655 248 628 232 591 c 128
 227 578 224 565 224 550 c 0
 224 505 243 477 264 450 c 128
 273 439 283 427 296 414 c 2
 502 204 l 1
 525 245 542 294 548 348 c 0
 549 361 554 369 568 369 c 2
 622 369 l 1
EndSplineSet
Validated: 1
EndChar

StartChar: quotesingle
Encoding: 39 39 40
Width: 204
GlyphClass: 2
Flags: HMW
LayerCount: 2
Fore
SplineSet
141 716 m 1
 141 572 l 1
 133 494 l 2
 131 474 123 460 102 460 c 0
 82 460 74 475 72 494 c 2
 64 572 l 1
 64 716 l 1
 141 716 l 1
EndSplineSet
Validated: 1
EndChar

StartChar: uni0028
Encoding: 40 40 41
Width: 267
VWidth: 998
GlyphClass: 2
Flags: HMW
LayerCount: 2
Fore
SplineSet
182 -208 m 1
 102 -85 45 54 45 252 c 128
 45 449 102 592 182 714 c 1
 222 689 l 2
 230 684 235 679 235 670 c 0
 235 665 234 659 230 652 c 0
 168 543 122 412 122 252 c 256
 122 91 168 -38 230 -148 c 0
 233 -155 235 -161 235 -166 c 0
 235 -174 230 -180 222 -184 c 1
 182 -208 l 1
EndSplineSet
Validated: 1
EndChar

StartChar: uni0029
Encoding: 41 41 42
Width: 267
VWidth: 998
GlyphClass: 2
Flags: HMW
LayerCount: 2
Fore
SplineSet
84 714 m 5
 165 591 222 450 222 252 c 4
 222 54 164 -85 84 -208 c 5
 45 -184 l 5
 37 -180 33 -174 33 -166 c 0
 33 -161 35 -155 38 -148 c 4
 100 -39 144 92 144 252 c 260
 144 411 100 544 38 652 c 4
 35 657 33 664 33 670 c 0
 33 675 34 680 38 683 c 132
 40 685 42 687 45 689 c 6
 84 714 l 5
EndSplineSet
Validated: 1
EndChar

StartChar: asterisk
Encoding: 42 42 43
Width: 425
GlyphClass: 2
Flags: HMW
LayerCount: 2
Fore
SplineSet
364 530 m 1
 342 492 l 1
 255 542 l 2
 243 550 234 555 226 567 c 1
 231 556 234 543 234 530 c 2
 234 432 l 1
 190 432 l 1
 190 530 l 2
 190 544 192 555 197 565 c 1
 189 556 181 549 170 542 c 2
 84 492 l 1
 62 530 l 1
 148 580 l 2
 161 588 173 592 186 592 c 1
 170 594 160 597 148 604 c 2
 62 655 l 1
 84 692 l 1
 170 642 l 2
 182 634 189 628 198 616 c 1
 193 628 190 641 190 654 c 2
 190 753 l 1
 234 753 l 1
 234 654 l 2
 234 639 233 629 228 619 c 1
 237 629 243 634 255 642 c 2
 341 692 l 1
 363 654 l 1
 277 604 l 1
 267 597 257 593 242 592 c 1
 257 590 266 587 277 580 c 2
 364 530 l 1
EndSplineSet
Validated: 1
EndChar

StartChar: plus
Encoding: 43 43 44
Width: 685
GlyphClass: 2
Flags: HMW
HStem: 220 66<48 309 48 309 375 636>
VStem: 309 66<-41 220 -41 220 286 547>
LayerCount: 2
Fore
SplineSet
636 220 m 1
 375 220 l 1
 375 -41 l 1
 309 -41 l 1
 309 220 l 1
 48 220 l 1
 48 286 l 1
 309 286 l 1
 309 547 l 1
 375 547 l 1
 375 286 l 1
 636 286 l 1
 636 220 l 1
EndSplineSet
Validated: 1
EndChar

StartChar: comma
Encoding: 44 44 45
Width: 227
GlyphClass: 2
Flags: HMW
LayerCount: 2
Fore
SplineSet
113 118 m 0
 154 118 174 88 174 47 c 0
 174 -38 126 -94 80 -136 c 1
 65 -121 l 2
 60 -116 58 -115 58 -107 c 0
 58 -101 61 -96 66 -94 c 0
 71 -88 70 -88 78 -79 c 128
 94 -59 114 -32 118 0 c 1
 112 0 l 2
 76 0 54 26 54 62 c 0
 54 95 79 118 113 118 c 0
EndSplineSet
Validated: 1
EndChar

StartChar: hyphen
Encoding: 45 45 46
Width: 371
GlyphClass: 2
Flags: HMW
LayerCount: 2
Fore
SplineSet
62 338 m 1
 310 338 l 1
 310 262 l 1
 62 262 l 1
 62 338 l 1
EndSplineSet
Validated: 1
EndChar

StartChar: period
Encoding: 46 46 47
Width: 236
GlyphClass: 2
Flags: HMW
LayerCount: 2
Fore
SplineSet
118 -8 m 256
 82 -8 56 18 56 55 c 0
 56 92 81 118 118 118 c 256
 154 118 180 91 180 55 c 0
 180 19 154 -8 118 -8 c 256
EndSplineSet
Validated: 1
EndChar

StartChar: slash
Encoding: 47 47 48
Width: 504
VWidth: 997
GlyphClass: 2
Flags: HMW
LayerCount: 2
Fore
SplineSet
121 -183 m 1
 114 -203 96 -218 72 -218 c 2
 35 -218 l 1
 385 691 l 2
 392 710 407 723 431 723 c 2
 469 723 l 1
 121 -183 l 1
EndSplineSet
Validated: 1
EndChar

StartChar: zero
Encoding: 48 48 49
Width: 580
GlyphClass: 2
Flags: HMW
LayerCount: 2
Fore
SplineSet
550 358 m 256
 550 193 502 65 392 14 c 128
 360 -1 326 -8 290 -8 c 0
 205 -8 145 29 105 81 c 128
 55 145 30 240 30 358 c 256
 30 476 55 571 105 635 c 128
 146 687 204 724 290 724 c 0
 374 724 435 687 475 635 c 128
 525 571 550 476 550 358 c 256
458 358 m 256
 458 455 443 533 407 586 c 128
 382 623 344 649 290 649 c 256
 196 649 156 577 136 496 c 128
 127 459 122 413 122 358 c 256
 122 261 137 184 173 131 c 128
 198 93 234 68 290 68 c 256
 384 68 424 139 444 220 c 128
 453 257 458 303 458 358 c 256
EndSplineSet
Validated: 1
EndChar

StartChar: one
Encoding: 49 49 50
Width: 580
GlyphClass: 2
Flags: HMW
LayerCount: 2
Fore
SplineSet
509 68 m 1
 509 0 l 1
 125 0 l 1
 125 68 l 1
 278 68 l 1
 278 556 l 2
 278 571 279 586 280 601 c 1
 152 492 l 1
 147 487 140 485 133 485 c 0
 124 485 114 488 110 495 c 2
 82 534 l 1
 296 718 l 1
 368 718 l 1
 368 68 l 1
 509 68 l 1
EndSplineSet
Validated: 1
EndChar

StartChar: two
Encoding: 50 50 51
Width: 580
GlyphClass: 2
Flags: HMW
LayerCount: 2
Fore
SplineSet
174 72 m 1
 198 79 224 84 254 84 c 2
 494 84 l 2
 513 84 525 73 525 54 c 2
 525 0 l 1
 47 0 l 1
 47 30 l 2
 47 47 55 59 64 68 c 2
 293 299 l 2
 339 347 389 396 411 464 c 0
 417 482 420 501 420 522 c 256
 420 602 370 648 291 648 c 0
 215 648 167 603 153 541 c 1
 147 523 137 513 117 513 c 0
 114 513 111 514 108 514 c 1
 62 522 l 1
 79 644 158 724 296 724 c 128
 396 724 463 679 494 609 c 128
 505 584 511 556 511 525 c 0
 511 466 491 422 466 385 c 128
 437 341 400 304 362 266 c 2
 174 72 l 1
EndSplineSet
Validated: 1
EndChar

StartChar: three
Encoding: 51 51 52
Width: 580
GlyphClass: 2
Flags: HMW
LayerCount: 2
Fore
SplineSet
421 526 m 0
 421 605 373 648 294 648 c 256
 218 648 170 604 156 541 c 1
 150 523 141 513 121 513 c 0
 118 513 115 514 112 514 c 1
 65 522 l 1
 79 618 132 684 214 711 c 128
 240 720 268 724 299 724 c 128
 395 724 462 682 492 616 c 128
 502 593 508 568 508 541 c 0
 508 446 455 401 384 376 c 1
 467 355 524 304 524 206 c 0
 524 99 459 35 378 7 c 0
 350 -3 319 -8 286 -8 c 0
 177 -8 111 33 74 104 c 128
 62 127 52 152 43 179 c 1
 82 195 l 2
 89 198 96 199 103 199 c 0
 116 199 127 194 132 182 c 128
 158 122 195 68 284 68 c 0
 357 68 406 104 426 156 c 128
 432 172 435 188 435 203 c 0
 435 308 361 335 252 335 c 1
 252 400 l 1
 348 400 421 433 421 526 c 0
EndSplineSet
Validated: 1
EndChar

StartChar: four
Encoding: 52 52 53
Width: 580
GlyphClass: 2
Flags: HMW
LayerCount: 2
Fore
SplineSet
365 258 m 1
 365 554 l 2
 365 574 367 595 369 614 c 1
 108 258 l 1
 365 258 l 1
552 208 m 2
 552 196 544 188 532 188 c 2
 443 188 l 1
 443 0 l 1
 365 0 l 1
 365 188 l 1
 47 188 l 2
 34 188 23 197 20 208 c 2
 12 254 l 1
 360 716 l 1
 443 716 l 1
 443 258 l 1
 552 258 l 1
 552 208 l 2
EndSplineSet
Validated: 1
EndChar

StartChar: five
Encoding: 53 53 54
Width: 580
GlyphClass: 2
Flags: HMW
LayerCount: 2
Fore
SplineSet
491 678 m 2
 491 648 473 634 439 634 c 2
 214 634 l 1
 181 446 l 1
 218 454 253 458 284 458 c 0
 395 458 468 409 498 328 c 128
 508 302 513 273 513 242 c 0
 513 120 447 43 357 10 c 128
 326 -2 292 -8 256 -8 c 0
 187 -8 137 13 94 39 c 128
 79 48 67 57 56 68 c 1
 84 106 l 2
 90 114 98 118 107 118 c 0
 114 118 122 115 130 110 c 128
 165 89 202 68 260 68 c 0
 341 68 389 109 412 168 c 0
 420 189 424 213 424 238 c 0
 424 335 363 384 266 384 c 0
 224 384 185 377 150 365 c 1
 94 382 l 1
 152 716 l 1
 491 716 l 1
 491 678 l 2
EndSplineSet
Validated: 1
EndChar

StartChar: six
Encoding: 54 54 55
Width: 580
GlyphClass: 2
Flags: HMW
LayerCount: 2
Fore
SplineSet
289 66 m 128
 365 66 414 104 436 158 c 128
 444 177 448 197 448 219 c 0
 448 293 411 340 357 360 c 0
 339 367 319 371 296 371 c 0
 222 371 170 332 150 278 c 128
 143 260 140 240 140 221 c 0
 140 126 194 66 289 66 c 128
202 402 m 1
 234 424 272 439 324 439 c 0
 424 439 489 387 519 316 c 128
 530 289 536 259 536 226 c 128
 536 153 507 98 468 60 c 128
 428 21 368 -8 291 -8 c 0
 175 -8 103 50 71 135 c 128
 60 165 54 199 54 236 c 0
 54 267 61 300 75 336 c 128
 89 372 111 410 141 450 c 2
 323 695 l 2
 332 707 349 716 370 716 c 2
 450 716 l 1
 237 448 l 2
 224 432 213 419 202 402 c 1
EndSplineSet
Validated: 1
EndChar

StartChar: seven
Encoding: 55 55 56
Width: 580
GlyphClass: 2
Flags: HMW
LayerCount: 2
Fore
SplineSet
76 634 m 2
 65 634 54 645 54 656 c 2
 54 716 l 1
 540 716 l 1
 540 676 l 2
 540 656 536 643 530 630 c 2
 232 32 l 2
 224 15 209 0 184 0 c 2
 120 0 l 1
 421 591 l 2
 429 607 439 621 450 634 c 1
 76 634 l 2
EndSplineSet
Validated: 1
EndChar

StartChar: eight
Encoding: 56 56 57
Width: 580
GlyphClass: 2
Flags: HMW
LayerCount: 2
Fore
SplineSet
290 336 m 256
 200 336 140 288 140 198 c 0
 140 110 202 63 290 63 c 256
 361 63 409 93 430 143 c 128
 437 160 440 178 440 198 c 0
 440 289 380 336 290 336 c 256
290 407 m 256
 372 407 420 454 420 534 c 0
 420 593 389 628 346 646 c 128
 330 653 311 656 290 656 c 256
 212 656 160 610 160 534 c 0
 160 454 208 407 290 407 c 256
506 536 m 0
 506 450 459 399 392 374 c 1
 474 351 532 297 532 196 c 0
 532 128 503 80 464 47 c 128
 423 12 364 -8 290 -8 c 256
 179 -8 102 37 66 112 c 128
 54 137 48 165 48 196 c 0
 48 297 105 350 188 374 c 1
 121 399 74 450 74 536 c 0
 74 628 132 685 202 710 c 128
 228 719 257 724 290 724 c 0
 389 724 461 679 491 610 c 128
 501 587 506 563 506 536 c 0
EndSplineSet
Validated: 1
EndChar

StartChar: nine
Encoding: 57 57 58
Width: 580
GlyphClass: 2
Flags: HMW
LayerCount: 2
Fore
SplineSet
142 506 m 0
 142 435 172 392 224 372 c 128
 241 365 261 362 282 362 c 0
 354 362 402 399 422 450 c 128
 429 467 432 485 432 504 c 0
 432 574 397 621 346 640 c 128
 329 647 309 650 288 650 c 0
 220 650 171 614 152 564 c 128
 145 547 142 527 142 506 c 0
388 339 m 1
 354 312 310 294 253 294 c 0
 159 294 97 345 68 412 c 128
 57 437 52 467 52 500 c 0
 52 569 82 622 119 659 c 128
 157 697 216 724 290 724 c 128
 400 724 471 667 502 587 c 128
 513 558 518 527 518 493 c 0
 518 423 495 372 469 326 c 128
 459 308 447 291 434 273 c 2
 260 21 l 2
 252 8 235 0 214 0 c 2
 132 0 l 1
 350 286 l 2
 364 304 376 320 388 339 c 1
EndSplineSet
Validated: 1
EndChar

StartChar: less
Encoding: 60 60 61
Width: 685
GlyphClass: 2
Flags: HW
LayerCount: 2
Fore
SplineSet
621 -24 m 1
 56 249 l 1
 56 259 l 1
 621 534 l 1
 621 469 l 1
 189 254 l 1
 621 39 l 1
 621 -24 l 1
EndSplineSet
Validated: 1
EndChar

StartChar: equal
Encoding: 61 61 62
Width: 685
GlyphClass: 2
Flags: HMW
HStem: 120 66<48 637 48 637> 320 66<48 637 48 637>
LayerCount: 2
Fore
SplineSet
637 120 m 1
 48 120 l 1
 48 186 l 1
 637 186 l 1
 637 120 l 1
637 320 m 1
 48 320 l 1
 48 386 l 1
 637 386 l 1
 637 320 l 1
EndSplineSet
Validated: 1
EndChar

StartChar: greater
Encoding: 62 62 63
Width: 685
GlyphClass: 2
Flags: HW
LayerCount: 2
Fore
SplineSet
621 249 m 1
 56 -24 l 1
 56 39 l 1
 488 254 l 1
 56 469 l 1
 56 534 l 1
 621 259 l 1
 621 249 l 1
EndSplineSet
Validated: 1
EndChar

StartChar: question
Encoding: 63 63 64
Width: 447
GlyphClass: 2
Flags: HMW
LayerCount: 2
Fore
SplineSet
40 652 m 1
 85 691 137 724 220 724 c 0
 304 724 363 688 390 630 c 128
 399 610 404 587 404 562 c 128
 404 465 343 425 288 384 c 128
 269 370 245 352 242 326 c 2
 234 250 l 1
 172 250 l 1
 166 333 l 2
 166 335 166 337 166 339 c 0
 166 369 185 389 203 404 c 128
 239 435 284 460 308 504 c 128
 316 519 320 537 320 558 c 0
 320 606 290 632 254 645 c 128
 241 650 227 652 212 652 c 0
 162 652 126 632 99 611 c 128
 93 606 88 604 84 604 c 0
 76 604 69 608 64 615 c 2
 40 652 l 1
200 118 m 256
 236 118 263 91 263 55 c 0
 263 19 236 -8 200 -8 c 256
 164 -8 138 19 138 55 c 0
 138 91 164 118 200 118 c 256
EndSplineSet
Validated: 1
EndChar

StartChar: at
Encoding: 64 64 65
Width: 836
GlyphClass: 2
Flags: HMW
LayerCount: 2
Fore
SplineSet
314 232 m 0
 314 186 335 153 380 153 c 0
 425 153 450 179 468 210 c 0
 477 225 485 243 490 264 c 2
 528 411 l 1
 515 414 500 416 484 416 c 0
 429 416 389 389 362 358 c 128
 336 328 314 283 314 232 c 0
362 94 m 0
 282 94 244 150 244 230 c 0
 244 297 273 356 309 394 c 128
 350 438 413 472 498 472 c 0
 543 472 576 466 606 452 c 1
 558 272 l 2
 553 252 548 230 548 210 c 0
 548 184 556 161 577 154 c 128
 586 151 595 150 606 150 c 0
 645 150 673 177 691 203 c 128
 714 237 727 287 727 344 c 0
 727 482 658 569 553 603 c 128
 518 614 480 620 439 620 c 0
 340 620 264 578 212 525 c 128
 159 470 118 387 118 284 c 0
 118 114 200 7 326 -38 c 128
 367 -53 412 -60 460 -60 c 0
 558 -60 635 -38 695 -2 c 0
 700 1 705 2 709 2 c 0
 716 2 721 -2 724 -10 c 2
 736 -42 l 1
 665 -89 577 -120 460 -120 c 0
 335 -120 236 -75 169 -12 c 128
 99 53 52 152 52 284 c 0
 52 407 103 499 165 564 c 128
 210 611 267 646 336 666 c 128
 369 676 403 680 439 680 c 0
 545 680 626 643 684 592 c 128
 745 538 792 457 792 344 c 128
 792 234 744 150 671 112 c 128
 646 99 620 93 592 93 c 0
 537 93 507 121 498 169 c 1
 467 125 428 94 362 94 c 0
EndSplineSet
Validated: 1
EndChar

StartChar: A
Encoding: 65 65 66
Width: 677
GlyphClass: 2
Flags: HMW
TopAccentHorizontal: 338
TopRightVertex: 2  275,-100 375,-150
BottomRightVertex: 1  0,50
AnchorPoint: "Anchor-3" 338 756 basechar 0
AnchorPoint: "Anchor-1" 337 -35 basechar 0
AnchorPoint: "Anchor-0" 338 756 basechar 0
LayerCount: 2
Fore
SplineSet
472 266 m 1
 360 558 l 2
 352 578 345 600 338 624 c 1
 331 597 324 575 317 557 c 2
 204 266 l 1
 472 266 l 1
674 0 m 1
 599 0 l 2
 581 0 571 10 566 23 c 2
 499 196 l 1
 178 196 l 1
 110 23 l 2
 106 11 94 0 78 0 c 2
 3 0 l 1
 290 716 l 1
 388 716 l 1
 674 0 l 1
EndSplineSet
Validated: 1
EndChar

StartChar: B
Encoding: 66 66 67
Width: 646
GlyphClass: 2
Flags: HMW
TopAccentHorizontal: 297
AnchorPoint: "Anchor-3" 297 756 basechar 0
AnchorPoint: "Anchor-1" 320 -35 basechar 0
AnchorPoint: "Anchor-0" 297 756 basechar 0
LayerCount: 2
Fore
SplineSet
501 206 m 0
 501 291 435 326 343 326 c 2
 188 326 l 1
 188 77 l 1
 343 77 l 2
 437 77 501 115 501 206 c 0
476 518 m 0
 476 611 418 640 320 640 c 2
 188 640 l 1
 188 396 l 1
 316 396 l 2
 407 396 476 429 476 518 c 0
438 368 m 1
 530 351 596 305 596 204 c 0
 596 99 533 41 451 15 c 128
 420 5 384 0 344 0 c 2
 92 0 l 1
 92 716 l 1
 320 716 l 2
 464 716 572 670 572 530 c 0
 572 464 538 423 497 396 c 0
 480 384 461 375 438 368 c 1
EndSplineSet
Validated: 1
EndChar

StartChar: C
Encoding: 67 67 68
Width: 668
GlyphClass: 2
Flags: HMW
TopAccentHorizontal: 406
AnchorPoint: "Anchor-3" 406 756 basechar 0
AnchorPoint: "Anchor-1" 388 -35 basechar 0
AnchorPoint: "Anchor-0" 406 756 basechar 0
LayerCount: 2
Fore
SplineSet
647 100 m 1
 589 33 511 -8 388 -8 c 0
 278 -8 196 35 141 94 c 128
 84 154 48 244 48 358 c 256
 48 531 132 647 256 698 c 128
 299 716 346 724 398 724 c 0
 504 724 580 687 636 634 c 1
 604 589 l 2
 600 582 595 578 584 578 c 0
 578 578 571 582 562 588 c 128
 521 617 472 640 398 640 c 0
 272 640 199 570 165 476 c 128
 152 441 146 402 146 358 c 0
 146 226 205 134 297 95 c 128
 327 82 359 76 394 76 c 0
 481 76 532 99 578 140 c 0
 583 145 589 148 594 148 c 128
 599 148 604 146 608 142 c 2
 647 100 l 1
EndSplineSet
Validated: 1
EndChar

StartChar: D
Encoding: 68 68 69
Width: 760
GlyphClass: 2
Flags: HMW
TopAccentHorizontal: 342
AnchorPoint: "Anchor-3" 342 756 basechar 0
AnchorPoint: "Anchor-1" 344 -44 basechar 0
AnchorPoint: "Anchor-0" 342 756 basechar 0
LayerCount: 2
Fore
SplineSet
712 358 m 256
 712 186 627 76 503 26 c 128
 460 9 412 0 359 0 c 2
 92 0 l 1
 92 716 l 1
 359 716 l 2
 529 716 640 629 687 504 c 128
 704 460 712 411 712 358 c 256
613 358 m 256
 613 490 558 581 464 619 c 128
 433 632 398 638 359 638 c 2
 188 638 l 1
 188 78 l 1
 359 78 l 2
 486 78 562 144 595 240 c 128
 607 275 613 314 613 358 c 256
EndSplineSet
Validated: 1
EndChar

StartChar: E
Encoding: 69 69 70
Width: 577
GlyphClass: 2
Flags: HMW
TopAccentHorizontal: 318
AnchorPoint: "Anchor-3" 318 756 basechar 0
AnchorPoint: "Anchor-1" 329 -35 basechar 0
AnchorPoint: "Anchor-0" 318 756 basechar 0
LayerCount: 2
Fore
SplineSet
534 79 m 1
 533 0 l 1
 92 0 l 1
 92 716 l 1
 533 716 l 1
 533 638 l 1
 188 638 l 1
 188 400 l 1
 468 400 l 1
 468 324 l 1
 188 324 l 1
 188 79 l 1
 534 79 l 1
EndSplineSet
Validated: 1
EndChar

StartChar: F
Encoding: 70 70 71
Width: 565
GlyphClass: 2
Flags: HMW
TopAccentHorizontal: 316
TopRightVertex: 1  662,50
BottomRightVertex: 1  0,-150
AnchorPoint: "Anchor-3" 316 756 basechar 0
AnchorPoint: "Anchor-1" 140 -35 basechar 0
AnchorPoint: "Anchor-0" 316 756 basechar 0
LayerCount: 2
Fore
SplineSet
188 638 m 1
 188 387 l 1
 483 387 l 1
 483 308 l 1
 188 308 l 1
 188 0 l 1
 92 0 l 1
 92 716 l 1
 533 716 l 1
 533 638 l 1
 188 638 l 1
EndSplineSet
Validated: 1
EndChar

StartChar: G
Encoding: 71 71 72
Width: 730
GlyphClass: 2
Flags: HMW
TopAccentHorizontal: 414
AnchorPoint: "Anchor-3" 414 756 basechar 0
AnchorPoint: "Anchor-1" 420 -35 basechar 0
AnchorPoint: "Anchor-0" 414 756 basechar 0
LayerCount: 2
Fore
SplineSet
474 270 m 2
 462 270 454 278 454 290 c 2
 454 344 l 1
 674 344 l 1
 674 70 l 1
 608 22 531 -8 424 -8 c 0
 304 -8 211 33 149 94 c 128
 88 153 47 243 47 358 c 0
 47 534 133 649 262 698 c 128
 307 715 358 724 414 724 c 0
 529 724 607 689 667 634 c 1
 640 590 l 2
 634 580 627 577 619 577 c 0
 603 577 585 591 572 599 c 128
 531 625 480 640 410 640 c 0
 280 640 198 574 164 476 c 128
 152 441 146 401 146 358 c 0
 146 219 207 129 307 90 c 128
 341 77 379 70 422 70 c 0
 493 70 539 87 586 113 c 1
 586 270 l 1
 474 270 l 2
EndSplineSet
Validated: 1
EndChar

StartChar: H
Encoding: 72 72 73
Width: 763
GlyphClass: 2
Flags: HMW
TopAccentHorizontal: 384
AnchorPoint: "Anchor-3" 384 756 basechar 0
AnchorPoint: "Anchor-1" 385 -35 basechar 0
AnchorPoint: "Anchor-0" 384 756 basechar 0
LayerCount: 2
Fore
SplineSet
672 716 m 1
 672 0 l 1
 575 0 l 1
 575 326 l 1
 188 326 l 1
 188 0 l 1
 92 0 l 1
 92 716 l 1
 188 716 l 1
 188 397 l 1
 575 397 l 1
 575 716 l 1
 672 716 l 1
EndSplineSet
Validated: 1
EndChar

StartChar: I
Encoding: 73 73 74
Width: 320
GlyphClass: 2
Flags: HMW
TopAccentHorizontal: 160
AnchorPoint: "Anchor-1" 160 -35 basechar 0
AnchorPoint: "Anchor-0" 162 756 basechar 0
LayerCount: 2
Fore
SplineSet
112 635 m 5
 20 635 l 5
 20 716 l 5
 300 716 l 5
 300 635 l 5
 208 635 l 5
 208 81 l 5
 300 81 l 5
 300 0 l 5
 20 0 l 5
 20 81 l 5
 112 81 l 5
 112 635 l 5
EndSplineSet
Validated: 1
EndChar

StartChar: J
Encoding: 74 74 75
Width: 422
GlyphClass: 2
Flags: HMW
TopAccentHorizontal: 290
AnchorPoint: "Anchor-1" 159 -35 basechar 0
AnchorPoint: "Anchor-0" 290 756 basechar 0
LayerCount: 2
Fore
SplineSet
103 73 m 0
 205 73 242 142 242 246 c 2
 242 716 l 1
 338 716 l 1
 338 248 l 2
 338 127 295 45 210 10 c 128
 182 -2 150 -8 113 -8 c 0
 80 -8 46 -3 12 6 c 1
 13 25 16 44 17 63 c 0
 19 75 25 82 40 82 c 0
 46 82 54 81 64 78 c 128
 74 75 86 73 103 73 c 0
EndSplineSet
Validated: 1
EndChar

StartChar: K
Encoding: 75 75 76
Width: 662
GlyphClass: 2
Flags: HMW
TopAccentHorizontal: 350
AnchorPoint: "Anchor-1" 328 -35 basechar 0
AnchorPoint: "Anchor-0" 350 756 basechar 0
LayerCount: 2
Fore
SplineSet
188 402 m 1
 224 402 l 2
 251 402 263 409 276 424 c 2
 514 694 l 1
 526 709 537 716 562 716 c 2
 644 716 l 1
 372 408 l 2
 360 394 348 383 332 376 c 1
 353 370 366 357 378 340 c 1
 664 0 l 1
 580 0 l 2
 562 0 550 3 542 12 c 0
 540 15 539 17 536 20 c 2
 288 305 l 2
 274 322 264 328 232 328 c 2
 188 328 l 1
 188 0 l 1
 92 0 l 1
 92 716 l 1
 188 716 l 1
 188 402 l 1
EndSplineSet
Validated: 1
EndChar

StartChar: L
Encoding: 76 76 77
Width: 513
GlyphClass: 2
Flags: HMW
TopAccentHorizontal: 146
TopRightVertex: 1  662,-150
BottomRightVertex: 1  0,50
AnchorPoint: "Anchor-1" 283 -35 basechar 0
AnchorPoint: "Anchor-0" 146 756 basechar 0
LayerCount: 2
Fore
SplineSet
498 82 m 1
 498 0 l 1
 92 0 l 1
 92 716 l 1
 188 716 l 1
 188 82 l 1
 498 82 l 1
EndSplineSet
Validated: 1
EndChar

StartChar: M
Encoding: 77 77 78
Width: 928
GlyphClass: 2
Flags: HMW
TopAccentHorizontal: 466
AnchorPoint: "Anchor-1" 464 -35 basechar 0
AnchorPoint: "Anchor-0" 466 756 basechar 0
LayerCount: 2
Fore
SplineSet
837 716 m 1
 837 0 l 1
 752 0 l 1
 752 526 l 2
 752 540 754 560 754 574 c 1
 508 126 l 2
 500 111 489 104 474 103 c 2
 460 103 l 2
 444 104 432 111 424 126 c 2
 174 576 l 1
 175 559 176 542 176 526 c 2
 176 0 l 1
 92 0 l 1
 92 716 l 1
 163 716 l 2
 183 716 189 715 196 700 c 2
 444 259 l 2
 452 243 461 227 466 208 c 1
 473 227 480 244 489 260 c 2
 732 700 l 2
 740 715 745 716 766 716 c 2
 837 716 l 1
EndSplineSet
Validated: 1
EndChar

StartChar: N
Encoding: 78 78 79
Width: 763
GlyphClass: 2
Flags: HMW
TopAccentHorizontal: 389
AnchorPoint: "Anchor-1" 382 -35 basechar 0
AnchorPoint: "Anchor-0" 389 756 basechar 0
LayerCount: 2
Fore
SplineSet
590 160 m 1
 589 176 587 193 587 209 c 2
 587 716 l 1
 672 716 l 1
 672 0 l 1
 624 0 l 2
 606 0 597 6 589 18 c 2
 174 558 l 1
 175 544 176 524 176 510 c 2
 176 0 l 1
 92 0 l 1
 92 716 l 1
 142 716 l 2
 161 716 167 711 175 700 c 2
 590 160 l 1
EndSplineSet
Validated: 1
EndChar

StartChar: O
Encoding: 79 79 80
Width: 800
GlyphClass: 2
Flags: HMW
TopAccentHorizontal: 401
AnchorPoint: "Anchor-1" 400 -35 basechar 0
AnchorPoint: "Anchor-0" 401 756 basechar 0
LayerCount: 2
Fore
SplineSet
754 358 m 256
 754 245 713 154 656 94 c 128
 599 34 512 -8 400 -8 c 256
 287 -8 201 34 144 94 c 128
 86 154 47 244 47 358 c 256
 47 530 133 646 256 697 c 128
 299 715 347 724 400 724 c 256
 572 724 679 632 728 506 c 128
 745 461 754 411 754 358 c 256
654 358 m 256
 654 490 599 583 505 621 c 128
 474 634 439 640 400 640 c 256
 272 640 197 573 164 476 c 128
 152 441 146 402 146 358 c 256
 146 225 201 135 295 96 c 128
 326 83 361 76 400 76 c 256
 527 76 603 144 636 240 c 128
 648 275 654 314 654 358 c 256
EndSplineSet
Validated: 1
EndChar

StartChar: P
Encoding: 80 80 81
Width: 600
GlyphClass: 2
Flags: HMW
TopAccentHorizontal: 294
TopRightVertex: 1  662,50
BottomRightVertex: 1  0,-150
AnchorPoint: "Anchor-1" 140 -35 basechar 0
AnchorPoint: "Anchor-0" 294 756 basechar 0
LayerCount: 2
Fore
SplineSet
474 494 m 0
 474 593 408 640 303 640 c 2
 188 640 l 1
 188 345 l 1
 303 345 l 2
 404 345 474 395 474 494 c 0
303 716 m 2
 463 716 570 651 570 494 c 128
 570 380 505 315 418 285 c 128
 385 274 346 268 303 268 c 2
 188 268 l 1
 188 0 l 1
 92 0 l 1
 92 716 l 1
 303 716 l 2
EndSplineSet
Validated: 1
EndChar

StartChar: Q
Encoding: 81 81 82
Width: 800
GlyphClass: 2
Flags: HMW
TopAccentHorizontal: 401
AnchorPoint: "Anchor-1" 418 -210 basechar 0
AnchorPoint: "Anchor-0" 401 756 basechar 0
LayerCount: 2
Fore
SplineSet
146 358 m 256
 146 225 202 135 296 96 c 0
 327 83 361 76 400 76 c 128
 527 76 603 144 636 240 c 128
 648 275 654 314 654 358 c 256
 654 490 599 583 505 621 c 128
 474 634 439 640 400 640 c 128
 273 640 197 572 164 476 c 128
 152 441 146 402 146 358 c 256
754 358 m 0
 754 210 691 112 604 50 c 1
 787 -148 l 1
 707 -148 l 2
 680 -148 665 -141 650 -126 c 2
 524 12 l 1
 485 -1 444 -8 400 -8 c 0
 287 -8 203 34 145 94 c 128
 87 154 48 244 48 358 c 256
 48 531 133 646 257 697 c 128
 300 715 348 724 400 724 c 256
 513 724 599 682 656 622 c 128
 714 562 754 472 754 358 c 0
EndSplineSet
Validated: 1
EndChar

StartChar: R
Encoding: 82 82 83
Width: 626
GlyphClass: 2
Flags: HMW
TopAccentHorizontal: 298
AnchorPoint: "Anchor-1" 338 -35 basechar 0
AnchorPoint: "Anchor-0" 298 756 basechar 0
LayerCount: 2
Fore
SplineSet
462 511 m 0
 462 605 395 640 294 640 c 2
 188 640 l 1
 188 370 l 1
 290 370 l 2
 370 370 427 398 451 454 c 128
 458 471 462 490 462 511 c 0
294 716 m 2
 445 716 556 666 556 518 c 0
 556 431 511 376 454 343 c 128
 432 330 408 321 380 315 c 1
 392 308 403 297 412 284 c 2
 621 0 l 1
 535 0 l 2
 518 0 505 7 496 20 c 2
 310 276 l 2
 299 292 289 299 262 299 c 2
 188 299 l 1
 188 0 l 1
 92 0 l 1
 92 716 l 1
 294 716 l 2
EndSplineSet
Validated: 1
EndChar

StartChar: S
Encoding: 83 83 84
Width: 542
GlyphClass: 2
Flags: HMW
TopAccentHorizontal: 294
AnchorPoint: "Anchor-1" 258 -35 basechar 0
AnchorPoint: "Anchor-0" 294 756 basechar 0
LayerCount: 2
Fore
SplineSet
458 604 m 2
 454 595 448 590 436 590 c 128
 431 590 424 593 416 598 c 128
 382 620 345 644 286 644 c 0
 225 644 180 619 162 576 c 128
 156 563 154 548 154 532 c 0
 154 489 179 466 208 449 c 128
 241 430 286 417 326 403 c 128
 413 373 498 335 498 218 c 0
 498 109 439 41 359 10 c 128
 329 -2 295 -8 258 -8 c 0
 158 -8 83 32 33 86 c 1
 61 132 l 2
 66 139 72 144 84 144 c 0
 96 144 107 133 117 126 c 128
 154 99 194 72 260 72 c 0
 328 72 376 102 396 150 c 128
 403 166 406 184 406 204 c 0
 406 298 307 313 235 336 c 128
 191 350 148 366 117 394 c 128
 84 424 64 465 64 528 c 0
 64 621 122 681 191 708 c 128
 218 719 250 724 286 724 c 0
 373 724 435 694 482 650 c 1
 458 604 l 2
EndSplineSet
Validated: 1
EndChar

StartChar: T
Encoding: 84 84 85
Width: 590
GlyphClass: 2
Flags: HMW
TopAccentHorizontal: 297
TopRightVertex: 1  662,50
BottomRightVertex: 1  0,-100
AnchorPoint: "Anchor-1" 297 -35 basechar 0
AnchorPoint: "Anchor-0" 297 756 basechar 0
LayerCount: 2
Fore
SplineSet
576 635 m 5
 344 635 l 1
 344 0 l 1
 248 0 l 1
 248 635 l 1
 15 635 l 1
 15 716 l 1
 576 716 l 1
 576 635 l 5
EndSplineSet
Validated: 1
EndChar

StartChar: U
Encoding: 85 85 86
Width: 735
GlyphClass: 2
Flags: HMW
TopAccentHorizontal: 368
AnchorPoint: "Anchor-1" 368 -35 basechar 0
AnchorPoint: "Anchor-0" 368 756 basechar 0
LayerCount: 2
Fore
SplineSet
368 77 m 256
 461 77 520 127 544 198 c 128
 552 223 556 251 556 281 c 2
 556 716 l 1
 653 716 l 1
 653 281 l 2
 653 144 585 55 487 14 c 128
 452 -1 412 -8 368 -8 c 256
 229 -8 140 64 102 166 c 128
 89 201 82 240 82 281 c 2
 82 716 l 1
 179 716 l 1
 179 282 l 2
 179 186 220 122 288 92 c 128
 312 82 339 77 368 77 c 256
EndSplineSet
Validated: 1
EndChar

StartChar: V
Encoding: 86 86 87
Width: 677
GlyphClass: 2
Flags: HMW
TopAccentHorizontal: 340
BottomRightVertex: 1  0,-150
AnchorPoint: "Anchor-1" 338 -35 basechar 0
AnchorPoint: "Anchor-0" 340 756 basechar 0
LayerCount: 2
Fore
SplineSet
674 716 m 1
 382 0 l 1
 295 0 l 1
 3 716 l 1
 80 716 l 2
 98 716 109 707 114 694 c 2
 316 188 l 1
 325 163 333 136 340 109 c 1
 346 137 353 164 362 188 c 1
 564 694 l 2
 568 705 581 716 596 716 c 2
 674 716 l 1
EndSplineSet
Validated: 1
EndChar

StartChar: W
Encoding: 87 87 88
Width: 1035
GlyphClass: 2
Flags: HMW
TopAccentHorizontal: 518
TopRightVertex: 1  662,50
BottomRightVertex: 1  0,-150
AnchorPoint: "Anchor-1" 518 -35 basechar 0
AnchorPoint: "Anchor-0" 518 756 basechar 0
LayerCount: 2
Fore
SplineSet
1020 716 m 1
 796 0 l 1
 710 0 l 1
 528 546 l 2
 525 558 520 570 518 582 c 1
 515 569 511 557 508 546 c 2
 326 0 l 1
 239 0 l 1
 16 716 l 1
 96 716 l 2
 113 716 125 707 129 694 c 2
 277 196 l 2
 283 176 286 157 290 134 c 1
 295 157 300 176 306 196 c 2
 474 694 l 2
 478 705 491 716 507 716 c 2
 535 716 l 2
 553 716 563 707 568 694 c 2
 736 196 l 2
 742 178 747 156 752 136 c 1
 755 157 759 177 764 196 c 2
 912 694 l 2
 915 706 929 716 944 716 c 2
 1020 716 l 1
EndSplineSet
Validated: 1
EndChar

StartChar: X
Encoding: 88 88 89
Width: 649
GlyphClass: 2
Flags: HMW
TopAccentHorizontal: 324
AnchorPoint: "Anchor-1" 324 -35 basechar 0
AnchorPoint: "Anchor-0" 324 756 basechar 0
LayerCount: 2
Fore
SplineSet
638 0 m 1
 542 0 l 2
 528 0 520 10 514 18 c 2
 322 320 l 1
 319 312 317 305 314 299 c 1
 126 18 l 2
 120 9 114 0 100 0 c 2
 10 0 l 1
 256 368 l 1
 20 716 l 1
 116 716 l 2
 130 716 136 712 141 703 c 2
 328 416 l 1
 331 423 334 430 338 439 c 1
 515 701 l 2
 520 709 526 716 538 716 c 2
 630 716 l 1
 392 372 l 1
 638 0 l 1
EndSplineSet
Validated: 1
EndChar

StartChar: Y
Encoding: 89 89 90
Width: 624
GlyphClass: 2
Flags: HMW
TopAccentHorizontal: 313
BottomRightVertex: 1  0,-150
AnchorPoint: "Anchor-1" 312 -35 basechar 0
AnchorPoint: "Anchor-0" 313 756 basechar 0
LayerCount: 2
Fore
SplineSet
360 286 m 1
 360 0 l 1
 264 0 l 1
 264 286 l 1
 1 716 l 1
 86 716 l 2
 105 716 113 706 120 694 c 2
 284 416 l 1
 293 398 292 398 300 383 c 128
 305 373 310 363 313 352 c 1
 322 376 330 393 341 416 c 1
 504 694 l 2
 509 705 522 716 538 716 c 2
 623 716 l 1
 360 286 l 1
EndSplineSet
Validated: 1
EndChar

StartChar: Z
Encoding: 90 90 91
Width: 602
GlyphClass: 2
Flags: HMW
TopAccentHorizontal: 310
AnchorPoint: "Anchor-1" 312 -35 basechar 0
AnchorPoint: "Anchor-0" 310 756 basechar 0
LayerCount: 2
Fore
SplineSet
570 680 m 2
 570 669 567 659 560 648 c 2
 154 79 l 1
 564 79 l 1
 564 0 l 1
 26 0 l 1
 26 38 l 2
 26 49 31 59 36 66 c 2
 442 638 l 1
 46 638 l 1
 46 716 l 1
 570 716 l 1
 570 680 l 2
EndSplineSet
Validated: 1
EndChar

StartChar: uni005B
Encoding: 91 91 92
Width: 306
VWidth: 1001
GlyphClass: 2
Flags: HMW
LayerCount: 2
Fore
SplineSet
275 673 m 2
 275 659 265 649 250 649 c 2
 166 649 l 1
 166 -145 l 1
 250 -145 l 2
 264 -145 275 -155 275 -169 c 2
 275 -203 l 1
 91 -203 l 1
 91 707 l 1
 275 707 l 1
 275 673 l 2
EndSplineSet
Validated: 1
EndChar

StartChar: backslash
Encoding: 92 92 93
Width: 504
VWidth: 997
GlyphClass: 2
Flags: HMW
LayerCount: 2
Fore
SplineSet
35 723 m 1
 73 723 l 2
 97 723 112 710 119 691 c 2
 469 -218 l 1
 432 -218 l 2
 409 -218 390 -203 383 -183 c 1
 35 723 l 1
EndSplineSet
Validated: 1
EndChar

StartChar: uni005D
Encoding: 93 93 94
Width: 306
VWidth: 1001
GlyphClass: 2
Flags: HMW
LayerCount: 2
Fore
SplineSet
56 649 m 6
 42 649 31 659 31 673 c 6
 31 707 l 5
 215 707 l 5
 215 -203 l 5
 31 -203 l 5
 31 -169 l 6
 31 -155 41 -145 56 -145 c 6
 140 -145 l 5
 140 649 l 5
 56 649 l 6
EndSplineSet
Validated: 1
EndChar

StartChar: asciicircum
Encoding: 94 94 95
Width: 580
GlyphClass: 2
Flags: HMW
LayerCount: 2
Fore
SplineSet
514 348 m 1
 449 348 l 2
 437 348 429 357 424 365 c 2
 310 586 l 2
 302 603 295 620 290 635 c 1
 284 617 280 604 272 586 c 1
 160 365 l 2
 156 356 147 348 134 348 c 2
 66 348 l 1
 260 716 l 1
 318 716 l 1
 514 348 l 1
EndSplineSet
Validated: 1
EndChar

StartChar: underscore
Encoding: 95 95 96
Width: 459
GlyphClass: 2
Flags: HMW
LayerCount: 2
Fore
SplineSet
426 -82 m 1
 426 -142 l 1
 32 -142 l 1
 32 -82 l 1
 426 -82 l 1
EndSplineSet
Validated: 1
EndChar

StartChar: grave
Encoding: 96 96 97
Width: 400
GlyphClass: 2
Flags: HMW
LayerCount: 2
Fore
SplineSet
150 724 m 2
 173 724 180 717 190 702 c 2
 264 582 l 1
 213 582 l 2
 197 582 191 587 182 596 c 2
 66 724 l 1
 150 724 l 2
EndSplineSet
Validated: 1
EndChar

StartChar: a
Encoding: 97 97 98
Width: 497
GlyphClass: 2
Flags: HMW
TopAccentHorizontal: 244
AnchorPoint: "Anchor-3" 244 560 basechar 0
AnchorPoint: "Anchor-1" 246 -35 basechar 0
LayerCount: 2
Fore
SplineSet
202 54 m 0
 270 54 311 87 345 123 c 1
 345 228 l 1
 274 226 216 218 170 198 c 128
 140 185 118 167 118 130 c 0
 118 79 152 54 202 54 c 0
345 324 m 2
 345 397 315 444 245 444 c 0
 188 444 156 420 124 398 c 128
 116 393 108 390 100 390 c 0
 88 390 79 398 74 406 c 2
 58 435 l 1
 108 482 166 516 256 516 c 0
 371 516 432 439 432 324 c 2
 432 0 l 1
 392 0 l 2
 373 0 367 5 362 21 c 1
 352 69 l 1
 306 28 261 -8 175 -8 c 0
 108 -8 65 21 44 67 c 128
 36 84 32 103 32 126 c 0
 32 178 64 212 103 234 c 128
 163 269 244 282 345 284 c 1
 345 324 l 2
EndSplineSet
Validated: 1
EndChar

StartChar: b
Encoding: 98 98 99
Width: 560
GlyphClass: 2
Flags: HMW
TopAccentHorizontal: 148
AnchorPoint: "Anchor-3" 314 560 basechar 0
AnchorPoint: "Anchor-1" 282 -35 basechar 0
AnchorPoint: "Anchor-0" 148 756 basechar 0
LayerCount: 2
Fore
SplineSet
296 444 m 0
 229 444 192 409 160 367 c 1
 160 122 l 1
 187 85 221 62 278 62 c 0
 386 62 426 146 426 263 c 0
 426 369 392 444 296 444 c 0
300 -7 m 128
 228 -7 188 22 156 65 c 1
 151 19 l 1
 148 6 141 0 128 0 c 2
 70 0 l 1
 70 736 l 1
 160 736 l 1
 160 434 l 1
 198 478 247 514 325 514 c 0
 426 514 480 450 504 370 c 128
 513 339 518 305 518 266 c 0
 518 143 473 52 390 12 c 128
 363 -1 333 -7 300 -7 c 128
EndSplineSet
Validated: 1
EndChar

StartChar: c
Encoding: 99 99 100
Width: 477
GlyphClass: 2
Flags: HMW
TopAccentHorizontal: 278
AnchorPoint: "Anchor-3" 278 560 basechar 0
AnchorPoint: "Anchor-1" 243 -35 basechar 0
LayerCount: 2
Fore
SplineSet
452 71 m 1
 414 23 350 -7 265 -7 c 0
 154 -7 88 58 59 143 c 128
 48 176 42 213 42 254 c 0
 42 373 94 459 178 495 c 128
 207 508 241 514 280 514 c 0
 357 514 406 488 446 448 c 1
 423 416 l 2
 418 409 415 405 404 405 c 0
 399 405 393 408 387 412 c 128
 362 430 331 445 286 445 c 0
 177 445 133 364 133 254 c 0
 133 167 162 103 220 75 c 128
 238 66 258 62 281 62 c 0
 333 62 365 81 392 104 c 128
 398 109 405 112 410 112 c 0
 418 112 424 109 428 104 c 2
 452 71 l 1
EndSplineSet
Validated: 1
EndChar

StartChar: d
Encoding: 100 100 101
Width: 560
GlyphClass: 2
Flags: HMW
TopAccentHorizontal: 415
AnchorPoint: "Anchor-3" 253 560 basechar 0
AnchorPoint: "Anchor-1" 298 -35 basechar 0
AnchorPoint: "Anchor-0" 415 756 basechar 0
LayerCount: 2
Fore
SplineSet
264 65 m 0
 332 65 368 100 400 142 c 1
 400 386 l 1
 372 424 341 446 282 446 c 0
 178 446 135 363 135 252 c 0
 135 147 162 65 264 65 c 0
262 516 m 0
 327 516 367 491 400 456 c 1
 400 736 l 1
 490 736 l 1
 490 0 l 1
 436 0 l 2
 423 0 415 6 412 18 c 1
 404 80 l 1
 366 34 313 -7 234 -7 c 0
 132 -7 79 58 56 140 c 128
 47 172 43 209 43 252 c 0
 43 369 91 456 170 496 c 128
 197 510 227 516 262 516 c 0
EndSplineSet
Validated: 1
EndChar

StartChar: e
Encoding: 101 101 102
Width: 528
GlyphClass: 2
Flags: HMW
TopAccentHorizontal: 280
AnchorPoint: "Anchor-3" 280 560 basechar 0
AnchorPoint: "Anchor-1" 282 -35 basechar 0
LayerCount: 2
Fore
SplineSet
410 308 m 1
 410 374 380 418 334 438 c 128
 318 445 300 449 280 449 c 0
 189 449 144 390 132 308 c 1
 410 308 l 1
130 253 m 1
 135 142 177 63 290 63 c 0
 346 63 388 82 420 104 c 0
 428 109 435 112 440 112 c 0
 447 112 452 109 456 104 c 2
 482 71 l 1
 443 22 369 -7 283 -7 c 0
 164 -7 92 58 60 148 c 128
 48 182 42 220 42 264 c 0
 42 380 97 460 179 495 c 128
 208 508 241 514 278 514 c 0
 381 514 445 460 474 384 c 128
 485 356 490 324 490 288 c 0
 490 265 488 253 468 253 c 2
 130 253 l 1
EndSplineSet
Validated: 1
EndChar

StartChar: f
Encoding: 102 102 103
Width: 350
GlyphClass: 2
Flags: HMW
ItalicCorrection: 21
TopAccentHorizontal: 213
AnchorPoint: "Anchor-3" 252 750 basechar 0
AnchorPoint: "Anchor-1" 148 -35 basechar 0
AnchorPoint: "Anchor-0" 213 756 basechar 0
LayerCount: 2
Fore
SplineSet
292 658 m 0
 219 658 190 617 190 543 c 2
 190 496 l 1
 336 496 l 1
 336 432 l 1
 193 432 l 1
 193 0 l 1
 104 0 l 1
 104 430 l 1
 48 437 l 2
 36 439 24 446 24 460 c 2
 24 496 l 1
 104 496 l 1
 104 546 l 2
 104 659 166 727 278 727 c 0
 301 727 321 724 340 717 c 1
 338 672 l 2
 337 660 325 658 311 658 c 0
 305 658 298 658 292 658 c 0
EndSplineSet
Validated: 1
EndChar

StartChar: g
Encoding: 103 103 104
Width: 520
GlyphClass: 2
Flags: HMW
TopAccentHorizontal: 258
AnchorPoint: "Anchor-3" 258 560 basechar 0
AnchorPoint: "Anchor-1" 247 -210 basechar 0
LayerCount: 2
Fore
SplineSet
247 451 m 0
 179 451 136 415 136 350 c 0
 136 284 180 248 247 248 c 256
 315 248 357 283 357 350 c 0
 357 415 314 451 247 451 c 0
172 42 m 1
 141 28 109 4 109 -37 c 0
 109 -84 149 -102 190 -112 c 128
 208 -116 229 -118 254 -118 c 0
 318 -118 371 -101 397 -64 c 128
 404 -53 408 -41 408 -28 c 0
 408 29 332 30 278 34 c 128
 242 37 206 37 172 42 c 1
247 515 m 0
 293 515 330 504 360 486 c 1
 498 486 l 1
 498 454 l 2
 498 443 491 436 477 432 c 1
 420 425 l 1
 431 403 436 379 436 352 c 0
 436 269 386 222 323 200 c 128
 300 192 274 188 247 188 c 0
 223 188 201 191 180 197 c 1
 165 187 147 173 147 153 c 0
 147 110 211 108 255 107 c 128
 365 103 490 100 490 -13 c 0
 490 -65 459 -104 426 -130 c 128
 385 -162 326 -182 252 -182 c 256
 182 -182 127 -168 86 -142 c 128
 56 -123 31 -92 31 -48 c 0
 31 10 73 38 119 56 c 1
 91 69 70 89 70 128 c 0
 70 159 88 181 106 197 c 128
 114 204 123 211 134 216 c 1
 88 241 55 285 55 352 c 0
 55 434 107 483 170 504 c 128
 194 512 219 515 247 515 c 0
EndSplineSet
Validated: 1
EndChar

StartChar: h
Encoding: 104 104 105
Width: 558
GlyphClass: 2
Flags: HMW
TopAccentHorizontal: 148
AnchorPoint: "Anchor-3" 148 756 basechar 0
AnchorPoint: "Anchor-1" 282 -35 basechar 0
AnchorPoint: "Anchor-0" 148 756 basechar 0
LayerCount: 2
Fore
SplineSet
297 444 m 0
 235 444 192 410 160 373 c 1
 160 0 l 1
 70 0 l 1
 70 736 l 1
 160 736 l 1
 160 439 l 1
 198 480 248 514 323 514 c 0
 438 514 492 437 492 322 c 2
 492 0 l 1
 403 0 l 1
 403 322 l 2
 403 396 370 444 297 444 c 0
EndSplineSet
Validated: 1
EndChar

StartChar: i
Encoding: 105 105 106
Width: 240
GlyphClass: 2
Flags: HMW
TopAccentHorizontal: 120
AnchorPoint: "Anchor-3" 120 756 basechar 0
AnchorPoint: "Anchor-1" 120 -35 basechar 0
AnchorPoint: "Anchor-0" 120 756 basechar 0
LayerCount: 2
Fore
SplineSet
164 506 m 1
 164 0 l 1
 76 0 l 1
 76 506 l 1
 164 506 l 1
184 666 m 256
 184 630 155 602 119 602 c 256
 83 602 56 630 56 666 c 256
 56 702 83 730 119 730 c 256
 150 730 168 711 178 690 c 128
 182 682 184 675 184 666 c 256
EndSplineSet
Validated: 1
Substitution2: "'dtls' Dotless Forms in Mathematical Alphanumeric Symbols lookup 1 subtable" dotlessi
EndChar

StartChar: j
Encoding: 106 106 107
Width: 240
GlyphClass: 2
Flags: HMW
TopAccentHorizontal: 120
AnchorPoint: "Anchor-3" 120 756 basechar 0
AnchorPoint: "Anchor-1" 120 -210 basechar 0
AnchorPoint: "Anchor-0" 120 756 basechar 0
LayerCount: 2
Fore
SplineSet
4 -114 m 0
 57 -114 76 -91 76 -38 c 2
 76 506 l 1
 164 506 l 1
 164 -38 l 2
 164 -130 114 -182 21 -182 c 0
 -2 -182 -18 -178 -36 -172 c 1
 -32 -124 l 1
 -30 -115 -23 -114 -12 -114 c 128
 -6 -114 -6 -114 4 -114 c 0
183 666 m 256
 183 630 155 602 119 602 c 256
 83 602 56 630 56 666 c 256
 56 702 83 730 119 730 c 256
 149 730 168 711 178 690 c 128
 182 682 183 675 183 666 c 256
EndSplineSet
Validated: 1
Substitution2: "'dtls' Dotless Forms in Mathematical Alphanumeric Symbols lookup 1 subtable" uni0237
EndChar

StartChar: k
Encoding: 107 107 108
Width: 508
GlyphClass: 2
Flags: HMW
TopAccentHorizontal: 116
AnchorPoint: "Anchor-3" 116 756 basechar 0
AnchorPoint: "Anchor-1" 266 -35 basechar 0
AnchorPoint: "Anchor-0" 116 756 basechar 0
LayerCount: 2
Fore
SplineSet
160 736 m 1
 160 303 l 1
 183 303 l 2
 200 303 205 307 214 317 c 2
 374 488 l 2
 383 498 391 506 410 506 c 2
 490 506 l 5
 304 308 l 2
 295 297 285 289 274 282 c 1
 286 274 296 263 304 250 c 1
 502 0 l 1
 423 0 l 2
 405 0 396 6 389 18 c 1
 222 225 l 2
 212 237 207 242 186 242 c 2
 160 242 l 1
 160 0 l 1
 70 0 l 1
 70 736 l 1
 160 736 l 1
EndSplineSet
Validated: 1
EndChar

StartChar: l
Encoding: 108 108 109
Width: 236
GlyphClass: 2
Flags: HMW
TopAccentHorizontal: 119
AnchorPoint: "Anchor-3" 119 756 basechar 0
AnchorPoint: "Anchor-1" 119 -35 basechar 0
AnchorPoint: "Anchor-0" 119 756 basechar 0
LayerCount: 2
Fore
SplineSet
162 736 m 1
 162 0 l 1
 74 0 l 1
 74 736 l 1
 162 736 l 1
EndSplineSet
Validated: 1
EndChar

StartChar: m
Encoding: 109 109 110
Width: 822
GlyphClass: 2
Flags: W
TopAccentHorizontal: 425
HStem: 0 21G<71 161 369 459 669 759> 444 70<218.088 336.213 501.49 633.313>
VStem: 71 90<0 401.812> 71 78<436 505.93> 369 90<0 398.43> 669 90<0 405.296>
LayerCount: 2
Fore
SplineSet
273 444 m 0xdc
 221 444 187 410 161 378 c 1
 161 0 l 1
 71 0 l 1xec
 71 506 l 1
 125 506 l 2
 138 506 146 500 149 488 c 1
 155 436 l 1
 188 476 231 514 299 514 c 0
 372 514 410 469 427 409 c 1
 451 470 506 514 589 514 c 0
 704 514 759 438 759 322 c 2
 759 0 l 1
 669 0 l 1
 669 322 l 2
 669 396 638 444 568 444 c 0
 499 444 459 392 459 322 c 2
 459 0 l 1
 369 0 l 1
 369 322 l 2
 369 396 343 444 273 444 c 0xdc
EndSplineSet
Validated: 1
EndChar

StartChar: n
Encoding: 110 110 111
Width: 558
GlyphClass: 2
Flags: HMW
TopAccentHorizontal: 282
AnchorPoint: "Anchor-3" 282 560 basechar 0
AnchorPoint: "Anchor-1" 282 -35 basechar 0
LayerCount: 2
Fore
SplineSet
297 444 m 0
 235 444 192 410 160 373 c 1
 160 0 l 1
 70 0 l 1
 70 506 l 1
 124 506 l 2
 137 506 145 500 148 488 c 1
 154 433 l 1
 193 476 243 514 323 514 c 0
 438 514 492 437 492 322 c 2
 492 0 l 1
 403 0 l 1
 403 322 l 2
 403 396 370 444 297 444 c 0
EndSplineSet
Validated: 1
EndChar

StartChar: o
Encoding: 111 111 112
Width: 567
GlyphClass: 2
Flags: HMW
TopAccentHorizontal: 284
AnchorPoint: "Anchor-3" 284 560 basechar 0
AnchorPoint: "Anchor-1" 284 -35 basechar 0
LayerCount: 2
Fore
SplineSet
284 514 m 128
 403 514 477 452 508 362 c 0
 519 330 525 294 525 254 c 128
 525 130 472 49 384 12 c 128
 355 0 321 -7 284 -7 c 128
 163 -7 91 56 59 146 c 128
 48 178 42 214 42 254 c 128
 42 376 95 461 183 496 c 128
 213 508 247 514 284 514 c 128
134 253 m 0
 134 141 176 62 284 62 c 0
 391 62 433 142 433 253 c 128
 433 364 391 444 284 444 c 0
 174 444 134 364 134 253 c 0
EndSplineSet
Validated: 1
EndChar

StartChar: p
Encoding: 112 112 113
Width: 560
GlyphClass: 2
Flags: HMW
TopAccentHorizontal: 263
AnchorPoint: "Anchor-3" 263 560 basechar 0
AnchorPoint: "Anchor-1" 254 -210 basechar 0
LayerCount: 2
Fore
SplineSet
296 444 m 0
 229 444 192 409 160 367 c 1
 160 122 l 1
 187 85 220 62 278 62 c 0
 382 62 426 144 426 256 c 0
 426 360 397 444 296 444 c 0
298 -7 m 0
 233 -7 193 17 160 52 c 1
 160 -172 l 1
 70 -172 l 1
 70 506 l 1
 124 506 l 2
 137 506 145 500 148 488 c 1
 156 428 l 1
 194 475 246 516 326 516 c 0
 428 516 480 450 504 368 c 128
 513 336 518 299 518 256 c 0
 518 138 469 54 390 14 c 128
 363 0 333 -7 298 -7 c 0
EndSplineSet
Validated: 1
EndChar

StartChar: q
Encoding: 113 113 114
Width: 560
GlyphClass: 2
Flags: HMW
TopAccentHorizontal: 304
AnchorPoint: "Anchor-3" 304 560 basechar 0
AnchorPoint: "Anchor-1" 298 -210 basechar 0
LayerCount: 2
Fore
SplineSet
264 65 m 0
 332 65 368 100 400 142 c 1
 400 386 l 1
 373 422 339 446 282 446 c 0
 178 446 135 363 135 252 c 0
 135 147 162 65 264 65 c 0
262 516 m 0
 332 516 373 488 406 449 c 1
 412 488 l 2
 415 500 423 506 436 506 c 2
 490 506 l 1
 490 -172 l 1
 400 -172 l 1
 400 76 l 1
 362 32 311 -7 234 -7 c 0
 132 -7 79 58 56 140 c 128
 47 172 43 209 43 252 c 0
 43 369 91 456 170 496 c 128
 197 510 227 516 262 516 c 0
EndSplineSet
Validated: 1
EndChar

StartChar: r
Encoding: 114 114 115
Width: 364
GlyphClass: 2
Flags: HMW
ItalicCorrection: 60
TopAccentHorizontal: 210
AnchorPoint: "Anchor-3" 210 560 basechar 0
AnchorPoint: "Anchor-1" 116 -35 basechar 0
LayerCount: 2
Fore
SplineSet
284 428 m 0
 209 428 181 376 160 320 c 1
 160 0 l 1
 70 0 l 1
 70 506 l 1
 122 506 l 2
 142 506 146 500 149 482 c 1
 155 405 l 1
 182 463 223 516 300 516 c 0
 323 516 341 510 356 501 c 1
 350 434 l 1
 348 426 343 422 335 422 c 0
 321 422 302 428 284 428 c 0
EndSplineSet
Validated: 1
EndChar

StartChar: s
Encoding: 115 115 116
Width: 433
GlyphClass: 2
Flags: HMW
TopAccentHorizontal: 224
AnchorPoint: "Anchor-3" 224 560 basechar 0
AnchorPoint: "Anchor-1" 211 -35 basechar 0
LayerCount: 2
Fore
SplineSet
207 56 m 0
 265 56 310 83 310 140 c 0
 310 187 265 204 228 215 c 128
 179 230 122 244 88 274 c 128
 64 295 47 324 47 368 c 0
 47 440 95 482 150 502 c 128
 172 510 198 514 227 514 c 0
 297 514 349 491 386 456 c 1
 366 423 l 2
 362 416 356 412 347 412 c 0
 342 412 336 414 330 418 c 128
 304 433 272 448 229 448 c 0
 178 448 132 424 132 374 c 0
 132 344 151 331 172 320 c 128
 198 306 232 298 263 288 c 128
 327 266 394 240 394 155 c 0
 394 73 346 26 284 4 c 0
 260 -4 233 -8 202 -8 c 0
 129 -8 72 18 34 54 c 1
 54 88 l 2
 59 95 66 101 78 101 c 0
 84 101 90 99 97 94 c 128
 125 74 156 56 207 56 c 0
EndSplineSet
Validated: 1
EndChar

StartChar: t
Encoding: 116 116 117
Width: 358
GlyphClass: 2
Flags: HMW
ItalicCorrection: 60
TopAccentHorizontal: 172
AnchorPoint: "Anchor-3" 172 560 basechar 0
AnchorPoint: "Anchor-1" 224 -35 basechar 0
LayerCount: 2
Fore
SplineSet
348 38 m 1
 321 12 276 -8 226 -8 c 0
 145 -8 102 40 102 122 c 2
 102 432 l 1
 40 432 l 2
 28 432 22 440 22 452 c 2
 22 487 l 1
 104 498 l 1
 125 654 l 1
 128 664 134 671 146 671 c 2
 190 671 l 1
 190 496 l 1
 337 496 l 1
 337 432 l 1
 190 432 l 1
 190 128 l 2
 190 90 210 65 246 65 c 0
 271 65 287 76 301 86 c 128
 304 88 307 89 310 89 c 0
 314 88 318 85 322 80 c 2
 348 38 l 1
EndSplineSet
Validated: 1
EndChar

StartChar: u
Encoding: 117 117 118
Width: 557
GlyphClass: 2
Flags: HMW
TopAccentHorizontal: 279
AnchorPoint: "Anchor-3" 279 560 basechar 0
AnchorPoint: "Anchor-1" 298 -35 basechar 0
LayerCount: 2
Fore
SplineSet
261 63 m 0
 324 63 366 96 398 134 c 1
 398 506 l 1
 487 506 l 1
 487 0 l 1
 434 0 l 2
 421 0 413 6 410 18 c 1
 403 73 l 1
 364 30 312 -8 235 -8 c 0
 120 -8 66 69 66 184 c 2
 66 506 l 1
 154 506 l 1
 154 184 l 2
 154 109 187 63 261 63 c 0
EndSplineSet
Validated: 1
EndChar

StartChar: v
Encoding: 118 118 119
Width: 516
GlyphClass: 2
Flags: HMW
TopAccentHorizontal: 258
AnchorPoint: "Anchor-3" 258 560 basechar 0
AnchorPoint: "Anchor-1" 258 -35 basechar 0
LayerCount: 2
Fore
SplineSet
504 506 m 1
 298 0 l 1
 218 0 l 1
 12 506 l 1
 84 506 l 2
 98 506 109 499 112 488 c 1
 240 162 l 1
 248 139 253 115 259 91 c 1
 265 116 270 139 278 162 c 1
 408 488 l 2
 412 498 422 506 435 506 c 2
 504 506 l 1
EndSplineSet
Validated: 1
EndChar

StartChar: w
Encoding: 119 119 120
Width: 785
GlyphClass: 2
Flags: HMW
TopAccentHorizontal: 394
AnchorPoint: "Anchor-3" 394 560 basechar 0
AnchorPoint: "Anchor-1" 393 -35 basechar 0
LayerCount: 2
Fore
SplineSet
769 506 m 1
 605 0 l 1
 534 0 l 2
 525 0 519 6 516 17 c 2
 404 360 l 2
 399 375 397 391 393 407 c 1
 390 390 387 375 382 360 c 2
 268 17 l 1
 265 6 259 0 248 0 c 2
 180 0 l 1
 16 506 l 1
 86 506 l 2
 99 506 111 499 114 488 c 2
 211 162 l 1
 216 138 220 115 224 94 c 1
 230 117 237 140 244 162 c 2
 351 490 l 2
 354 500 363 508 375 508 c 2
 414 508 l 2
 427 508 437 500 440 490 c 2
 544 162 l 2
 552 139 556 117 562 94 c 1
 565 118 571 140 577 162 c 2
 676 488 l 2
 679 499 689 506 702 506 c 2
 769 506 l 1
EndSplineSet
Validated: 1
EndChar

StartChar: x
Encoding: 120 120 121
Width: 498
GlyphClass: 2
Flags: HMW
TopAccentHorizontal: 248
AnchorPoint: "Anchor-3" 248 560 basechar 0
AnchorPoint: "Anchor-1" 250 -35 basechar 0
LayerCount: 2
Fore
SplineSet
486 0 m 1
 401 0 l 2
 387 0 380 10 374 18 c 2
 246 217 l 1
 244 210 244 210 242 203 c 128
 241 198 239 194 236 191 c 2
 118 18 l 2
 112 9 105 0 91 0 c 2
 12 0 l 1
 189 260 l 1
 18 506 l 1
 104 506 l 2
 119 506 124 502 129 493 c 2
 254 303 l 1
 257 312 261 322 266 331 c 2
 375 491 l 2
 380 499 386 506 398 506 c 2
 480 506 l 1
 309 264 l 1
 486 0 l 1
EndSplineSet
Validated: 1
EndChar

StartChar: y
Encoding: 121 121 122
Width: 515
GlyphClass: 2
Flags: HMW
ItalicCorrection: 20
TopAccentHorizontal: 271
AnchorPoint: "Anchor-3" 271 560 basechar 0
AnchorPoint: "Anchor-1" 410 -35 basechar 0
LayerCount: 2
Fore
SplineSet
508 506 m 1
 225 -150 l 2
 220 -163 212 -172 193 -172 c 2
 127 -172 l 1
 220 30 l 1
 10 506 l 1
 88 506 l 2
 103 506 111 498 115 488 c 2
 250 169 l 2
 255 155 260 140 264 125 c 1
 269 142 274 157 279 170 c 2
 410 488 l 2
 414 498 424 506 437 506 c 2
 508 506 l 1
EndSplineSet
Validated: 1
EndChar

StartChar: z
Encoding: 122 122 123
Width: 452
GlyphClass: 2
Flags: HMW
TopAccentHorizontal: 237
AnchorPoint: "Anchor-3" 237 560 basechar 0
AnchorPoint: "Anchor-1" 226 -35 basechar 0
LayerCount: 2
Fore
SplineSet
420 468 m 2
 420 454 415 441 408 434 c 1
 134 70 l 1
 410 70 l 1
 410 0 l 1
 29 0 l 1
 29 37 l 2
 29 49 35 61 41 69 c 2
 317 436 l 1
 44 436 l 1
 44 506 l 1
 420 506 l 1
 420 468 l 2
EndSplineSet
Validated: 1
EndChar

StartChar: uni007B
Encoding: 123 123 124
Width: 301
VWidth: 941
GlyphClass: 2
Flags: HMW
LayerCount: 2
Fore
SplineSet
268 668 m 2
 268 657 258 649 248 649 c 2
 238 649 l 2
 184 649 155 611 155 555 c 0
 155 480 178 426 178 352 c 0
 178 297 144 265 102 252 c 1
 144 241 178 205 178 153 c 0
 178 79 155 24 155 -51 c 0
 155 -107 184 -145 238 -145 c 2
 248 -145 l 2
 258 -145 268 -151 268 -163 c 2
 268 -203 l 1
 241 -203 l 2
 139 -203 77 -146 77 -45 c 0
 77 27 102 81 102 153 c 0
 102 196 77 225 34 225 c 1
 34 279 l 1
 77 279 102 308 102 351 c 0
 102 423 77 477 77 550 c 0
 77 652 138 707 241 707 c 2
 268 707 l 1
 268 668 l 2
EndSplineSet
Validated: 1
EndChar

StartChar: uni007C
Encoding: 124 124 125
Width: 250
GlyphClass: 2
Flags: HMW
LayerCount: 2
Fore
SplineSet
90 726 m 1
 160 726 l 1
 160 -214 l 1
 90 -214 l 1
 90 726 l 1
EndSplineSet
Validated: 1
EndChar

StartChar: uni007D
Encoding: 125 125 126
Width: 301
VWidth: 941
GlyphClass: 2
Flags: HMW
LayerCount: 2
Fore
SplineSet
199 351 m 0
 199 308 224 279 267 279 c 1
 267 225 l 1
 224 225 199 196 199 153 c 0
 199 81 224 27 224 -45 c 0
 224 -147 163 -203 60 -203 c 2
 33 -203 l 1
 33 -163 l 2
 33 -152 43 -145 53 -145 c 2
 63 -145 l 2
 117 -145 146 -107 146 -51 c 0
 146 24 123 79 123 153 c 0
 123 207 156 239 198 252 c 5
 155 263 123 299 123 352 c 0
 123 426 146 480 146 555 c 0
 146 610 117 649 63 649 c 2
 53 649 l 2
 43 649 33 657 33 668 c 2
 33 707 l 1
 60 707 l 2
 163 707 224 652 224 550 c 0
 224 477 199 423 199 351 c 0
EndSplineSet
Validated: 1
EndChar

StartChar: asciitilde
Encoding: 126 126 127
Width: 580
GlyphClass: 2
Flags: HMW
LayerCount: 2
Fore
SplineSet
202 284 m 0
 158 284 132 252 132 207 c 1
 60 207 l 1
 60 278 89 326 138 348 c 128
 155 356 175 359 196 359 c 0
 233 359 268 343 296 332 c 128
 321 322 352 306 382 306 c 0
 426 306 450 340 451 384 c 1
 523 384 l 1
 523 294 476 232 387 232 c 0
 349 232 315 246 286 258 c 128
 261 269 232 284 202 284 c 0
EndSplineSet
Validated: 1
EndChar

StartChar: exclamdown
Encoding: 161 161 129
Width: 252
GlyphClass: 2
Flags: HMW
LayerCount: 2
Fore
SplineSet
156 280 m 1
 163 221 169 164 169 99 c 2
 169 -172 l 1
 84 -172 l 1
 84 99 l 2
 84 164 91 220 96 280 c 1
 156 280 l 1
62 452 m 0
 62 489 88 514 125 514 c 256
 161 514 188 488 188 452 c 0
 188 422 170 403 149 394 c 128
 142 391 134 389 125 389 c 0
 89 389 62 416 62 452 c 0
EndSplineSet
Validated: 1
EndChar

StartChar: cent
Encoding: 162 162 130
Width: 580
GlyphClass: 2
Flags: HMW
LayerCount: 2
Fore
SplineSet
312 445 m 1
 208 437 158 366 158 253 c 0
 158 151 203 81 286 64 c 1
 312 445 l 1
514 70 m 1
 476 24 414 0 338 -6 c 1
 332 -94 l 2
 331 -108 322 -118 306 -118 c 2
 274 -118 l 1
 282 -6 l 1
 181 5 115 66 86 150 c 128
 76 180 70 215 70 253 c 0
 70 375 126 454 212 492 c 128
 243 506 278 513 318 514 c 1
 324 602 l 2
 325 615 334 627 348 627 c 2
 382 627 l 1
 374 510 l 1
 431 502 472 479 507 448 c 1
 484 418 l 2
 480 411 476 406 466 406 c 128
 454 406 443 415 432 421 c 128
 413 431 395 437 368 442 c 1
 342 62 l 1
 392 65 427 81 455 103 c 128
 461 108 467 110 472 110 c 0
 480 110 487 107 490 102 c 1
 514 70 l 1
EndSplineSet
Validated: 1
EndChar

StartChar: sterling
Encoding: 163 163 131
Width: 580
GlyphClass: 2
Flags: HMW
LayerCount: 2
Fore
SplineSet
34 58 m 1
 81 72 122 102 122 162 c 2
 122 307 l 1
 24 307 l 1
 24 336 l 2
 24 354 36 367 54 367 c 2
 122 367 l 1
 122 498 l 2
 122 605 169 673 244 706 c 128
 271 718 303 724 340 724 c 0
 442 724 502 670 534 600 c 1
 498 576 l 1
 490 572 483 571 477 571 c 0
 467 571 459 575 452 584 c 0
 427 619 399 648 340 648 c 0
 252 648 213 586 213 498 c 2
 213 367 l 1
 433 367 l 1
 433 331 l 2
 433 318 420 307 407 307 c 2
 213 307 l 1
 213 186 l 2
 213 131 189 99 160 71 c 1
 174 73 174 73 188 75 c 128
 197 76 207 77 217 77 c 2
 556 77 l 1
 556 39 l 2
 556 17 539 0 516 0 c 2
 34 0 l 1
 34 58 l 1
EndSplineSet
Validated: 1
EndChar

StartChar: currency
Encoding: 164 164 132
Width: 500
GlyphClass: 2
Flags: HMW
HStem: -10 20 47 64<227.5 274.5> 413 64<227 275.5 227 290.5>
VStem: 35 68<238 286> 397 68<239 287.5 239 305.5>
LayerCount: 2
Fore
SplineSet
397 264 m 0
 397 347 332 413 249 413 c 0
 169 413 103 345 103 263 c 0
 103 179 169 111 251 111 c 0
 333 111 397 178 397 264 c 0
522 40 m 1
 474 -10 l 1
 376 88 l 1
 336 60 298 47 251 47 c 0
 204 47 166 59 124 88 c 1
 28 -10 l 1
 -22 40 l 1
 76 136 l 1
 47 178 35 214 35 262 c 0
 35 310 47 348 76 388 c 1
 -22 486 l 1
 28 534 l 1
 124 438 l 1
 168 466 203 477 251 477 c 0
 300 477 337 465 376 438 c 1
 474 534 l 1
 522 486 l 1
 426 388 l 1
 455 345 465 312 465 263 c 0
 465 215 455 181 426 136 c 1
 522 40 l 1
EndSplineSet
Validated: 1
EndChar

StartChar: yen
Encoding: 165 165 133
Width: 580
GlyphClass: 2
Flags: HMW
LayerCount: 2
Fore
SplineSet
351 312 m 1
 505 312 l 1
 505 262 l 1
 334 262 l 1
 334 209 l 1
 505 209 l 1
 505 158 l 1
 334 158 l 1
 334 0 l 1
 246 0 l 1
 246 158 l 1
 75 158 l 1
 75 209 l 1
 246 209 l 1
 246 262 l 1
 75 262 l 1
 75 312 l 1
 229 312 l 1
 24 716 l 1
 98 716 l 2
 116 716 127 707 132 694 c 1
 270 411 l 1
 279 390 285 371 291 350 c 1
 295 369 301 389 310 411 c 1
 448 694 l 2
 453 705 464 716 481 716 c 2
 556 716 l 1
 351 312 l 1
EndSplineSet
Validated: 1
EndChar

StartChar: brokenbar
Encoding: 166 166 134
Width: 253
GlyphClass: 2
Flags: HMW
LayerCount: 2
Fore
SplineSet
92 766 m 1
 162 766 l 1
 162 370 l 1
 92 370 l 1
 92 766 l 1
92 226 m 1
 162 226 l 1
 162 -172 l 1
 92 -172 l 1
 92 226 l 1
EndSplineSet
Validated: 1
EndChar

StartChar: section
Encoding: 167 167 135
Width: 495
GlyphClass: 2
Flags: HMW
LayerCount: 2
Fore
SplineSet
190 438 m 1
 157 422 130 404 130 363 c 0
 130 323 162 303 192 288 c 128
 230 269 277 252 316 232 c 1
 347 246 367 266 367 306 c 0
 367 348 336 368 308 384 c 128
 272 405 228 419 190 438 c 1
140 468 m 1
 109 491 84 525 84 577 c 0
 84 649 133 692 188 712 c 128
 210 720 235 724 264 724 c 0
 333 724 385 699 422 665 c 1
 402 632 l 2
 397 625 391 622 384 622 c 0
 369 622 357 632 344 639 c 128
 324 649 298 658 266 658 c 0
 221 658 184 640 169 610 c 128
 164 601 162 591 162 580 c 0
 162 550 185 534 206 522 c 128
 283 476 389 459 432 379 c 128
 440 364 445 346 445 326 c 0
 445 263 411 225 364 202 c 1
 394 180 420 149 420 100 c 0
 420 20 372 -29 310 -50 c 128
 286 -58 259 -62 228 -62 c 0
 156 -62 99 -36 60 -1 c 1
 80 33 l 2
 85 40 92 46 104 46 c 0
 110 46 116 44 123 39 c 128
 152 19 184 1 236 1 c 0
 295 1 342 28 342 86 c 0
 342 120 319 140 296 154 c 128
 219 201 107 214 63 294 c 128
 54 310 50 328 50 349 c 0
 50 413 89 448 140 468 c 1
EndSplineSet
Validated: 1
EndChar

StartChar: dieresis
Encoding: 168 168 136
Width: 400
GlyphClass: 2
Flags: HMW
LayerCount: 2
Fore
SplineSet
161 644 m 256
 161 612 136 589 104 589 c 0
 79 589 62 606 53 623 c 0
 50 629 48 636 48 644 c 256
 48 670 65 688 83 697 c 128
 90 700 97 702 104 702 c 0
 136 702 161 676 161 644 c 256
239 644 m 256
 239 676 263 702 295 702 c 256
 327 702 352 676 352 644 c 256
 352 613 326 589 295 589 c 256
 263 589 239 613 239 644 c 256
EndSplineSet
Validated: 1
EndChar

StartChar: copyright
Encoding: 169 169 137
Width: 831
GlyphClass: 2
Flags: HMW
LayerCount: 2
Fore
SplineSet
279 359 m 0
 279 264 328 198 422 198 c 0
 465 198 495 208 521 224 c 128
 528 229 536 233 544 237 c 1
 549 238 554 236 557 232 c 2
 587 200 l 1
 550 157 497 130 418 130 c 0
 312 130 245 188 216 267 c 128
 206 295 200 326 200 359 c 128
 200 468 257 539 336 571 c 128
 364 582 394 588 427 588 c 0
 500 588 549 563 586 526 c 1
 562 494 l 2
 559 490 554 485 546 485 c 0
 541 485 537 486 532 490 c 128
 508 508 476 521 432 521 c 0
 334 521 279 457 279 359 c 0
50 358 m 256
 50 473 99 558 158 617 c 128
 218 676 301 724 416 724 c 256
 532 724 614 675 674 617 c 128
 717 575 750 520 768 455 c 128
 777 424 781 391 781 358 c 128
 781 243 734 159 674 100 c 128
 614 41 532 -7 416 -7 c 256
 301 -7 217 41 158 100 c 128
 98 160 50 242 50 358 c 256
101 358 m 256
 101 258 141 183 192 131 c 128
 243 79 315 38 416 38 c 256
 516 38 589 79 640 131 c 128
 691 183 732 258 732 358 c 0
 732 456 691 533 640 586 c 128
 589 638 513 680 416 680 c 0
 315 680 243 639 192 586 c 128
 141 533 101 460 101 358 c 256
EndSplineSet
Validated: 1
EndChar

StartChar: ordfeminine
Encoding: 170 170 138
Width: 367
GlyphClass: 2
Flags: HMW
AnchorPoint: "Anchor-1" 184 -35 basechar 0
AnchorPoint: "Anchor-0" 176 756 basechar 0
LayerCount: 2
Fore
SplineSet
158 462 m 0
 197 462 216 476 238 498 c 1
 238 551 l 1
 199 549 167 545 141 534 c 128
 126 527 112 518 112 500 c 0
 112 472 131 462 158 462 c 0
238 610 m 2
 238 651 221 672 182 672 c 0
 149 672 131 659 111 648 c 128
 106 645 101 644 96 644 c 0
 87 644 81 651 77 656 c 1
 66 678 l 1
 97 707 133 725 189 725 c 0
 260 725 302 681 302 610 c 2
 302 420 l 1
 272 420 l 2
 259 420 255 424 250 434 c 1
 244 459 l 1
 216 435 190 416 138 416 c 0
 86 416 50 444 50 496 c 0
 50 527 69 546 92 560 c 128
 128 581 177 591 238 592 c 1
 238 610 l 2
EndSplineSet
Validated: 1
EndChar

StartChar: logicalnot
Encoding: 172 172 140
Width: 580
GlyphClass: 2
Flags: HMW
LayerCount: 2
Fore
SplineSet
504 158 m 1
 428 158 l 1
 428 302 l 1
 74 302 l 1
 74 370 l 1
 504 370 l 1
 504 158 l 1
EndSplineSet
Validated: 1
EndChar

StartChar: uni00AD
Encoding: 173 173 141
Width: 371
GlyphClass: 2
Flags: HMW
LayerCount: 2
Fore
SplineSet
62 338 m 1
 310 338 l 1
 310 262 l 1
 62 262 l 1
 62 338 l 1
EndSplineSet
Validated: 1
EndChar

StartChar: registered
Encoding: 174 174 142
Width: 831
GlyphClass: 2
Flags: HMW
LayerCount: 2
Fore
SplineSet
502 448 m 0
 502 505 468 522 410 522 c 2
 344 522 l 1
 344 370 l 1
 402 370 l 2
 467 370 502 389 502 448 c 0
578 458 m 0
 578 387 535 348 472 334 c 1
 483 326 492 316 499 303 c 1
 613 136 l 1
 538 136 l 2
 527 136 519 140 514 148 c 2
 414 300 l 2
 408 309 399 313 384 313 c 2
 344 313 l 1
 344 136 l 1
 266 136 l 1
 266 582 l 1
 410 582 l 2
 511 582 578 551 578 458 c 0
416 38 m 256
 516 38 589 79 640 131 c 128
 691 183 732 258 732 358 c 0
 732 456 691 533 640 586 c 128
 589 638 513 680 416 680 c 0
 315 680 243 639 192 586 c 128
 141 533 101 460 101 358 c 256
 101 258 141 183 192 131 c 128
 243 79 315 38 416 38 c 256
416 724 m 256
 532 724 614 675 674 617 c 128
 717 575 750 520 768 455 c 128
 777 424 781 391 781 358 c 256
 781 243 734 159 674 100 c 128
 614 41 532 -7 416 -7 c 256
 301 -7 217 41 158 100 c 128
 98 160 50 242 50 358 c 256
 50 473 99 558 158 617 c 128
 218 676 301 724 416 724 c 256
EndSplineSet
Validated: 1
EndChar

StartChar: macron
Encoding: 175 175 143
Width: 400
GlyphClass: 2
Flags: HMW
LayerCount: 2
Fore
SplineSet
56 674 m 1
 344 674 l 1
 344 616 l 1
 56 616 l 1
 56 674 l 1
EndSplineSet
Validated: 1
EndChar

StartChar: degree
Encoding: 176 176 144
Width: 414
GlyphClass: 2
Flags: HMW
LayerCount: 2
Fore
SplineSet
44 564 m 0
 44 639 90 689 143 712 c 128
 162 720 184 725 207 725 c 256
 283 725 335 681 358 627 c 128
 366 608 370 587 370 564 c 0
 370 489 326 439 272 416 c 128
 252 408 230 404 207 404 c 256
 132 404 81 449 57 502 c 128
 48 522 44 542 44 564 c 0
108 564 m 256
 108 516 134 486 168 472 c 128
 180 467 193 464 207 464 c 256
 266 464 306 505 306 564 c 256
 306 612 280 642 246 656 c 128
 234 661 221 664 207 664 c 256
 148 664 108 623 108 564 c 256
EndSplineSet
Validated: 1
EndChar

StartChar: plusminus
Encoding: 177 177 145
Width: 685
GlyphClass: 2
Flags: HMW
HStem: -87 66<48 637 48 637> 242 66<48 309 48 309 375 637>
VStem: 309 66<33 242 33 242 308 502>
LayerCount: 2
Fore
SplineSet
637 -87 m 1
 48 -87 l 1
 48 -21 l 1
 637 -21 l 1
 637 -87 l 1
637 242 m 1
 375 242 l 1
 375 33 l 1
 309 33 l 1
 309 242 l 1
 48 242 l 1
 48 308 l 1
 309 308 l 1
 309 502 l 1
 375 502 l 1
 375 308 l 1
 637 308 l 1
 637 242 l 1
EndSplineSet
Validated: 1
EndChar

StartChar: twosuperior
Encoding: 178 178 146
Width: 334
GlyphClass: 2
Flags: HMW
LayerCount: 2
Fore
SplineSet
127 502 m 1
 141 505 157 510 173 510 c 2
 271 510 l 2
 284 510 293 501 293 488 c 2
 293 450 l 1
 37 450 l 1
 37 472 l 2
 37 483 43 492 49 498 c 2
 159 608 l 2
 176 625 190 642 202 660 c 128
 214 678 219 695 219 712 c 128
 219 745 198 766 167 766 c 0
 133 766 117 747 108 720 c 0
 103 711 97 705 85 705 c 0
 82 705 80 705 77 706 c 2
 41 712 l 1
 51 778 95 818 169 818 c 0
 224 818 259 795 276 757 c 128
 282 744 285 730 285 714 c 0
 285 669 261 638 238 614 c 128
 229 604 219 595 209 585 c 2
 127 502 l 1
EndSplineSet
Validated: 1
EndChar

StartChar: threesuperior
Encoding: 179 179 147
Width: 334
GlyphClass: 2
Flags: HMW
LayerCount: 2
Fore
SplineSet
220 714 m 0
 220 747 199 764 167 764 c 256
 134 764 117 747 109 721 c 0
 104 710 101 705 89 705 c 0
 86 705 83 705 79 706 c 2
 46 712 l 1
 56 777 97 818 171 818 c 0
 222 818 259 796 275 761 c 128
 280 750 283 737 283 724 c 0
 283 681 263 653 223 638 c 1
 268 626 291 599 291 558 c 0
 291 519 273 492 252 474 c 128
 232 457 201 446 165 446 c 0
 88 446 54 484 35 542 c 1
 63 554 l 2
 68 556 72 557 77 557 c 0
 86 557 94 553 97 546 c 0
 107 521 126 500 162 500 c 0
 197 500 225 522 225 556 c 0
 225 604 190 614 141 614 c 1
 141 657 l 1
 190 657 220 671 220 714 c 0
EndSplineSet
Validated: 1
EndChar

StartChar: acute
Encoding: 180 180 148
Width: 400
GlyphClass: 2
Flags: HMW
LayerCount: 2
Fore
SplineSet
346 724 m 1
 229 596 l 2
 221 587 214 582 198 582 c 2
 145 582 l 1
 219 702 l 2
 228 717 235 724 258 724 c 2
 346 724 l 1
EndSplineSet
Validated: 1
EndChar

StartChar: mu
Encoding: 181 181 149
Width: 649
GlyphClass: 2
Flags: HMW
AnchorPoint: "Anchor-1" 342 -210 basechar 0
LayerCount: 2
Fore
SplineSet
512 137 m 2
 512 88 538 62 585 62 c 2
 614 62 l 1
 614 26 l 2
 614 4 581 -5 554 -5 c 0
 484 -5 446 38 435 98 c 1
 402 48 355 3 280 3 c 0
 227 3 193 20 168 49 c 1
 172 25 174 -6 174 -32 c 2
 174 -172 l 1
 130 -172 l 2
 105 -172 90 -158 90 -134 c 2
 90 506 l 1
 180 506 l 1
 180 200 l 2
 180 126 213 76 286 76 c 0
 356 76 397 120 423 171 c 1
 423 506 l 1
 512 506 l 1
 512 137 l 2
EndSplineSet
Validated: 1
EndChar

StartChar: paragraph
Encoding: 182 182 150
Width: 700
GlyphClass: 2
Flags: HMW
LayerCount: 2
Fore
SplineSet
665 640 m 1
 556 640 l 1
 556 -100 l 1
 477 -100 l 1
 477 640 l 1
 338 640 l 1
 338 -100 l 1
 260 -100 l 1
 260 330 l 1
 156 330 82 376 50 448 c 128
 40 472 35 497 35 524 c 0
 35 622 91 677 166 702 c 128
 194 711 225 716 260 716 c 2
 665 716 l 1
 665 640 l 1
EndSplineSet
Validated: 1
EndChar

StartChar: periodcentered
Encoding: 183 183 151
Width: 260
GlyphClass: 2
Flags: HMW
TopAccentHorizontal: 126
LayerCount: 2
Fore
SplineSet
56 296 m 0
 56 332 76 354 101 366 c 128
 110 370 119 372 129 372 c 0
 173 372 204 339 204 296 c 0
 204 254 171 222 129 222 c 256
 87 222 56 254 56 296 c 0
EndSplineSet
Validated: 1
EndChar

StartChar: cedilla
Encoding: 184 184 152
Width: 400
GlyphClass: 2
Flags: HMW
LayerCount: 2
Fore
SplineSet
190 -138 m 0
 213 -138 232 -129 232 -108 c 0
 232 -95 225 -87 211 -82 c 128
 197 -77 177 -72 152 -68 c 1
 178 12 l 1
 229 12 l 1
 215 -38 l 1
 261 -48 302 -63 302 -109 c 0
 302 -161 247 -178 194 -178 c 0
 167 -178 140 -172 121 -163 c 1
 130 -136 l 2
 132 -129 136 -126 141 -126 c 0
 147 -126 152 -130 158 -132 c 128
 167 -135 178 -138 190 -138 c 0
EndSplineSet
Validated: 1
EndChar

StartChar: onesuperior
Encoding: 185 185 153
Width: 334
GlyphClass: 2
Flags: HMW
LayerCount: 2
Fore
SplineSet
283 492 m 1
 283 450 l 1
 79 450 l 1
 79 492 l 1
 153 492 l 1
 153 712 l 1
 155 734 l 1
 101 690 l 2
 98 687 92 685 87 685 c 0
 80 685 74 688 72 692 c 1
 53 720 l 1
 163 816 l 1
 217 816 l 1
 217 492 l 1
 283 492 l 1
EndSplineSet
Validated: 1
EndChar

StartChar: ordmasculine
Encoding: 186 186 154
Width: 402
GlyphClass: 2
Flags: HMW
AnchorPoint: "Anchor-1" 201 -35 basechar 0
AnchorPoint: "Anchor-0" 202 756 basechar 0
LayerCount: 2
Fore
SplineSet
202 724 m 0
 277 724 324 688 345 634 c 128
 352 615 356 594 356 570 c 256
 356 495 321 446 266 425 c 128
 247 418 225 414 202 414 c 0
 105 414 47 473 47 570 c 256
 47 645 83 693 138 714 c 128
 157 721 178 724 202 724 c 0
117 570 m 256
 117 507 140 467 202 467 c 0
 262 467 286 508 286 570 c 256
 286 632 262 672 202 672 c 0
 140 672 117 633 117 570 c 256
EndSplineSet
Validated: 1
EndChar

StartChar: guillemotright
Encoding: 187 187 155
Width: 429
GlyphClass: 2
Flags: HW
LayerCount: 2
Fore
SplineSet
380 270 m 1
 380 259 l 1
 255 64 l 1
 226 78 l 2
 217 83 211 90 211 99 c 0
 211 104 213 110 217 116 c 2
 296 246 l 2
 301 253 304 260 310 265 c 1
 304 268 300 277 296 283 c 2
 217 414 l 2
 214 420 212 426 212 431 c 0
 212 439 216 447 226 451 c 2
 255 465 l 1
 380 270 l 1
232 270 m 1
 232 259 l 1
 107 64 l 1
 78 78 l 2
 69 83 63 90 63 99 c 0
 63 104 65 110 69 116 c 2
 148 246 l 2
 153 253 156 260 162 265 c 1
 156 268 152 277 148 283 c 2
 69 414 l 2
 66 420 64 426 64 431 c 0
 64 439 68 447 78 451 c 2
 107 465 l 1
 232 270 l 1
EndSplineSet
Validated: 1
EndChar

StartChar: onequarter
Encoding: 188 188 156
Width: 734
GlyphClass: 2
Flags: HMW
LayerCount: 2
Fore
SplineSet
586 134 m 1
 586 254 l 2
 586 267 587 282 588 298 c 1
 468 134 l 1
 586 134 l 1
694 101 m 2
 694 93 689 88 681 88 c 2
 640 88 l 1
 640 0 l 1
 586 0 l 1
 586 88 l 1
 432 88 l 2
 419 88 415 93 412 102 c 1
 406 130 l 1
 578 364 l 1
 640 364 l 1
 640 134 l 1
 694 134 l 1
 694 101 l 2
274 394 m 1
 274 352 l 1
 70 352 l 1
 70 394 l 1
 144 394 l 1
 144 614 l 1
 146 636 l 1
 92 592 l 2
 89 589 83 587 78 587 c 0
 71 587 65 590 63 594 c 1
 44 622 l 1
 154 718 l 1
 208 718 l 1
 208 394 l 1
 274 394 l 1
208 26 m 2
 197 8 186 0 162 0 c 2
 124 0 l 1
 534 686 l 2
 544 702 558 716 582 716 c 2
 620 716 l 1
 208 26 l 2
EndSplineSet
Validated: 1
EndChar

StartChar: onehalf
Encoding: 189 189 157
Width: 725
GlyphClass: 2
Flags: HMW
LayerCount: 2
Fore
SplineSet
514 52 m 1
 528 55 544 60 560 60 c 2
 658 60 l 2
 671 60 680 51 680 38 c 2
 680 0 l 1
 424 0 l 1
 424 22 l 2
 424 33 430 42 436 48 c 2
 546 158 l 2
 563 175 576 192 588 210 c 128
 600 228 606 245 606 262 c 128
 606 295 585 316 554 316 c 0
 520 316 504 297 495 270 c 0
 490 261 484 255 472 255 c 0
 469 255 467 255 464 256 c 2
 428 262 l 1
 438 328 482 368 556 368 c 0
 611 368 647 345 664 307 c 128
 670 294 672 280 672 264 c 0
 672 219 647 188 624 164 c 128
 615 154 606 145 596 135 c 2
 514 52 l 1
276 394 m 1
 276 352 l 1
 72 352 l 1
 72 394 l 1
 146 394 l 1
 146 614 l 1
 148 636 l 1
 94 592 l 2
 91 589 85 587 80 587 c 0
 73 587 67 590 65 594 c 1
 46 622 l 1
 156 718 l 1
 210 718 l 1
 210 394 l 1
 276 394 l 1
188 26 m 2
 177 8 166 0 142 0 c 2
 104 0 l 1
 514 686 l 2
 524 702 538 716 562 716 c 2
 600 716 l 1
 188 26 l 2
EndSplineSet
Validated: 1
EndChar

StartChar: threequarters
Encoding: 190 190 158
Width: 742
GlyphClass: 2
Flags: HMW
LayerCount: 2
Fore
SplineSet
595 134 m 1
 595 254 l 2
 595 267 596 282 597 298 c 1
 477 134 l 1
 595 134 l 1
703 101 m 2
 703 93 698 88 690 88 c 2
 649 88 l 1
 649 0 l 1
 595 0 l 1
 595 88 l 1
 441 88 l 2
 428 88 424 93 421 102 c 1
 415 130 l 1
 587 364 l 1
 649 364 l 1
 649 134 l 1
 703 134 l 1
 703 101 l 2
229 616 m 0
 229 649 208 666 176 666 c 256
 143 666 126 649 118 623 c 0
 113 612 110 607 98 607 c 0
 95 607 92 607 88 608 c 2
 55 614 l 1
 65 679 106 720 180 720 c 0
 231 720 268 698 284 663 c 128
 289 652 292 639 292 626 c 0
 292 583 272 555 232 540 c 1
 277 528 300 501 300 460 c 0
 300 421 282 394 261 376 c 128
 241 359 210 348 174 348 c 0
 97 348 63 386 44 444 c 1
 72 456 l 2
 77 458 81 459 86 459 c 0
 95 459 103 455 106 448 c 0
 116 423 135 402 171 402 c 0
 206 402 234 424 234 458 c 0
 234 506 199 516 150 516 c 1
 150 559 l 1
 199 559 229 573 229 616 c 0
220 26 m 2
 209 8 198 0 174 0 c 2
 136 0 l 1
 546 686 l 2
 556 702 570 716 594 716 c 2
 632 716 l 1
 220 26 l 2
EndSplineSet
Validated: 1
EndChar

StartChar: questiondown
Encoding: 191 191 159
Width: 440
GlyphClass: 2
Flags: HMW
LayerCount: 2
Fore
SplineSet
404 -106 m 1
 360 -144 307 -178 225 -178 c 0
 141 -178 83 -143 56 -86 c 128
 47 -66 42 -43 42 -18 c 256
 42 78 100 112 157 150 c 128
 176 163 199 177 202 202 c 2
 212 280 l 1
 272 280 l 1
 278 196 l 2
 278 194 278 191 278 189 c 0
 278 159 261 141 242 127 c 128
 205 99 160 81 136 40 c 128
 128 26 124 9 124 -11 c 0
 124 -71 172 -105 232 -105 c 0
 282 -105 319 -85 346 -64 c 128
 352 -59 358 -57 362 -57 c 0
 370 -56 376 -60 380 -68 c 2
 404 -106 l 1
243 389 m 256
 206 389 181 415 181 452 c 0
 181 488 207 514 243 514 c 256
 279 514 306 488 306 452 c 0
 306 415 280 389 243 389 c 256
EndSplineSet
Validated: 1
EndChar

StartChar: Agrave
Encoding: 192 192 160
Width: 677
GlyphClass: 2
Flags: HMW
AnchorPoint: "Anchor-1" 338 -35 basechar 0
AnchorPoint: "Anchor-0" 338 756 basechar 0
LayerCount: 2
Fore
SplineSet
250 926 m 2
 274 926 281 924 292 910 c 2
 406 773 l 1
 342 773 l 2
 325 773 321 774 311 782 c 1
 155 926 l 1
 250 926 l 2
472 266 m 1
 360 558 l 2
 352 578 345 600 338 624 c 1
 331 597 324 575 317 557 c 2
 204 266 l 1
 472 266 l 1
674 0 m 1
 599 0 l 2
 581 0 571 10 566 23 c 2
 499 196 l 1
 178 196 l 1
 110 23 l 2
 106 11 94 0 78 0 c 2
 3 0 l 1
 290 716 l 1
 388 716 l 1
 674 0 l 1
EndSplineSet
Validated: 1
EndChar

StartChar: Aacute
Encoding: 193 193 161
Width: 677
GlyphClass: 2
Flags: HMW
AnchorPoint: "Anchor-1" 338 -35 basechar 0
AnchorPoint: "Anchor-0" 338 756 basechar 0
LayerCount: 2
Fore
SplineSet
527 926 m 1
 365 783 l 2
 355 775 349 773 333 773 c 2
 269 773 l 1
 385 910 l 1
 395 924 404 926 427 926 c 2
 527 926 l 1
472 266 m 1
 360 558 l 2
 352 578 345 600 338 624 c 1
 331 597 324 575 317 557 c 2
 204 266 l 1
 472 266 l 1
674 0 m 1
 599 0 l 2
 581 0 571 10 566 23 c 2
 499 196 l 1
 178 196 l 1
 110 23 l 2
 106 11 94 0 78 0 c 2
 3 0 l 1
 290 716 l 1
 388 716 l 1
 674 0 l 1
EndSplineSet
Validated: 1
EndChar

StartChar: Acircumflex
Encoding: 194 194 162
Width: 677
GlyphClass: 2
Flags: HMW
AnchorPoint: "Anchor-1" 338 -35 basechar 0
AnchorPoint: "Anchor-0" 338 756 basechar 0
LayerCount: 2
Fore
SplineSet
498 773 m 1
 434 773 l 2
 420 773 410 778 402 788 c 2
 344 858 l 1
 338 867 l 1
 318 839 295 815 274 788 c 0
 266 778 256 773 242 773 c 2
 180 773 l 1
 300 908 l 1
 380 908 l 1
 498 773 l 1
472 266 m 1
 360 558 l 2
 352 578 345 600 338 624 c 1
 331 597 324 575 317 557 c 2
 204 266 l 1
 472 266 l 1
674 0 m 1
 599 0 l 2
 581 0 571 10 566 23 c 2
 499 196 l 1
 178 196 l 1
 110 23 l 2
 106 11 94 0 78 0 c 2
 3 0 l 1
 290 716 l 1
 388 716 l 1
 674 0 l 1
EndSplineSet
Validated: 1
EndChar

StartChar: Atilde
Encoding: 195 195 163
Width: 677
GlyphClass: 2
Flags: HMW
AnchorPoint: "Anchor-1" 338 -35 basechar 0
AnchorPoint: "Anchor-0" 338 756 basechar 0
LayerCount: 2
Fore
SplineSet
282 824 m 0
 253 824 236 803 236 774 c 1
 180 774 l 1
 180 823 201 858 233 875 c 128
 244 881 257 884 272 884 c 256
 317 884 345 857 374 840 c 128
 383 835 392 832 401 832 c 0
 431 832 448 853 448 882 c 1
 502 882 l 1
 502 834 482 798 450 781 c 128
 439 775 426 772 411 772 c 256
 367 772 337 799 309 816 c 128
 300 821 291 824 282 824 c 0
472 266 m 1
 360 558 l 2
 352 578 345 600 338 624 c 1
 331 597 324 575 317 557 c 2
 204 266 l 1
 472 266 l 1
674 0 m 1
 599 0 l 2
 581 0 571 10 566 23 c 2
 499 196 l 1
 178 196 l 1
 110 23 l 2
 106 11 94 0 78 0 c 2
 3 0 l 1
 290 716 l 1
 388 716 l 1
 674 0 l 1
EndSplineSet
Validated: 1
EndChar

StartChar: Adieresis
Encoding: 196 196 164
Width: 677
GlyphClass: 2
Flags: HMW
AnchorPoint: "Anchor-1" 338 -35 basechar 0
AnchorPoint: "Anchor-0" 338 756 basechar 0
LayerCount: 2
Fore
SplineSet
232 889 m 0
 264 889 288 866 288 833 c 0
 288 801 264 779 232 779 c 0
 203 779 178 804 178 833 c 0
 178 863 202 889 232 889 c 0
388 833 m 0
 388 865 410 889 442 889 c 0
 468 889 484 873 493 855 c 128
 496 848 498 841 498 833 c 0
 498 802 473 779 442 779 c 128
 411 779 388 802 388 833 c 0
472 266 m 1
 360 558 l 2
 352 578 345 600 338 624 c 1
 331 597 324 575 317 557 c 2
 204 266 l 1
 472 266 l 1
674 0 m 1
 599 0 l 2
 581 0 571 10 566 23 c 2
 499 196 l 1
 178 196 l 1
 110 23 l 2
 106 11 94 0 78 0 c 2
 3 0 l 1
 290 716 l 1
 388 716 l 1
 674 0 l 1
EndSplineSet
Validated: 1
EndChar

StartChar: Aring
Encoding: 197 197 165
Width: 677
GlyphClass: 2
Flags: HMW
AnchorPoint: "Anchor-1" 338 -35 basechar 0
AnchorPoint: "Anchor-0" 338 756 basechar 0
LayerCount: 2
Fore
SplineSet
243 848 m 256
 243 892 269 918 301 930 c 128
 312 934 324 937 337 937 c 0
 392 937 433 903 433 848 c 256
 433 794 390 761 337 761 c 128
 295 761 264 783 250 812 c 128
 245 822 243 835 243 848 c 256
338 899 m 0
 307 899 288 878 288 848 c 128
 288 818 307 798 338 798 c 0
 367 798 388 819 388 848 c 128
 388 878 367 899 338 899 c 0
472 266 m 1
 360 558 l 2
 352 578 345 600 338 624 c 1
 331 597 324 575 317 557 c 2
 204 266 l 1
 472 266 l 1
674 0 m 1
 599 0 l 2
 581 0 571 10 566 23 c 2
 499 196 l 1
 178 196 l 1
 110 23 l 2
 106 11 94 0 78 0 c 2
 3 0 l 1
 290 716 l 1
 388 716 l 1
 674 0 l 1
EndSplineSet
Validated: 1
EndChar

StartChar: AE
Encoding: 198 198 166
Width: 930
GlyphClass: 2
Flags: HMW
AnchorPoint: "Anchor-1" 424 -35 basechar 0
AnchorPoint: "Anchor-0" 626 756 basechar 0
LayerCount: 2
Fore
SplineSet
467 266 m 1
 420 644 l 1
 412 617 402 595 392 572 c 1
 234 266 l 1
 467 266 l 1
886 79 m 1
 886 0 l 1
 500 0 l 1
 476 196 l 1
 198 196 l 1
 108 22 l 2
 102 9 89 0 70 0 c 2
 -3 0 l 1
 375 716 l 1
 886 716 l 1
 886 638 l 1
 512 638 l 1
 542 400 l 1
 820 400 l 1
 820 324 l 1
 551 324 l 1
 581 79 l 1
 886 79 l 1
EndSplineSet
Validated: 1
EndChar

StartChar: Ccedilla
Encoding: 199 199 167
Width: 668
GlyphClass: 2
Flags: HMW
AnchorPoint: "Anchor-1" 388 -210 basechar 0
AnchorPoint: "Anchor-0" 401 756 basechar 0
LayerCount: 2
Fore
SplineSet
380 -138 m 0
 403 -138 422 -129 422 -108 c 0
 422 -95 415 -87 401 -82 c 128
 387 -77 367 -72 342 -68 c 1
 362 -7 l 1
 208 2 112 92 70 215 c 128
 55 258 48 306 48 358 c 0
 48 531 132 647 256 698 c 128
 299 716 346 724 398 724 c 0
 504 724 580 687 636 634 c 1
 604 589 l 2
 600 582 595 578 584 578 c 0
 578 578 571 582 562 588 c 128
 521 617 472 640 398 640 c 0
 272 640 199 570 165 476 c 128
 152 441 146 402 146 358 c 0
 146 226 205 134 297 95 c 128
 327 82 359 76 394 76 c 0
 481 76 532 99 578 140 c 0
 583 145 589 148 594 148 c 128
 599 148 604 146 608 142 c 2
 647 100 l 1
 594 38 521 -2 414 -8 c 1
 405 -38 l 1
 451 -48 492 -63 492 -109 c 0
 492 -161 437 -178 384 -178 c 0
 357 -178 330 -172 311 -163 c 1
 320 -136 l 2
 322 -129 326 -126 331 -126 c 0
 337 -126 342 -130 348 -132 c 128
 357 -135 368 -138 380 -138 c 0
EndSplineSet
Validated: 1
EndChar

StartChar: Egrave
Encoding: 200 200 168
Width: 577
GlyphClass: 2
Flags: HMW
AnchorPoint: "Anchor-1" 288 -35 basechar 0
AnchorPoint: "Anchor-0" 288 756 basechar 0
LayerCount: 2
Fore
SplineSet
230 926 m 2
 254 926 261 924 272 910 c 2
 386 773 l 1
 322 773 l 2
 305 773 301 774 291 782 c 1
 135 926 l 1
 230 926 l 2
534 79 m 1
 533 0 l 1
 92 0 l 1
 92 716 l 1
 533 716 l 1
 533 638 l 1
 188 638 l 1
 188 400 l 1
 468 400 l 1
 468 324 l 1
 188 324 l 1
 188 79 l 1
 534 79 l 1
EndSplineSet
Validated: 1
EndChar

StartChar: Eacute
Encoding: 201 201 169
Width: 577
GlyphClass: 2
Flags: HMW
AnchorPoint: "Anchor-1" 288 -35 basechar 0
AnchorPoint: "Anchor-0" 288 756 basechar 0
LayerCount: 2
Fore
SplineSet
507 926 m 1
 345 783 l 2
 335 775 329 773 313 773 c 2
 249 773 l 1
 365 910 l 1
 375 924 384 926 407 926 c 2
 507 926 l 1
534 79 m 1
 533 0 l 1
 92 0 l 1
 92 716 l 1
 533 716 l 1
 533 638 l 1
 188 638 l 1
 188 400 l 1
 468 400 l 1
 468 324 l 1
 188 324 l 1
 188 79 l 1
 534 79 l 1
EndSplineSet
Validated: 1
EndChar

StartChar: Ecircumflex
Encoding: 202 202 170
Width: 577
GlyphClass: 2
Flags: HMW
AnchorPoint: "Anchor-1" 288 -35 basechar 0
AnchorPoint: "Anchor-0" 288 756 basechar 0
LayerCount: 2
Fore
SplineSet
478 773 m 1
 414 773 l 2
 400 773 390 778 382 788 c 2
 324 858 l 1
 318 867 l 1
 298 839 275 815 254 788 c 0
 246 778 236 773 222 773 c 2
 160 773 l 1
 280 908 l 1
 360 908 l 1
 478 773 l 1
534 79 m 1
 533 0 l 1
 92 0 l 1
 92 716 l 1
 533 716 l 1
 533 638 l 1
 188 638 l 1
 188 400 l 1
 468 400 l 1
 468 324 l 1
 188 324 l 1
 188 79 l 1
 534 79 l 1
EndSplineSet
Validated: 1
EndChar

StartChar: Edieresis
Encoding: 203 203 171
Width: 577
GlyphClass: 2
Flags: HMW
AnchorPoint: "Anchor-1" 288 -35 basechar 0
AnchorPoint: "Anchor-0" 288 756 basechar 0
LayerCount: 2
Fore
SplineSet
212 889 m 0
 244 889 268 866 268 833 c 0
 268 801 244 779 212 779 c 0
 183 779 158 804 158 833 c 0
 158 863 182 889 212 889 c 0
368 833 m 0
 368 865 390 889 422 889 c 0
 448 889 464 873 473 855 c 128
 476 848 478 841 478 833 c 0
 478 802 453 779 422 779 c 128
 391 779 368 802 368 833 c 0
534 79 m 1
 533 0 l 1
 92 0 l 1
 92 716 l 1
 533 716 l 1
 533 638 l 1
 188 638 l 1
 188 400 l 1
 468 400 l 1
 468 324 l 1
 188 324 l 1
 188 79 l 1
 534 79 l 1
EndSplineSet
Validated: 1
EndChar

StartChar: Igrave
Encoding: 204 204 172
Width: 320
GlyphClass: 2
Flags: HMW
AnchorPoint: "Anchor-1" 140 -35 basechar 0
AnchorPoint: "Anchor-0" 140 756 basechar 0
LayerCount: 2
Fore
SplineSet
53 926 m 2
 77 926 84 924 95 910 c 2
 209 773 l 1
 145 773 l 2
 128 773 124 774 114 782 c 1
 -42 926 l 1
 53 926 l 2
188 0 m 1
 92 0 l 1
 92 716 l 1
 188 716 l 1
 188 0 l 1
EndSplineSet
Validated: 1
EndChar

StartChar: Iacute
Encoding: 205 205 173
Width: 320
GlyphClass: 2
Flags: HMW
AnchorPoint: "Anchor-1" 140 -35 basechar 0
AnchorPoint: "Anchor-0" 140 756 basechar 0
LayerCount: 2
Fore
SplineSet
330 926 m 1
 168 783 l 2
 158 775 152 773 136 773 c 2
 72 773 l 1
 188 910 l 1
 198 924 207 926 230 926 c 2
 330 926 l 1
188 0 m 1
 92 0 l 1
 92 716 l 1
 188 716 l 1
 188 0 l 1
EndSplineSet
Validated: 1
EndChar

StartChar: Icircumflex
Encoding: 206 206 174
Width: 320
GlyphClass: 2
Flags: HMW
AnchorPoint: "Anchor-1" 140 -35 basechar 0
AnchorPoint: "Anchor-0" 140 756 basechar 0
LayerCount: 2
Fore
SplineSet
302 773 m 1
 238 773 l 2
 224 773 214 778 206 788 c 2
 148 858 l 1
 142 867 l 1
 122 839 99 815 78 788 c 0
 70 778 60 773 46 773 c 2
 -16 773 l 1
 104 908 l 1
 184 908 l 1
 302 773 l 1
188 0 m 1
 92 0 l 1
 92 716 l 1
 188 716 l 1
 188 0 l 1
EndSplineSet
Validated: 1
EndChar

StartChar: Idieresis
Encoding: 207 207 175
Width: 320
GlyphClass: 2
Flags: HMW
AnchorPoint: "Anchor-1" 140 -35 basechar 0
AnchorPoint: "Anchor-0" 140 756 basechar 0
LayerCount: 2
Fore
SplineSet
36 889 m 0
 68 889 92 866 92 833 c 0
 92 801 68 779 36 779 c 0
 7 779 -18 804 -18 833 c 0
 -18 863 6 889 36 889 c 0
192 833 m 0
 192 865 214 889 246 889 c 0
 272 889 288 873 297 855 c 128
 300 848 302 841 302 833 c 0
 302 802 277 779 246 779 c 128
 215 779 192 802 192 833 c 0
188 0 m 1
 92 0 l 1
 92 716 l 1
 188 716 l 1
 188 0 l 1
EndSplineSet
Validated: 1
EndChar

StartChar: Eth
Encoding: 208 208 176
Width: 768
GlyphClass: 2
Flags: HMW
AnchorPoint: "Anchor-1" 326 -35 basechar 0
AnchorPoint: "Anchor-0" 342 756 basechar 0
LayerCount: 2
Fore
SplineSet
368 78 m 2
 495 78 570 144 603 240 c 128
 615 275 621 314 621 358 c 256
 621 490 566 581 472 619 c 0
 441 632 407 638 368 638 c 2
 197 638 l 1
 197 390 l 1
 342 390 l 1
 342 333 l 1
 197 333 l 1
 197 78 l 1
 368 78 l 2
368 716 m 2
 481 716 565 677 623 618 c 128
 681 559 720 471 720 358 c 256
 720 186 635 76 511 26 c 128
 468 9 420 0 368 0 c 2
 100 0 l 1
 100 333 l 1
 2 333 l 1
 2 390 l 1
 100 390 l 1
 100 716 l 1
 368 716 l 2
EndSplineSet
Validated: 1
EndChar

StartChar: Ntilde
Encoding: 209 209 177
Width: 763
GlyphClass: 2
Flags: HMW
AnchorPoint: "Anchor-1" 382 -35 basechar 0
AnchorPoint: "Anchor-0" 382 756 basechar 0
LayerCount: 2
Fore
SplineSet
333 824 m 0
 304 824 287 803 287 774 c 1
 231 774 l 1
 231 823 252 858 284 875 c 128
 295 881 308 884 323 884 c 256
 368 884 395 857 424 840 c 128
 433 835 443 832 452 832 c 0
 482 832 499 853 499 882 c 1
 553 882 l 1
 553 834 533 798 501 781 c 128
 490 775 477 772 462 772 c 256
 418 772 388 799 360 816 c 128
 351 821 342 824 333 824 c 0
590 160 m 1
 589 176 587 193 587 209 c 2
 587 716 l 1
 672 716 l 1
 672 0 l 1
 624 0 l 2
 606 0 597 6 589 18 c 2
 174 558 l 1
 175 544 176 524 176 510 c 2
 176 0 l 1
 92 0 l 1
 92 716 l 1
 142 716 l 2
 161 716 167 711 175 700 c 2
 590 160 l 1
EndSplineSet
Validated: 1
EndChar

StartChar: Ograve
Encoding: 210 210 178
Width: 800
GlyphClass: 2
Flags: HMW
AnchorPoint: "Anchor-1" 400 -35 basechar 0
AnchorPoint: "Anchor-0" 400 756 basechar 0
LayerCount: 2
Fore
SplineSet
313 926 m 2
 337 926 344 924 355 910 c 2
 469 773 l 1
 405 773 l 2
 388 773 384 774 374 782 c 1
 218 926 l 1
 313 926 l 2
754 358 m 256
 754 245 713 154 656 94 c 128
 599 34 512 -8 400 -8 c 256
 287 -8 201 34 144 94 c 128
 86 154 47 244 47 358 c 256
 47 530 133 646 256 697 c 128
 299 715 347 724 400 724 c 256
 572 724 679 632 728 506 c 128
 745 461 754 411 754 358 c 256
654 358 m 256
 654 490 599 583 505 621 c 128
 474 634 439 640 400 640 c 256
 272 640 197 573 164 476 c 128
 152 441 146 402 146 358 c 256
 146 225 201 135 295 96 c 128
 326 83 361 76 400 76 c 256
 527 76 603 144 636 240 c 128
 648 275 654 314 654 358 c 256
EndSplineSet
Validated: 1
EndChar

StartChar: Oacute
Encoding: 211 211 179
Width: 800
GlyphClass: 2
Flags: HMW
AnchorPoint: "Anchor-1" 400 -35 basechar 0
AnchorPoint: "Anchor-0" 400 756 basechar 0
LayerCount: 2
Fore
SplineSet
590 926 m 1
 428 783 l 2
 418 775 412 773 396 773 c 2
 332 773 l 1
 448 910 l 1
 458 924 467 926 490 926 c 2
 590 926 l 1
754 358 m 256
 754 245 713 154 656 94 c 128
 599 34 512 -8 400 -8 c 256
 287 -8 201 34 144 94 c 128
 86 154 47 244 47 358 c 256
 47 530 133 646 256 697 c 128
 299 715 347 724 400 724 c 256
 572 724 679 632 728 506 c 128
 745 461 754 411 754 358 c 256
654 358 m 256
 654 490 599 583 505 621 c 128
 474 634 439 640 400 640 c 256
 272 640 197 573 164 476 c 128
 152 441 146 402 146 358 c 256
 146 225 201 135 295 96 c 128
 326 83 361 76 400 76 c 256
 527 76 603 144 636 240 c 128
 648 275 654 314 654 358 c 256
EndSplineSet
Validated: 1
EndChar

StartChar: Ocircumflex
Encoding: 212 212 180
Width: 800
GlyphClass: 2
Flags: HMW
AnchorPoint: "Anchor-1" 400 -35 basechar 0
AnchorPoint: "Anchor-0" 400 756 basechar 0
LayerCount: 2
Fore
SplineSet
561 773 m 1
 497 773 l 2
 483 773 473 778 465 788 c 2
 407 858 l 1
 401 867 l 1
 381 839 358 815 337 788 c 0
 329 778 319 773 305 773 c 2
 243 773 l 1
 363 908 l 1
 443 908 l 1
 561 773 l 1
754 358 m 256
 754 245 713 154 656 94 c 128
 599 34 512 -8 400 -8 c 256
 287 -8 201 34 144 94 c 128
 86 154 47 244 47 358 c 256
 47 530 133 646 256 697 c 128
 299 715 347 724 400 724 c 256
 572 724 679 632 728 506 c 128
 745 461 754 411 754 358 c 256
654 358 m 256
 654 490 599 583 505 621 c 128
 474 634 439 640 400 640 c 256
 272 640 197 573 164 476 c 128
 152 441 146 402 146 358 c 256
 146 225 201 135 295 96 c 128
 326 83 361 76 400 76 c 256
 527 76 603 144 636 240 c 128
 648 275 654 314 654 358 c 256
EndSplineSet
Validated: 1
EndChar

StartChar: Otilde
Encoding: 213 213 181
Width: 800
GlyphClass: 2
Flags: HMW
AnchorPoint: "Anchor-1" 400 -35 basechar 0
AnchorPoint: "Anchor-0" 400 756 basechar 0
LayerCount: 2
Fore
SplineSet
345 824 m 0
 316 824 299 803 299 774 c 1
 243 774 l 1
 243 823 264 858 296 875 c 128
 307 881 320 884 335 884 c 256
 380 884 407 857 436 840 c 128
 445 835 455 832 464 832 c 0
 494 832 511 853 511 882 c 1
 565 882 l 1
 565 834 545 798 513 781 c 128
 502 775 489 772 474 772 c 256
 430 772 400 799 372 816 c 128
 363 821 354 824 345 824 c 0
754 358 m 256
 754 245 713 154 656 94 c 128
 599 34 512 -8 400 -8 c 256
 287 -8 201 34 144 94 c 128
 86 154 47 244 47 358 c 256
 47 530 133 646 256 697 c 128
 299 715 347 724 400 724 c 256
 572 724 679 632 728 506 c 128
 745 461 754 411 754 358 c 256
654 358 m 256
 654 490 599 583 505 621 c 128
 474 634 439 640 400 640 c 256
 272 640 197 573 164 476 c 128
 152 441 146 402 146 358 c 256
 146 225 201 135 295 96 c 128
 326 83 361 76 400 76 c 256
 527 76 603 144 636 240 c 128
 648 275 654 314 654 358 c 256
EndSplineSet
Validated: 1
EndChar

StartChar: Odieresis
Encoding: 214 214 182
Width: 800
GlyphClass: 2
Flags: HMW
AnchorPoint: "Anchor-1" 400 -35 basechar 0
AnchorPoint: "Anchor-0" 400 756 basechar 0
LayerCount: 2
Fore
SplineSet
295 889 m 0
 327 889 351 866 351 833 c 0
 351 801 327 779 295 779 c 0
 266 779 241 804 241 833 c 0
 241 863 265 889 295 889 c 0
451 833 m 0
 451 865 473 889 505 889 c 0
 531 889 547 873 556 855 c 128
 559 848 561 841 561 833 c 0
 561 802 536 779 505 779 c 128
 474 779 451 802 451 833 c 0
754 358 m 256
 754 245 713 154 656 94 c 128
 599 34 512 -8 400 -8 c 256
 287 -8 201 34 144 94 c 128
 86 154 47 244 47 358 c 256
 47 530 133 646 256 697 c 128
 299 715 347 724 400 724 c 256
 572 724 679 632 728 506 c 128
 745 461 754 411 754 358 c 256
654 358 m 256
 654 490 599 583 505 621 c 128
 474 634 439 640 400 640 c 256
 272 640 197 573 164 476 c 128
 152 441 146 402 146 358 c 256
 146 225 201 135 295 96 c 128
 326 83 361 76 400 76 c 256
 527 76 603 144 636 240 c 128
 648 275 654 314 654 358 c 256
EndSplineSet
Validated: 1
EndChar

StartChar: multiply
Encoding: 215 215 183
Width: 640
GlyphClass: 2
Flags: HW
LayerCount: 2
Fore
SplineSet
597 22 m 1
 551 -25 l 1
 320 205 l 1
 89 -25 l 1
 43 21 l 1
 273 252 l 1
 43 483 l 1
 90 529 l 1
 320 299 l 1
 551 529 l 1
 597 484 l 1
 367 252 l 1
 597 22 l 1
EndSplineSet
Validated: 1
EndChar

StartChar: Oslash
Encoding: 216 216 184
Width: 800
GlyphClass: 2
Flags: HMW
AnchorPoint: "Anchor-1" 364 -35 basechar 0
AnchorPoint: "Anchor-0" 404 756 basechar 0
LayerCount: 2
Fore
SplineSet
264 112 m 1
 303 88 348 76 400 76 c 0
 527 76 603 144 636 240 c 128
 648 275 654 314 654 358 c 0
 654 443 631 511 592 558 c 1
 264 112 l 1
548 598 m 1
 510 624 462 640 400 640 c 0
 272 640 197 573 164 476 c 128
 152 441 146 402 146 358 c 0
 146 267 173 195 218 148 c 1
 548 598 l 1
400 724 m 0
 483 724 548 703 600 668 c 1
 640 724 l 2
 652 740 657 749 682 749 c 2
 732 749 l 1
 646 632 l 1
 711 571 754 480 754 358 c 0
 754 245 713 154 656 94 c 128
 599 34 512 -8 400 -8 c 0
 324 -8 262 12 212 41 c 1
 162 -27 l 2
 151 -43 132 -54 108 -54 c 2
 69 -54 l 1
 164 76 l 1
 94 137 47 231 47 358 c 0
 47 530 133 646 256 697 c 128
 299 715 347 724 400 724 c 0
EndSplineSet
Validated: 1
EndChar

StartChar: Ugrave
Encoding: 217 217 185
Width: 735
GlyphClass: 2
Flags: HMW
AnchorPoint: "Anchor-1" 368 -35 basechar 0
AnchorPoint: "Anchor-0" 368 756 basechar 0
LayerCount: 2
Fore
SplineSet
279 926 m 2
 303 926 310 924 321 910 c 2
 435 773 l 1
 371 773 l 2
 354 773 350 774 340 782 c 1
 184 926 l 1
 279 926 l 2
368 77 m 256
 461 77 520 127 544 198 c 128
 552 223 556 251 556 281 c 2
 556 716 l 1
 653 716 l 1
 653 281 l 2
 653 144 585 55 487 14 c 128
 452 -1 412 -8 368 -8 c 256
 229 -8 140 64 102 166 c 128
 89 201 82 240 82 281 c 2
 82 716 l 1
 179 716 l 1
 179 282 l 2
 179 186 220 122 288 92 c 128
 312 82 339 77 368 77 c 256
EndSplineSet
Validated: 1
EndChar

StartChar: Uacute
Encoding: 218 218 186
Width: 735
GlyphClass: 2
Flags: HMW
AnchorPoint: "Anchor-1" 368 -35 basechar 0
AnchorPoint: "Anchor-0" 368 756 basechar 0
LayerCount: 2
Fore
SplineSet
556 926 m 1
 394 783 l 2
 384 775 378 773 362 773 c 2
 298 773 l 1
 414 910 l 1
 424 924 433 926 456 926 c 2
 556 926 l 1
368 77 m 256
 461 77 520 127 544 198 c 128
 552 223 556 251 556 281 c 2
 556 716 l 1
 653 716 l 1
 653 281 l 2
 653 144 585 55 487 14 c 128
 452 -1 412 -8 368 -8 c 256
 229 -8 140 64 102 166 c 128
 89 201 82 240 82 281 c 2
 82 716 l 1
 179 716 l 1
 179 282 l 2
 179 186 220 122 288 92 c 128
 312 82 339 77 368 77 c 256
EndSplineSet
Validated: 1
EndChar

StartChar: Ucircumflex
Encoding: 219 219 187
Width: 735
GlyphClass: 2
Flags: HMW
AnchorPoint: "Anchor-1" 368 -35 basechar 0
AnchorPoint: "Anchor-0" 368 756 basechar 0
LayerCount: 2
Fore
SplineSet
528 773 m 1
 464 773 l 2
 450 773 440 778 432 788 c 2
 374 858 l 1
 368 867 l 1
 348 839 325 815 304 788 c 0
 296 778 286 773 272 773 c 2
 210 773 l 1
 330 908 l 1
 410 908 l 1
 528 773 l 1
368 77 m 256
 461 77 520 127 544 198 c 128
 552 223 556 251 556 281 c 2
 556 716 l 1
 653 716 l 1
 653 281 l 2
 653 144 585 55 487 14 c 128
 452 -1 412 -8 368 -8 c 256
 229 -8 140 64 102 166 c 128
 89 201 82 240 82 281 c 2
 82 716 l 1
 179 716 l 1
 179 282 l 2
 179 186 220 122 288 92 c 128
 312 82 339 77 368 77 c 256
EndSplineSet
Validated: 1
EndChar

StartChar: Udieresis
Encoding: 220 220 188
Width: 735
GlyphClass: 2
Flags: HMW
AnchorPoint: "Anchor-1" 368 -35 basechar 0
AnchorPoint: "Anchor-0" 368 756 basechar 0
LayerCount: 2
Fore
SplineSet
262 889 m 0
 294 889 318 866 318 833 c 0
 318 801 294 779 262 779 c 0
 233 779 208 804 208 833 c 0
 208 863 232 889 262 889 c 0
418 833 m 0
 418 865 440 889 472 889 c 0
 498 889 514 873 523 855 c 128
 526 848 528 841 528 833 c 0
 528 802 503 779 472 779 c 128
 441 779 418 802 418 833 c 0
368 77 m 256
 461 77 520 127 544 198 c 128
 552 223 556 251 556 281 c 2
 556 716 l 1
 653 716 l 1
 653 281 l 2
 653 144 585 55 487 14 c 128
 452 -1 412 -8 368 -8 c 256
 229 -8 140 64 102 166 c 128
 89 201 82 240 82 281 c 2
 82 716 l 1
 179 716 l 1
 179 282 l 2
 179 186 220 122 288 92 c 128
 312 82 339 77 368 77 c 256
EndSplineSet
Validated: 1
EndChar

StartChar: Yacute
Encoding: 221 221 189
Width: 624
GlyphClass: 2
Flags: HMW
AnchorPoint: "Anchor-1" 312 -35 basechar 0
AnchorPoint: "Anchor-0" 312 756 basechar 0
LayerCount: 2
Fore
SplineSet
502 926 m 1
 340 783 l 2
 330 775 324 773 308 773 c 2
 244 773 l 1
 360 910 l 1
 370 924 379 926 402 926 c 2
 502 926 l 1
360 286 m 1
 360 0 l 1
 264 0 l 1
 264 286 l 1
 1 716 l 1
 86 716 l 2
 105 716 113 706 120 694 c 2
 284 416 l 1
 293 398 292 398 300 383 c 128
 305 373 310 363 313 352 c 1
 322 376 330 393 341 416 c 1
 504 694 l 2
 509 705 522 716 538 716 c 2
 623 716 l 1
 360 286 l 1
EndSplineSet
Validated: 1
EndChar

StartChar: Thorn
Encoding: 222 222 190
Width: 598
GlyphClass: 2
Flags: HMW
AnchorPoint: "Anchor-1" 140 -35 basechar 0
AnchorPoint: "Anchor-0" 194 756 basechar 0
LayerCount: 2
Fore
SplineSet
474 362 m 0
 474 461 408 508 303 508 c 2
 188 508 l 1
 188 213 l 1
 303 213 l 2
 404 213 474 263 474 362 c 0
303 584 m 2
 463 584 570 519 570 362 c 128
 570 248 505 183 418 153 c 128
 385 142 346 136 303 136 c 2
 188 136 l 1
 188 0 l 1
 92 0 l 1
 92 716 l 1
 188 716 l 1
 188 584 l 1
 303 584 l 2
EndSplineSet
Validated: 1
EndChar

StartChar: germandbls
Encoding: 223 223 191
Width: 580
GlyphClass: 2
Flags: HMW
AnchorPoint: "Anchor-1" 286 -35 basechar 0
AnchorPoint: "Anchor-0" 300 756 basechar 0
LayerCount: 2
Fore
SplineSet
310 661 m 0
 209 661 160 596 160 493 c 2
 160 0 l 1
 70 0 l 1
 70 496 l 2
 70 609 130 679 214 710 c 128
 244 721 277 727 314 727 c 0
 382 727 431 706 465 674 c 128
 492 649 513 615 513 570 c 0
 513 471 425 454 379 402 c 128
 372 394 368 385 368 374 c 0
 368 344 393 329 415 317 c 128
 444 301 477 286 502 264 c 128
 529 240 548 208 548 157 c 256
 548 74 500 24 436 3 c 128
 413 -4 389 -8 363 -8 c 0
 295 -8 242 20 205 54 c 1
 226 88 l 2
 231 96 238 101 250 101 c 256
 256 101 262 99 269 94 c 128
 295 76 324 56 370 56 c 0
 425 56 465 88 465 143 c 0
 465 183 442 203 416 219 c 128
 387 237 352 248 325 267 c 128
 298 286 276 311 276 356 c 0
 276 394 295 419 315 438 c 128
 348 469 391 489 416 528 c 128
 424 540 427 554 427 570 c 0
 427 614 398 639 364 652 c 128
 349 658 331 661 310 661 c 0
EndSplineSet
Validated: 1
EndChar

StartChar: agrave
Encoding: 224 224 192
Width: 497
GlyphClass: 2
Flags: HMW
AnchorPoint: "Anchor-1" 248 -35 basechar 0
AnchorPoint: "Anchor-0" 248 756 basechar 0
LayerCount: 2
Fore
SplineSet
194 724 m 2
 217 724 224 717 234 702 c 2
 308 582 l 1
 257 582 l 2
 241 582 235 587 226 596 c 2
 110 724 l 1
 194 724 l 2
202 54 m 0
 270 54 311 87 345 123 c 1
 345 228 l 1
 274 226 216 218 170 198 c 128
 140 185 118 167 118 130 c 0
 118 79 152 54 202 54 c 0
345 324 m 2
 345 397 315 444 245 444 c 0
 188 444 156 420 124 398 c 128
 116 393 108 390 100 390 c 0
 88 390 79 398 74 406 c 2
 58 435 l 1
 108 482 166 516 256 516 c 0
 371 516 432 439 432 324 c 2
 432 0 l 1
 392 0 l 2
 373 0 367 5 362 21 c 1
 352 69 l 1
 306 28 261 -8 175 -8 c 0
 108 -8 65 21 44 67 c 128
 36 84 32 103 32 126 c 0
 32 178 64 212 103 234 c 128
 163 269 244 282 345 284 c 1
 345 324 l 2
EndSplineSet
Validated: 1
EndChar

StartChar: aacute
Encoding: 225 225 193
Width: 497
GlyphClass: 2
Flags: HMW
AnchorPoint: "Anchor-1" 248 -35 basechar 0
AnchorPoint: "Anchor-0" 248 756 basechar 0
LayerCount: 2
Fore
SplineSet
390 724 m 1
 273 596 l 2
 265 587 258 582 242 582 c 2
 189 582 l 1
 263 702 l 2
 272 717 279 724 302 724 c 2
 390 724 l 1
202 54 m 0
 270 54 311 87 345 123 c 1
 345 228 l 1
 274 226 216 218 170 198 c 128
 140 185 118 167 118 130 c 0
 118 79 152 54 202 54 c 0
345 324 m 2
 345 397 315 444 245 444 c 0
 188 444 156 420 124 398 c 128
 116 393 108 390 100 390 c 0
 88 390 79 398 74 406 c 2
 58 435 l 1
 108 482 166 516 256 516 c 0
 371 516 432 439 432 324 c 2
 432 0 l 1
 392 0 l 2
 373 0 367 5 362 21 c 1
 352 69 l 1
 306 28 261 -8 175 -8 c 0
 108 -8 65 21 44 67 c 128
 36 84 32 103 32 126 c 0
 32 178 64 212 103 234 c 128
 163 269 244 282 345 284 c 1
 345 324 l 2
EndSplineSet
Validated: 1
EndChar

StartChar: acircumflex
Encoding: 226 226 194
Width: 497
GlyphClass: 2
Flags: HMW
AnchorPoint: "Anchor-1" 246 -35 basechar 0
AnchorPoint: "Anchor-0" 247 756 basechar 0
LayerCount: 2
Fore
SplineSet
202 54 m 0
 270 54 311 87 345 123 c 1
 345 228 l 1
 274 226 216 218 170 198 c 128
 140 185 118 167 118 130 c 0
 118 79 152 54 202 54 c 0
345 324 m 2
 345 397 315 444 245 444 c 0
 188 444 156 420 124 398 c 128
 116 393 108 390 100 390 c 0
 88 390 79 398 74 406 c 2
 58 435 l 1
 108 482 166 516 256 516 c 0
 371 516 432 439 432 324 c 2
 432 0 l 1
 392 0 l 2
 373 0 367 5 362 21 c 1
 352 69 l 1
 306 28 261 -8 175 -8 c 0
 108 -8 65 21 44 67 c 128
 36 84 32 103 32 126 c 0
 32 178 64 212 103 234 c 128
 163 269 244 282 345 284 c 1
 345 324 l 2
398 584 m 1
 338 584 l 2
 327 584 323 587 316 594 c 2
 254 660 l 2
 251 663 249 666 246 670 c 1
 243 667 241 663 238 660 c 2
 176 594 l 2
 169 587 162 584 153 584 c 2
 92 584 l 1
 203 716 l 1
 286 716 l 1
 398 584 l 1
EndSplineSet
Validated: 1
EndChar

StartChar: atilde
Encoding: 227 227 195
Width: 497
GlyphClass: 2
Flags: HMW
AnchorPoint: "Anchor-1" 248 -35 basechar 0
AnchorPoint: "Anchor-0" 248 756 basechar 0
LayerCount: 2
Fore
SplineSet
100 601 m 1
 100 661 130 708 189 708 c 0
 215 708 234 696 250 686 c 128
 264 677 280 662 299 662 c 0
 325 662 336 679 337 706 c 1
 391 706 l 1
 391 646 362 599 302 599 c 0
 277 599 257 612 241 622 c 128
 227 630 211 645 192 645 c 0
 168 645 156 630 155 601 c 1
 100 601 l 1
202 54 m 0
 270 54 311 87 345 123 c 1
 345 228 l 1
 274 226 216 218 170 198 c 128
 140 185 118 167 118 130 c 0
 118 79 152 54 202 54 c 0
345 324 m 2
 345 397 315 444 245 444 c 0
 188 444 156 420 124 398 c 128
 116 393 108 390 100 390 c 0
 88 390 79 398 74 406 c 2
 58 435 l 1
 108 482 166 516 256 516 c 0
 371 516 432 439 432 324 c 2
 432 0 l 1
 392 0 l 2
 373 0 367 5 362 21 c 1
 352 69 l 1
 306 28 261 -8 175 -8 c 0
 108 -8 65 21 44 67 c 128
 36 84 32 103 32 126 c 0
 32 178 64 212 103 234 c 128
 163 269 244 282 345 284 c 1
 345 324 l 2
EndSplineSet
Validated: 1
EndChar

StartChar: adieresis
Encoding: 228 228 196
Width: 497
GlyphClass: 2
Flags: HMW
AnchorPoint: "Anchor-1" 248 -35 basechar 0
AnchorPoint: "Anchor-0" 248 756 basechar 0
LayerCount: 2
Fore
SplineSet
205 644 m 256
 205 612 180 589 148 589 c 0
 123 589 106 606 97 623 c 0
 94 629 92 636 92 644 c 256
 92 670 109 688 127 697 c 128
 134 700 141 702 148 702 c 0
 180 702 205 676 205 644 c 256
283 644 m 256
 283 676 307 702 339 702 c 256
 371 702 396 676 396 644 c 256
 396 613 370 589 339 589 c 256
 307 589 283 613 283 644 c 256
202 54 m 0
 270 54 311 87 345 123 c 1
 345 228 l 1
 274 226 216 218 170 198 c 128
 140 185 118 167 118 130 c 0
 118 79 152 54 202 54 c 0
345 324 m 2
 345 397 315 444 245 444 c 0
 188 444 156 420 124 398 c 128
 116 393 108 390 100 390 c 0
 88 390 79 398 74 406 c 2
 58 435 l 1
 108 482 166 516 256 516 c 0
 371 516 432 439 432 324 c 2
 432 0 l 1
 392 0 l 2
 373 0 367 5 362 21 c 1
 352 69 l 1
 306 28 261 -8 175 -8 c 0
 108 -8 65 21 44 67 c 128
 36 84 32 103 32 126 c 0
 32 178 64 212 103 234 c 128
 163 269 244 282 345 284 c 1
 345 324 l 2
EndSplineSet
Validated: 1
EndChar

StartChar: aring
Encoding: 229 229 197
Width: 497
GlyphClass: 2
Flags: HMW
AnchorPoint: "Anchor-1" 248 -35 basechar 0
AnchorPoint: "Anchor-0" 248 756 basechar 0
LayerCount: 2
Fore
SplineSet
145 658 m 0
 145 714 189 751 245 751 c 128
 291 751 322 727 337 695 c 128
 342 684 345 671 345 658 c 128
 345 602 301 566 245 566 c 128
 189 566 145 602 145 658 c 0
245 708 m 0
 214 708 195 688 195 658 c 128
 195 628 214 608 245 608 c 0
 274 608 295 629 295 658 c 128
 295 688 274 708 245 708 c 0
202 54 m 0
 270 54 311 87 345 123 c 1
 345 228 l 1
 274 226 216 218 170 198 c 128
 140 185 118 167 118 130 c 0
 118 79 152 54 202 54 c 0
345 324 m 2
 345 397 315 444 245 444 c 0
 188 444 156 420 124 398 c 128
 116 393 108 390 100 390 c 0
 88 390 79 398 74 406 c 2
 58 435 l 1
 108 482 166 516 256 516 c 0
 371 516 432 439 432 324 c 2
 432 0 l 1
 392 0 l 2
 373 0 367 5 362 21 c 1
 352 69 l 1
 306 28 261 -8 175 -8 c 0
 108 -8 65 21 44 67 c 128
 36 84 32 103 32 126 c 0
 32 178 64 212 103 234 c 128
 163 269 244 282 345 284 c 1
 345 324 l 2
EndSplineSet
Validated: 1
EndChar

StartChar: ae
Encoding: 230 230 198
Width: 805
GlyphClass: 2
Flags: HMW
AnchorPoint: "Anchor-1" 364 -35 basechar 0
LayerCount: 2
Fore
SplineSet
686 298 m 1
 686 364 662 415 618 438 c 128
 603 446 587 449 568 449 c 0
 477 449 439 381 430 298 c 1
 686 298 l 1
120 138 m 0
 120 81 155 54 210 54 c 0
 276 54 317 88 336 137 c 128
 343 155 346 177 346 202 c 2
 346 243 l 1
 275 241 216 232 171 210 c 128
 143 196 120 174 120 138 c 0
346 324 m 2
 346 397 316 446 246 446 c 0
 190 446 155 422 124 399 c 128
 116 393 108 390 101 390 c 0
 89 390 79 399 74 406 c 2
 58 435 l 1
 107 481 161 516 248 516 c 0
 329 516 375 478 397 420 c 1
 431 475 486 514 571 514 c 0
 668 514 725 453 750 378 c 128
 760 349 765 315 765 278 c 0
 765 255 763 243 744 243 c 2
 430 243 l 1
 434 160 461 100 520 74 c 128
 538 66 557 63 578 63 c 0
 633 63 668 81 698 103 c 128
 704 108 711 110 716 110 c 0
 725 110 731 107 735 102 c 2
 758 71 l 1
 720 23 653 -7 570 -7 c 0
 479 -7 420 41 388 108 c 1
 356 37 291 -8 190 -8 c 0
 95 -8 34 38 34 134 c 0
 34 187 66 221 104 245 c 128
 162 282 246 297 346 299 c 1
 346 324 l 2
EndSplineSet
Validated: 1
EndChar

StartChar: ccedilla
Encoding: 231 231 199
Width: 478
GlyphClass: 2
Flags: HMW
AnchorPoint: "Anchor-1" 243 -210 basechar 0
LayerCount: 2
Fore
SplineSet
260 -138 m 0
 283 -138 302 -129 302 -108 c 0
 302 -95 295 -87 281 -82 c 128
 267 -77 247 -72 222 -68 c 1
 242 -6 l 1
 143 3 84 67 57 150 c 128
 47 181 42 215 42 254 c 0
 42 373 94 459 178 495 c 128
 207 508 241 514 280 514 c 0
 357 514 406 488 446 448 c 1
 423 416 l 2
 418 409 415 405 404 405 c 0
 399 405 393 408 387 412 c 128
 362 430 331 445 286 445 c 0
 177 445 133 364 133 254 c 0
 133 167 162 103 220 75 c 128
 238 66 258 62 281 62 c 0
 333 62 365 81 392 104 c 128
 398 109 405 112 410 112 c 0
 418 112 424 109 428 104 c 2
 452 71 l 1
 418 27 363 0 294 -6 c 1
 285 -38 l 1
 331 -48 372 -63 372 -109 c 0
 372 -161 317 -178 264 -178 c 0
 237 -178 210 -172 192 -163 c 1
 200 -136 l 2
 202 -129 206 -126 211 -126 c 0
 217 -126 222 -130 228 -132 c 128
 237 -135 247 -138 260 -138 c 0
EndSplineSet
Validated: 1
EndChar

StartChar: egrave
Encoding: 232 232 200
Width: 528
GlyphClass: 2
Flags: HMW
AnchorPoint: "Anchor-1" 264 -35 basechar 0
AnchorPoint: "Anchor-0" 264 756 basechar 0
LayerCount: 2
Fore
SplineSet
230 724 m 2
 253 724 260 717 270 702 c 2
 344 582 l 1
 293 582 l 2
 277 582 271 587 262 596 c 2
 146 724 l 1
 230 724 l 2
410 308 m 1
 410 374 380 418 334 438 c 128
 318 445 300 449 280 449 c 0
 189 449 144 390 132 308 c 1
 410 308 l 1
130 253 m 1
 135 142 177 63 290 63 c 0
 346 63 388 82 420 104 c 0
 428 109 435 112 440 112 c 0
 447 112 452 109 456 104 c 2
 482 71 l 1
 443 22 369 -7 283 -7 c 0
 164 -7 92 58 60 148 c 128
 48 182 42 220 42 264 c 0
 42 380 97 460 179 495 c 128
 208 508 241 514 278 514 c 0
 381 514 445 460 474 384 c 128
 485 356 490 324 490 288 c 0
 490 265 488 253 468 253 c 2
 130 253 l 1
EndSplineSet
Validated: 1
EndChar

StartChar: eacute
Encoding: 233 233 201
Width: 528
GlyphClass: 2
Flags: HMW
AnchorPoint: "Anchor-1" 264 -35 basechar 0
AnchorPoint: "Anchor-0" 264 756 basechar 0
LayerCount: 2
Fore
SplineSet
426 724 m 1
 309 596 l 2
 301 587 294 582 278 582 c 2
 225 582 l 1
 299 702 l 2
 308 717 315 724 338 724 c 2
 426 724 l 1
410 308 m 1
 410 374 380 418 334 438 c 128
 318 445 300 449 280 449 c 0
 189 449 144 390 132 308 c 1
 410 308 l 1
130 253 m 1
 135 142 177 63 290 63 c 0
 346 63 388 82 420 104 c 0
 428 109 435 112 440 112 c 0
 447 112 452 109 456 104 c 2
 482 71 l 1
 443 22 369 -7 283 -7 c 0
 164 -7 92 58 60 148 c 128
 48 182 42 220 42 264 c 0
 42 380 97 460 179 495 c 128
 208 508 241 514 278 514 c 0
 381 514 445 460 474 384 c 128
 485 356 490 324 490 288 c 0
 490 265 488 253 468 253 c 2
 130 253 l 1
EndSplineSet
Validated: 1
EndChar

StartChar: ecircumflex
Encoding: 234 234 202
Width: 528
GlyphClass: 2
Flags: HMW
AnchorPoint: "Anchor-1" 256 -35 basechar 0
AnchorPoint: "Anchor-0" 279 756 basechar 0
LayerCount: 2
Fore
SplineSet
410 308 m 1
 410 374 380 418 334 438 c 128
 318 445 300 449 280 449 c 0
 189 449 144 390 132 308 c 1
 410 308 l 1
130 253 m 1
 135 142 177 63 290 63 c 0
 346 63 388 82 420 104 c 0
 428 109 435 112 440 112 c 0
 447 112 452 109 456 104 c 2
 482 71 l 1
 443 22 369 -7 283 -7 c 0
 164 -7 92 58 60 148 c 128
 48 182 42 220 42 264 c 0
 42 380 97 460 179 495 c 128
 208 508 241 514 278 514 c 0
 381 514 445 460 474 384 c 128
 485 356 490 324 490 288 c 0
 490 265 488 253 468 253 c 2
 130 253 l 1
433 584 m 1
 374 584 l 2
 363 584 357 587 351 594 c 2
 290 660 l 2
 287 663 285 666 282 670 c 1
 279 667 276 663 273 660 c 2
 211 594 l 2
 204 587 196 584 188 584 c 2
 127 584 l 1
 238 716 l 1
 322 716 l 1
 433 584 l 1
EndSplineSet
Validated: 1
EndChar

StartChar: edieresis
Encoding: 235 235 203
Width: 528
GlyphClass: 2
Flags: HMW
AnchorPoint: "Anchor-1" 264 -35 basechar 0
AnchorPoint: "Anchor-0" 264 756 basechar 0
LayerCount: 2
Fore
SplineSet
241 644 m 256
 241 612 216 589 184 589 c 0
 159 589 142 606 133 623 c 0
 130 629 128 636 128 644 c 256
 128 670 145 688 163 697 c 128
 170 700 177 702 184 702 c 0
 216 702 241 676 241 644 c 256
319 644 m 256
 319 676 343 702 375 702 c 256
 407 702 432 676 432 644 c 256
 432 613 406 589 375 589 c 256
 343 589 319 613 319 644 c 256
410 308 m 1
 410 374 380 418 334 438 c 128
 318 445 300 449 280 449 c 0
 189 449 144 390 132 308 c 1
 410 308 l 1
130 253 m 1
 135 142 177 63 290 63 c 0
 346 63 388 82 420 104 c 0
 428 109 435 112 440 112 c 0
 447 112 452 109 456 104 c 2
 482 71 l 1
 443 22 369 -7 283 -7 c 0
 164 -7 92 58 60 148 c 128
 48 182 42 220 42 264 c 0
 42 380 97 460 179 495 c 128
 208 508 241 514 278 514 c 0
 381 514 445 460 474 384 c 128
 485 356 490 324 490 288 c 0
 490 265 488 253 468 253 c 2
 130 253 l 1
EndSplineSet
Validated: 1
EndChar

StartChar: igrave
Encoding: 236 236 204
Width: 240
GlyphClass: 2
Flags: HMW
AnchorPoint: "Anchor-1" 120 -35 basechar 0
AnchorPoint: "Anchor-0" 120 756 basechar 0
LayerCount: 2
Fore
SplineSet
72 724 m 2
 95 724 102 717 112 702 c 2
 186 582 l 1
 135 582 l 2
 119 582 113 587 104 596 c 2
 -12 724 l 1
 72 724 l 2
165 506 m 1
 165 0 l 1
 76 0 l 1
 76 506 l 1
 165 506 l 1
EndSplineSet
Validated: 1
EndChar

StartChar: iacute
Encoding: 237 237 205
Width: 240
GlyphClass: 2
Flags: HMW
AnchorPoint: "Anchor-1" 120 -35 basechar 0
AnchorPoint: "Anchor-0" 120 756 basechar 0
LayerCount: 2
Fore
SplineSet
268 724 m 1
 151 596 l 2
 143 587 136 582 120 582 c 2
 67 582 l 1
 141 702 l 2
 150 717 157 724 180 724 c 2
 268 724 l 1
165 506 m 1
 165 0 l 1
 76 0 l 1
 76 506 l 1
 165 506 l 1
EndSplineSet
Validated: 1
EndChar

StartChar: icircumflex
Encoding: 238 238 206
Width: 240
GlyphClass: 2
Flags: HMW
AnchorPoint: "Anchor-1" 120 -35 basechar 0
AnchorPoint: "Anchor-0" 122 756 basechar 0
LayerCount: 2
Fore
SplineSet
164 506 m 1
 164 0 l 1
 75 0 l 1
 75 506 l 1
 164 506 l 1
276 584 m 1
 216 584 l 2
 205 584 201 587 194 594 c 2
 132 660 l 2
 129 663 127 666 124 670 c 1
 121 667 119 663 116 660 c 2
 54 594 l 2
 47 587 40 584 31 584 c 2
 -30 584 l 1
 81 716 l 1
 164 716 l 1
 276 584 l 1
EndSplineSet
Validated: 1
EndChar

StartChar: idieresis
Encoding: 239 239 207
Width: 240
GlyphClass: 2
Flags: HMW
AnchorPoint: "Anchor-1" 120 -35 basechar 0
AnchorPoint: "Anchor-0" 120 756 basechar 0
LayerCount: 2
Fore
SplineSet
44 589 m 256
 12 589 -12 612 -12 644 c 256
 -12 672 3 688 22 697 c 128
 29 700 36 702 44 702 c 256
 77 702 100 677 100 644 c 256
 100 612 76 589 44 589 c 256
200 589 m 256
 168 589 144 612 144 644 c 256
 144 672 159 688 178 697 c 128
 185 700 192 702 200 702 c 256
 233 702 256 677 256 644 c 256
 256 612 232 589 200 589 c 256
165 506 m 1
 165 0 l 1
 76 0 l 1
 76 506 l 1
 165 506 l 1
EndSplineSet
Validated: 1
EndChar

StartChar: eth
Encoding: 240 240 208
Width: 566
GlyphClass: 2
Flags: HMW
AnchorPoint: "Anchor-1" 274 -35 basechar 0
AnchorPoint: "Anchor-0" 311 756 basechar 0
LayerCount: 2
Fore
SplineSet
434 282 m 1
 412 343 365 394 282 394 c 0
 184 394 130 329 130 232 c 0
 130 153 165 98 220 74 c 128
 238 66 256 62 276 62 c 0
 329 62 364 85 389 117 c 128
 419 156 432 213 434 282 c 1
160 707 m 1
 227 696 287 675 338 645 c 1
 422 706 l 1
 439 678 l 1
 442 674 443 670 443 666 c 0
 443 658 438 651 432 647 c 2
 384 614 l 1
 465 549 518 447 518 302 c 0
 518 163 474 59 380 15 c 128
 350 1 314 -6 274 -6 c 0
 163 -6 92 51 59 132 c 128
 47 162 41 196 41 233 c 0
 41 340 96 410 171 445 c 128
 198 458 229 464 264 464 c 0
 342 464 400 428 436 378 c 1
 423 470 384 530 320 572 c 1
 228 504 l 1
 212 532 l 1
 209 537 208 542 208 546 c 0
 208 553 212 560 218 564 c 2
 270 600 l 1
 241 613 207 625 168 634 c 0
 156 638 147 646 147 660 c 0
 147 665 148 670 150 676 c 2
 160 707 l 1
EndSplineSet
Validated: 1
EndChar

StartChar: ntilde
Encoding: 241 241 209
Width: 558
GlyphClass: 2
Flags: HMW
AnchorPoint: "Anchor-1" 279 -35 basechar 0
AnchorPoint: "Anchor-0" 279 756 basechar 0
LayerCount: 2
Fore
SplineSet
138 601 m 1
 138 661 168 708 227 708 c 0
 253 708 272 696 288 686 c 128
 302 677 318 662 337 662 c 0
 363 662 374 679 375 706 c 1
 429 706 l 1
 429 646 400 599 340 599 c 0
 315 599 295 612 279 622 c 128
 265 630 249 645 230 645 c 0
 206 645 194 630 193 601 c 1
 138 601 l 1
297 444 m 0
 235 444 192 410 160 373 c 1
 160 0 l 1
 70 0 l 1
 70 506 l 1
 124 506 l 2
 137 506 145 500 148 488 c 1
 154 433 l 1
 193 476 243 514 323 514 c 0
 438 514 492 437 492 322 c 2
 492 0 l 1
 403 0 l 1
 403 322 l 2
 403 396 370 444 297 444 c 0
EndSplineSet
Validated: 1
EndChar

StartChar: ograve
Encoding: 242 242 210
Width: 567
GlyphClass: 2
Flags: HMW
AnchorPoint: "Anchor-1" 284 -35 basechar 0
AnchorPoint: "Anchor-0" 284 756 basechar 0
LayerCount: 2
Fore
SplineSet
234 724 m 2
 257 724 264 717 274 702 c 2
 348 582 l 1
 297 582 l 2
 281 582 275 587 266 596 c 2
 150 724 l 1
 234 724 l 2
284 514 m 128
 403 514 477 452 508 362 c 0
 519 330 525 294 525 254 c 128
 525 130 472 49 384 12 c 128
 355 0 321 -7 284 -7 c 128
 163 -7 91 56 59 146 c 128
 48 178 42 214 42 254 c 128
 42 376 95 461 183 496 c 128
 213 508 247 514 284 514 c 128
134 253 m 0
 134 141 176 62 284 62 c 0
 391 62 433 142 433 253 c 128
 433 364 391 444 284 444 c 0
 174 444 134 364 134 253 c 0
EndSplineSet
Validated: 1
EndChar

StartChar: oacute
Encoding: 243 243 211
Width: 567
GlyphClass: 2
Flags: HMW
AnchorPoint: "Anchor-1" 284 -35 basechar 0
AnchorPoint: "Anchor-0" 284 756 basechar 0
LayerCount: 2
Fore
SplineSet
430 724 m 1
 313 596 l 2
 305 587 298 582 282 582 c 2
 229 582 l 1
 303 702 l 2
 312 717 319 724 342 724 c 2
 430 724 l 1
284 514 m 128
 403 514 477 452 508 362 c 0
 519 330 525 294 525 254 c 128
 525 130 472 49 384 12 c 128
 355 0 321 -7 284 -7 c 128
 163 -7 91 56 59 146 c 128
 48 178 42 214 42 254 c 128
 42 376 95 461 183 496 c 128
 213 508 247 514 284 514 c 128
134 253 m 0
 134 141 176 62 284 62 c 0
 391 62 433 142 433 253 c 128
 433 364 391 444 284 444 c 0
 174 444 134 364 134 253 c 0
EndSplineSet
Validated: 1
EndChar

StartChar: ocircumflex
Encoding: 244 244 212
Width: 567
GlyphClass: 2
Flags: HMW
AnchorPoint: "Anchor-1" 284 -35 basechar 0
AnchorPoint: "Anchor-0" 284 756 basechar 0
LayerCount: 2
Fore
SplineSet
284 514 m 128
 403 514 477 452 508 362 c 0
 519 330 525 294 525 254 c 128
 525 130 472 49 384 12 c 128
 355 0 321 -7 284 -7 c 128
 163 -7 91 56 59 146 c 128
 48 178 42 214 42 254 c 128
 42 376 95 461 183 496 c 128
 213 508 247 514 284 514 c 128
134 253 m 0
 134 141 176 62 284 62 c 0
 391 62 433 142 433 253 c 128
 433 364 391 444 284 444 c 0
 174 444 134 364 134 253 c 0
438 584 m 1
 378 584 l 2
 367 584 363 587 356 594 c 2
 294 660 l 2
 291 663 289 666 286 670 c 1
 283 667 281 663 278 660 c 2
 216 594 l 2
 209 587 202 584 193 584 c 2
 132 584 l 1
 243 716 l 1
 326 716 l 1
 438 584 l 1
EndSplineSet
Validated: 1
EndChar

StartChar: otilde
Encoding: 245 245 213
Width: 567
GlyphClass: 2
Flags: HMW
AnchorPoint: "Anchor-1" 284 -35 basechar 0
AnchorPoint: "Anchor-0" 284 756 basechar 0
LayerCount: 2
Fore
SplineSet
140 601 m 1
 140 661 170 708 229 708 c 0
 255 708 274 696 290 686 c 128
 304 677 320 662 339 662 c 0
 365 662 376 679 377 706 c 1
 431 706 l 1
 431 646 402 599 342 599 c 0
 317 599 297 612 281 622 c 128
 267 630 251 645 232 645 c 0
 208 645 196 630 195 601 c 1
 140 601 l 1
284 514 m 128
 403 514 477 452 508 362 c 0
 519 330 525 294 525 254 c 128
 525 130 472 49 384 12 c 128
 355 0 321 -7 284 -7 c 128
 163 -7 91 56 59 146 c 128
 48 178 42 214 42 254 c 128
 42 376 95 461 183 496 c 128
 213 508 247 514 284 514 c 128
134 253 m 0
 134 141 176 62 284 62 c 0
 391 62 433 142 433 253 c 128
 433 364 391 444 284 444 c 0
 174 444 134 364 134 253 c 0
EndSplineSet
Validated: 1
EndChar

StartChar: odieresis
Encoding: 246 246 214
Width: 567
GlyphClass: 2
Flags: HMW
AnchorPoint: "Anchor-1" 284 -35 basechar 0
AnchorPoint: "Anchor-0" 284 756 basechar 0
LayerCount: 2
Fore
SplineSet
245 644 m 256
 245 612 220 589 188 589 c 0
 163 589 146 606 137 623 c 0
 134 629 132 636 132 644 c 256
 132 670 149 688 167 697 c 128
 174 700 181 702 188 702 c 0
 220 702 245 676 245 644 c 256
323 644 m 256
 323 676 347 702 379 702 c 256
 411 702 436 676 436 644 c 256
 436 613 410 589 379 589 c 256
 347 589 323 613 323 644 c 256
284 514 m 128
 403 514 477 452 508 362 c 0
 519 330 525 294 525 254 c 128
 525 130 472 49 384 12 c 128
 355 0 321 -7 284 -7 c 128
 163 -7 91 56 59 146 c 128
 48 178 42 214 42 254 c 128
 42 376 95 461 183 496 c 128
 213 508 247 514 284 514 c 128
134 253 m 0
 134 141 176 62 284 62 c 0
 391 62 433 142 433 253 c 128
 433 364 391 444 284 444 c 0
 174 444 134 364 134 253 c 0
EndSplineSet
Validated: 1
EndChar

StartChar: divide
Encoding: 247 247 215
Width: 564
GlyphClass: 2
Flags: HMW
HStem: -10 111<267.5 297> 220 66<30 534 30 534> 405 111<267.5 297>
VStem: 227 111<29.5 59 29.5 60.5 444.5 474>
CounterMasks: 1 e0
LayerCount: 2
Fore
SplineSet
338 44 m 0
 338 15 312 -10 282 -10 c 0
 251 -10 227 14 227 45 c 0
 227 76 252 101 283 101 c 0
 312 101 338 74 338 44 c 0
534 220 m 1
 30 220 l 1
 30 286 l 1
 534 286 l 1
 534 220 l 1
338 459 m 0
 338 430 312 405 282 405 c 0
 251 405 227 429 227 460 c 0
 227 491 252 516 283 516 c 0
 312 516 338 489 338 459 c 0
EndSplineSet
Validated: 1
EndChar

StartChar: oslash
Encoding: 248 248 216
Width: 566
GlyphClass: 2
Flags: HMW
AnchorPoint: "Anchor-1" 263 -35 basechar 0
LayerCount: 2
Fore
SplineSet
284 60 m 0
 394 60 438 142 438 253 c 0
 438 303 429 344 412 376 c 1
 196 84 l 1
 219 68 249 60 284 60 c 0
376 420 m 1
 352 439 321 448 284 448 c 0
 174 448 128 364 128 253 c 0
 128 199 138 156 158 124 c 1
 376 420 l 1
284 514 m 0
 340 514 384 501 419 478 c 1
 453 524 l 1
 464 541 470 548 495 548 c 2
 540 548 l 1
 461 442 l 1
 501 398 525 336 525 254 c 128
 525 130 472 49 384 12 c 128
 355 0 321 -7 284 -7 c 0
 231 -7 187 6 154 26 c 1
 126 -11 l 1
 115 -28 96 -38 71 -38 c 2
 38 -38 l 1
 110 60 l 1
 67 104 42 169 42 254 c 0
 42 376 95 461 183 496 c 128
 213 508 247 514 284 514 c 0
EndSplineSet
Validated: 1
EndChar

StartChar: ugrave
Encoding: 249 249 217
Width: 557
GlyphClass: 2
Flags: HMW
AnchorPoint: "Anchor-1" 278 -35 basechar 0
AnchorPoint: "Anchor-0" 278 756 basechar 0
LayerCount: 2
Fore
SplineSet
229 724 m 2
 252 724 259 717 269 702 c 2
 343 582 l 1
 292 582 l 2
 276 582 270 587 261 596 c 2
 145 724 l 1
 229 724 l 2
261 63 m 0
 324 63 366 96 398 134 c 1
 398 506 l 1
 487 506 l 1
 487 0 l 1
 434 0 l 2
 421 0 413 6 410 18 c 1
 403 73 l 1
 364 30 312 -8 235 -8 c 0
 120 -8 66 69 66 184 c 2
 66 506 l 1
 154 506 l 1
 154 184 l 2
 154 109 187 63 261 63 c 0
EndSplineSet
Validated: 1
EndChar

StartChar: uacute
Encoding: 250 250 218
Width: 557
GlyphClass: 2
Flags: HMW
AnchorPoint: "Anchor-1" 278 -35 basechar 0
AnchorPoint: "Anchor-0" 278 756 basechar 0
LayerCount: 2
Fore
SplineSet
425 724 m 1
 308 596 l 2
 300 587 293 582 277 582 c 2
 224 582 l 1
 298 702 l 2
 307 717 314 724 337 724 c 2
 425 724 l 1
261 63 m 0
 324 63 366 96 398 134 c 1
 398 506 l 1
 487 506 l 1
 487 0 l 1
 434 0 l 2
 421 0 413 6 410 18 c 1
 403 73 l 1
 364 30 312 -8 235 -8 c 0
 120 -8 66 69 66 184 c 2
 66 506 l 1
 154 506 l 1
 154 184 l 2
 154 109 187 63 261 63 c 0
EndSplineSet
Validated: 1
EndChar

StartChar: ucircumflex
Encoding: 251 251 219
Width: 557
GlyphClass: 2
Flags: HMW
AnchorPoint: "Anchor-1" 298 -35 basechar 0
AnchorPoint: "Anchor-0" 278 756 basechar 0
LayerCount: 2
Fore
SplineSet
261 63 m 0
 324 63 366 96 398 134 c 1
 398 506 l 1
 487 506 l 1
 487 0 l 1
 434 0 l 2
 421 0 413 6 410 18 c 1
 403 73 l 1
 364 30 312 -8 235 -8 c 0
 120 -8 66 69 66 184 c 2
 66 506 l 1
 154 506 l 1
 154 184 l 2
 154 109 187 63 261 63 c 0
432 584 m 1
 372 584 l 2
 361 584 356 588 350 594 c 2
 288 660 l 2
 285 663 283 666 280 670 c 1
 277 667 275 663 272 660 c 2
 210 594 l 2
 203 587 196 584 188 584 c 2
 126 584 l 1
 238 716 l 1
 320 716 l 1
 432 584 l 1
EndSplineSet
Validated: 1
EndChar

StartChar: udieresis
Encoding: 252 252 220
Width: 557
GlyphClass: 2
Flags: HMW
AnchorPoint: "Anchor-1" 278 -35 basechar 0
AnchorPoint: "Anchor-0" 278 756 basechar 0
LayerCount: 2
Fore
SplineSet
240 644 m 256
 240 612 215 589 183 589 c 0
 158 589 141 606 132 623 c 0
 129 629 127 636 127 644 c 256
 127 670 144 688 162 697 c 128
 169 700 176 702 183 702 c 0
 215 702 240 676 240 644 c 256
318 644 m 256
 318 676 342 702 374 702 c 256
 406 702 431 676 431 644 c 256
 431 613 405 589 374 589 c 256
 342 589 318 613 318 644 c 256
261 63 m 0
 324 63 366 96 398 134 c 1
 398 506 l 1
 487 506 l 1
 487 0 l 1
 434 0 l 2
 421 0 413 6 410 18 c 1
 403 73 l 1
 364 30 312 -8 235 -8 c 0
 120 -8 66 69 66 184 c 2
 66 506 l 1
 154 506 l 1
 154 184 l 2
 154 109 187 63 261 63 c 0
EndSplineSet
Validated: 1
EndChar

StartChar: yacute
Encoding: 253 253 221
Width: 515
GlyphClass: 2
Flags: HMW
AnchorPoint: "Anchor-1" 258 -210 basechar 0
AnchorPoint: "Anchor-0" 258 756 basechar 0
LayerCount: 2
Fore
SplineSet
417 724 m 1
 300 596 l 2
 292 587 285 582 269 582 c 2
 216 582 l 1
 290 702 l 2
 299 717 306 724 329 724 c 2
 417 724 l 1
508 506 m 1
 225 -150 l 2
 220 -163 212 -172 193 -172 c 2
 127 -172 l 1
 220 30 l 1
 10 506 l 1
 88 506 l 2
 103 506 111 498 115 488 c 2
 250 169 l 2
 255 155 260 140 264 125 c 1
 269 142 274 157 279 170 c 2
 410 488 l 2
 414 498 424 506 437 506 c 2
 508 506 l 1
EndSplineSet
Validated: 1
EndChar

StartChar: thorn
Encoding: 254 254 222
Width: 560
GlyphClass: 2
Flags: HMW
AnchorPoint: "Anchor-1" 254 -210 basechar 0
AnchorPoint: "Anchor-0" 148 756 basechar 0
LayerCount: 2
Fore
SplineSet
296 444 m 0
 229 444 192 409 160 367 c 1
 160 122 l 1
 187 85 220 62 278 62 c 0
 382 62 426 144 426 256 c 0
 426 360 397 444 296 444 c 0
298 -7 m 0
 231 -7 192 21 160 59 c 1
 160 -172 l 1
 70 -172 l 1
 70 736 l 1
 160 736 l 1
 160 434 l 1
 198 478 249 514 326 514 c 0
 429 514 480 450 504 368 c 128
 513 336 518 299 518 256 c 0
 518 138 469 54 390 14 c 128
 363 0 333 -7 298 -7 c 0
EndSplineSet
Validated: 1
EndChar

StartChar: ydieresis
Encoding: 255 255 223
Width: 515
GlyphClass: 2
Flags: HMW
AnchorPoint: "Anchor-1" 258 -210 basechar 0
AnchorPoint: "Anchor-0" 258 756 basechar 0
LayerCount: 2
Fore
SplineSet
232 644 m 256
 232 612 207 589 175 589 c 0
 150 589 133 606 124 623 c 0
 121 629 119 636 119 644 c 256
 119 670 136 688 154 697 c 128
 161 700 168 702 175 702 c 0
 207 702 232 676 232 644 c 256
310 644 m 256
 310 676 334 702 366 702 c 256
 398 702 423 676 423 644 c 256
 423 613 397 589 366 589 c 256
 334 589 310 613 310 644 c 256
508 506 m 1
 225 -150 l 2
 220 -163 212 -172 193 -172 c 2
 127 -172 l 1
 220 30 l 1
 10 506 l 1
 88 506 l 2
 103 506 111 498 115 488 c 2
 250 169 l 2
 255 155 260 140 264 125 c 1
 269 142 274 157 279 170 c 2
 410 488 l 2
 414 498 424 506 437 506 c 2
 508 506 l 1
EndSplineSet
Validated: 1
EndChar

StartChar: dotlessi
Encoding: 305 305 224
Width: 240
GlyphClass: 2
Flags: HMW
TopAccentHorizontal: 120
LayerCount: 2
Fore
SplineSet
164 506 m 1
 164 0 l 1
 76 0 l 1
 76 506 l 1
 164 506 l 1
EndSplineSet
Validated: 1
EndChar

StartChar: uni0237
Encoding: 567 567 225
Width: 240
GlyphClass: 2
Flags: HMW
TopAccentHorizontal: 120
LayerCount: 2
Fore
SplineSet
4 -114 m 0
 57 -114 76 -91 76 -38 c 2
 76 506 l 1
 164 506 l 1
 164 -38 l 2
 164 -130 114 -182 21 -182 c 0
 -2 -182 -18 -178 -36 -172 c 1
 -32 -124 l 1
 -30 -115 -23 -114 -12 -114 c 128
 -6 -114 -6 -114 4 -114 c 0
EndSplineSet
Validated: 1
EndChar

StartChar: uni0384
Encoding: 900 900 227
Width: 400
GlyphClass: 2
Flags: HMW
LayerCount: 2
Fore
SplineSet
172 574 m 1
 206 746 l 1
 262 746 l 2
 276 746 283 739 283 728 c 0
 283 724 282 719 280 714 c 2
 226 574 l 1
 172 574 l 1
EndSplineSet
Validated: 1
EndChar

StartChar: uni0385
Encoding: 901 901 228
Width: 400
GlyphClass: 2
Flags: HMW
LayerCount: 2
Fore
SplineSet
172 577 m 1
 206 750 l 1
 261 750 l 2
 274 750 282 742 282 731 c 0
 282 727 281 723 279 718 c 2
 224 577 l 1
 172 577 l 1
346 690 m 128
 373 690 394 668 394 641 c 128
 394 614 373 594 346 594 c 128
 319 594 299 614 299 641 c 0
 299 668 319 690 346 690 c 128
94 690 m 256
 121 690 143 668 143 641 c 128
 143 614 121 594 94 594 c 256
 68 594 48 615 48 641 c 0
 48 667 68 690 94 690 c 256
EndSplineSet
Validated: 1
EndChar

StartChar: uni0386
Encoding: 902 902 229
Width: 677
GlyphClass: 2
Flags: HMW
AnchorPoint: "Anchor-1" 338 -35 basechar 0
AnchorPoint: "Anchor-0" 338 756 basechar 0
LayerCount: 2
Fore
SplineSet
68 554 m 1
 102 726 l 1
 158 726 l 2
 172 726 179 719 179 708 c 0
 179 704 178 699 176 694 c 2
 122 554 l 1
 68 554 l 1
472 266 m 1
 360 558 l 2
 352 578 345 600 338 624 c 1
 331 597 324 575 317 557 c 2
 204 266 l 1
 472 266 l 1
674 0 m 1
 599 0 l 2
 581 0 571 10 566 23 c 2
 499 196 l 1
 178 196 l 1
 110 23 l 2
 106 11 94 0 78 0 c 2
 3 0 l 1
 290 716 l 1
 388 716 l 1
 674 0 l 1
EndSplineSet
Validated: 1
EndChar

StartChar: uni0387
Encoding: 903 903 230
Width: 260
GlyphClass: 2
Flags: HMW
LayerCount: 2
Fore
SplineSet
56 296 m 0
 56 332 76 354 101 366 c 128
 110 370 119 372 129 372 c 0
 173 372 204 339 204 296 c 0
 204 254 171 222 129 222 c 256
 87 222 56 254 56 296 c 0
EndSplineSet
Validated: 1
EndChar

StartChar: uni0388
Encoding: 904 904 231
Width: 655
GlyphClass: 2
Flags: HMW
AnchorPoint: "Anchor-1" 328 -35 basechar 0
AnchorPoint: "Anchor-0" 328 756 basechar 0
LayerCount: 2
Fore
SplineSet
4 554 m 1
 38 726 l 1
 94 726 l 2
 108 726 115 719 115 708 c 0
 115 704 114 699 112 694 c 2
 58 554 l 1
 4 554 l 1
612 79 m 1
 611 0 l 1
 170 0 l 1
 170 716 l 1
 611 716 l 1
 611 638 l 1
 266 638 l 1
 266 400 l 1
 546 400 l 1
 546 324 l 1
 266 324 l 1
 266 79 l 1
 612 79 l 1
EndSplineSet
Validated: 1
EndChar

StartChar: uni0389
Encoding: 905 905 232
Width: 766
GlyphClass: 2
Flags: HMW
AnchorPoint: "Anchor-1" 383 -35 basechar 0
AnchorPoint: "Anchor-0" 383 756 basechar 0
LayerCount: 2
Fore
SplineSet
-72 554 m 1
 -38 726 l 1
 18 726 l 2
 32 726 39 719 39 708 c 0
 39 704 38 699 36 694 c 2
 -18 554 l 1
 -72 554 l 1
674 716 m 1
 674 0 l 1
 577 0 l 1
 577 326 l 1
 190 326 l 1
 190 0 l 1
 94 0 l 1
 94 716 l 1
 190 716 l 1
 190 397 l 1
 577 397 l 1
 577 716 l 1
 674 716 l 1
EndSplineSet
Validated: 1
EndChar

StartChar: uni038A
Encoding: 906 906 233
Width: 320
GlyphClass: 2
Flags: HMW
AnchorPoint: "Anchor-1" 140 -35 basechar 0
AnchorPoint: "Anchor-0" 140 756 basechar 0
LayerCount: 2
Fore
SplineSet
112 635 m 1
 20 635 l 1
 20 676 l 1
 -27 554 l 1
 -81 554 l 1
 -47 726 l 1
 9 726 l 2
 19 726 26 722 29 716 c 1
 300 716 l 1
 300 635 l 1
 208 635 l 1
 208 81 l 1
 300 81 l 1
 300 0 l 1
 20 0 l 1
 20 81 l 1
 112 81 l 1
 112 635 l 1
EndSplineSet
Validated: 1
EndChar

StartChar: uni038C
Encoding: 908 908 234
Width: 799
GlyphClass: 2
Flags: HMW
AnchorPoint: "Anchor-1" 400 -35 basechar 0
AnchorPoint: "Anchor-0" 400 756 basechar 0
LayerCount: 2
Fore
SplineSet
-58 554 m 1
 -24 726 l 1
 32 726 l 2
 46 726 53 719 53 708 c 0
 53 704 52 699 50 694 c 2
 -4 554 l 1
 -58 554 l 1
754 358 m 256
 754 245 713 154 656 94 c 128
 599 34 512 -8 400 -8 c 256
 287 -8 201 34 144 94 c 128
 86 154 47 244 47 358 c 256
 47 530 133 646 256 697 c 128
 299 715 347 724 400 724 c 256
 572 724 679 632 728 506 c 128
 745 461 754 411 754 358 c 256
654 358 m 256
 654 490 599 583 505 621 c 128
 474 634 439 640 400 640 c 256
 272 640 197 573 164 476 c 128
 152 441 146 402 146 358 c 256
 146 225 201 135 295 96 c 128
 326 83 361 76 400 76 c 256
 527 76 603 144 636 240 c 128
 648 275 654 314 654 358 c 256
EndSplineSet
Validated: 1
EndChar

StartChar: uni038E
Encoding: 910 910 235
Width: 623
GlyphClass: 2
Flags: HMW
AnchorPoint: "Anchor-1" 312 -35 basechar 0
AnchorPoint: "Anchor-0" 312 756 basechar 0
LayerCount: 2
Fore
SplineSet
-136 554 m 1
 -102 726 l 1
 -46 726 l 2
 -32 726 -25 719 -25 708 c 0
 -25 704 -26 699 -28 694 c 2
 -82 554 l 1
 -136 554 l 1
360 286 m 1
 360 0 l 1
 264 0 l 1
 264 286 l 1
 1 716 l 1
 86 716 l 2
 105 716 113 706 120 694 c 2
 284 416 l 1
 293 398 292 398 300 383 c 128
 305 373 310 363 313 352 c 1
 322 376 330 393 341 416 c 1
 504 694 l 2
 509 705 522 716 538 716 c 2
 623 716 l 1
 360 286 l 1
EndSplineSet
Validated: 1
EndChar

StartChar: uni038F
Encoding: 911 911 236
Width: 806
GlyphClass: 2
Flags: HMW
AnchorPoint: "Anchor-1" 403 -35 basechar 0
AnchorPoint: "Anchor-0" 403 756 basechar 0
LayerCount: 2
Fore
SplineSet
-30 554 m 1
 4 726 l 1
 60 726 l 2
 74 726 81 719 81 708 c 0
 81 704 80 699 78 694 c 2
 24 554 l 1
 -30 554 l 1
535 75 m 1
 559 78 585 82 610 82 c 2
 754 82 l 1
 754 32 l 2
 754 12 740 0 720 0 c 2
 460 0 l 1
 460 112 l 1
 551 130 610 204 636 289 c 128
 646 320 651 353 651 388 c 0
 651 513 589 591 497 624 c 128
 467 635 435 640 402 640 c 256
 286 640 210 582 174 499 c 128
 160 468 153 431 153 388 c 0
 153 276 201 191 268 144 c 0
 292 128 317 117 344 112 c 1
 344 0 l 1
 84 0 l 2
 65 0 50 13 50 32 c 2
 50 82 l 1
 194 82 l 2
 220 82 246 79 269 75 c 1
 173 109 104 183 72 282 c 128
 61 315 56 351 56 390 c 0
 56 497 101 578 158 632 c 128
 214 685 297 724 402 724 c 256
 507 724 590 685 646 632 c 128
 703 578 748 496 748 390 c 0
 748 265 692 175 620 120 c 128
 594 100 566 85 535 75 c 1
EndSplineSet
Validated: 1
EndChar

StartChar: uni0391
Encoding: 913 913 238
Width: 677
GlyphClass: 2
Flags: HMW
TopAccentHorizontal: 338
TopRightVertex: 2  275,-100 375,-150
BottomRightVertex: 1  0,50
AnchorPoint: "Anchor-1" 337 -35 basechar 0
AnchorPoint: "Anchor-0" 338 756 basechar 0
LayerCount: 2
Fore
SplineSet
472 266 m 1
 360 558 l 2
 352 578 345 600 338 624 c 1
 331 597 324 575 317 557 c 2
 204 266 l 1
 472 266 l 1
674 0 m 1
 599 0 l 2
 581 0 571 10 566 23 c 2
 499 196 l 1
 178 196 l 1
 110 23 l 2
 106 11 94 0 78 0 c 2
 3 0 l 1
 290 716 l 1
 388 716 l 1
 674 0 l 1
EndSplineSet
Validated: 1
EndChar

StartChar: uni0392
Encoding: 914 914 239
Width: 646
GlyphClass: 2
Flags: HMW
TopAccentHorizontal: 297
AnchorPoint: "Anchor-1" 320 -35 basechar 0
AnchorPoint: "Anchor-0" 297 756 basechar 0
LayerCount: 2
Fore
SplineSet
501 206 m 0
 501 291 435 326 343 326 c 2
 188 326 l 1
 188 77 l 1
 343 77 l 2
 437 77 501 115 501 206 c 0
476 518 m 0
 476 611 418 640 320 640 c 2
 188 640 l 1
 188 396 l 1
 316 396 l 2
 407 396 476 429 476 518 c 0
438 368 m 1
 530 351 596 305 596 204 c 0
 596 99 533 41 451 15 c 128
 420 5 384 0 344 0 c 2
 92 0 l 1
 92 716 l 1
 320 716 l 2
 464 716 572 670 572 530 c 0
 572 464 538 423 497 396 c 0
 480 384 461 375 438 368 c 1
EndSplineSet
Validated: 1
EndChar

StartChar: uni0393
Encoding: 915 915 240
Width: 548
GlyphClass: 2
Flags: HMW
TopAccentHorizontal: 255
TopRightVertex: 1  662,50
BottomRightVertex: 1  0,-150
AnchorPoint: "Anchor-1" 140 -35 basechar 0
AnchorPoint: "Anchor-0" 255 756 basechar 0
LayerCount: 2
Fore
SplineSet
533 640 m 1
 188 640 l 1
 188 0 l 1
 92 0 l 1
 92 716 l 1
 533 716 l 1
 533 640 l 1
EndSplineSet
Validated: 1
EndChar

StartChar: uni0394
Encoding: 916 916 241
Width: 678
GlyphClass: 2
Flags: HMW
TopAccentHorizontal: 340
TopRightVertex: 2  275,-100 375,-150
AnchorPoint: "Anchor-1" 339 -35 basechar 0
AnchorPoint: "Anchor-0" 340 756 basechar 0
LayerCount: 2
Fore
SplineSet
114 78 m 1
 555 78 l 1
 359 558 l 2
 350 580 343 606 336 632 c 1
 329 606 323 580 314 557 c 2
 114 78 l 1
652 87 m 2
 659 70 664 51 664 28 c 2
 664 0 l 1
 14 0 l 1
 14 28 l 2
 14 46 18 65 25 85 c 1
 291 716 l 1
 389 716 l 1
 652 87 l 2
EndSplineSet
Validated: 1
EndChar

StartChar: uni0395
Encoding: 917 917 242
Width: 577
GlyphClass: 2
Flags: HMW
TopAccentHorizontal: 318
AnchorPoint: "Anchor-1" 329 -35 basechar 0
AnchorPoint: "Anchor-0" 318 756 basechar 0
LayerCount: 2
Fore
SplineSet
534 79 m 1
 533 0 l 1
 92 0 l 1
 92 716 l 1
 533 716 l 1
 533 638 l 1
 188 638 l 1
 188 400 l 1
 468 400 l 1
 468 324 l 1
 188 324 l 1
 188 79 l 1
 534 79 l 1
EndSplineSet
Validated: 1
EndChar

StartChar: uni0396
Encoding: 918 918 243
Width: 602
GlyphClass: 2
Flags: HMW
TopAccentHorizontal: 310
AnchorPoint: "Anchor-1" 312 -35 basechar 0
AnchorPoint: "Anchor-0" 310 756 basechar 0
LayerCount: 2
Fore
SplineSet
570 680 m 2
 570 669 567 659 560 648 c 2
 154 79 l 1
 564 79 l 1
 564 0 l 1
 26 0 l 1
 26 38 l 2
 26 49 31 59 36 66 c 2
 442 638 l 1
 46 638 l 1
 46 716 l 1
 570 716 l 1
 570 680 l 2
EndSplineSet
Validated: 1
EndChar

StartChar: uni0397
Encoding: 919 919 244
Width: 763
GlyphClass: 2
Flags: HMW
TopAccentHorizontal: 384
AnchorPoint: "Anchor-1" 385 -35 basechar 0
AnchorPoint: "Anchor-0" 384 756 basechar 0
LayerCount: 2
Fore
SplineSet
672 716 m 1
 672 0 l 1
 575 0 l 1
 575 326 l 1
 188 326 l 1
 188 0 l 1
 92 0 l 1
 92 716 l 1
 188 716 l 1
 188 397 l 1
 575 397 l 1
 575 716 l 1
 672 716 l 1
EndSplineSet
Validated: 1
EndChar

StartChar: uni0398
Encoding: 920 920 245
Width: 800
GlyphClass: 2
Flags: HMW
TopAccentHorizontal: 400
AnchorPoint: "Anchor-1" 400 -35 basechar 0
AnchorPoint: "Anchor-0" 400 756 basechar 0
LayerCount: 2
Fore
SplineSet
260 402 m 1
 540 402 l 1
 540 322 l 1
 260 322 l 1
 260 402 l 1
754 358 m 256
 754 245 713 154 656 94 c 128
 599 34 512 -8 400 -8 c 256
 287 -8 201 34 144 94 c 128
 86 154 47 244 47 358 c 256
 47 530 133 646 256 697 c 128
 299 715 347 724 400 724 c 256
 572 724 679 632 728 506 c 128
 745 461 754 411 754 358 c 256
654 358 m 256
 654 490 599 583 505 621 c 128
 474 634 439 640 400 640 c 256
 272 640 197 573 164 476 c 128
 152 441 146 402 146 358 c 256
 146 225 201 135 295 96 c 128
 326 83 361 76 400 76 c 256
 527 76 603 144 636 240 c 128
 648 275 654 314 654 358 c 256
EndSplineSet
Validated: 1
EndChar

StartChar: uni0399
Encoding: 921 921 246
Width: 320
GlyphClass: 2
Flags: HMW
TopAccentHorizontal: 162
AnchorPoint: "Anchor-1" 160 -35 basechar 0
AnchorPoint: "Anchor-0" 162 756 basechar 0
LayerCount: 2
Fore
SplineSet
112 630 m 1
 20 630 l 1
 20 716 l 1
 300 716 l 1
 300 630 l 1
 208 630 l 1
 208 86 l 1
 300 86 l 1
 300 0 l 1
 20 0 l 1
 20 86 l 1
 112 86 l 1
 112 630 l 1
EndSplineSet
Validated: 1
EndChar

StartChar: uni039A
Encoding: 922 922 247
Width: 662
GlyphClass: 2
Flags: HMW
TopAccentHorizontal: 350
AnchorPoint: "Anchor-1" 328 -35 basechar 0
AnchorPoint: "Anchor-0" 350 756 basechar 0
LayerCount: 2
Fore
SplineSet
664 0 m 1
 580 0 l 2
 562 0 550 3 542 12 c 0
 540 15 539 17 536 20 c 2
 288 305 l 2
 274 322 264 328 232 328 c 2
 188 328 l 1
 188 0 l 1
 92 0 l 1
 92 716 l 1
 188 716 l 1
 188 402 l 1
 224 402 l 2
 251 402 263 409 276 424 c 2
 514 694 l 1
 526 709 537 716 562 716 c 2
 644 716 l 1
 372 408 l 2
 360 394 348 383 332 376 c 1
 353 369 366 357 378 340 c 1
 664 0 l 1
EndSplineSet
Validated: 1
EndChar

StartChar: uni039B
Encoding: 923 923 248
Width: 676
GlyphClass: 2
Flags: HMW
TopAccentHorizontal: 338
AnchorPoint: "Anchor-1" 338 -35 basechar 0
AnchorPoint: "Anchor-0" 338 756 basechar 0
LayerCount: 2
Fore
SplineSet
674 0 m 1
 590 0 l 2
 572 0 563 10 558 23 c 2
 355 528 l 1
 347 552 337 581 331 607 c 1
 326 578 319 552 309 528 c 2
 107 23 l 2
 103 11 90 0 74 0 c 2
 2 0 l 1
 294 716 l 1
 382 716 l 1
 674 0 l 1
EndSplineSet
Validated: 1
EndChar

StartChar: uni039C
Encoding: 924 924 249
Width: 928
GlyphClass: 2
Flags: HMW
TopAccentHorizontal: 466
AnchorPoint: "Anchor-1" 464 -35 basechar 0
AnchorPoint: "Anchor-0" 466 756 basechar 0
LayerCount: 2
Fore
SplineSet
837 716 m 1
 837 0 l 1
 752 0 l 1
 752 526 l 2
 752 540 754 560 754 574 c 1
 508 126 l 2
 500 111 489 104 474 103 c 2
 460 103 l 2
 444 104 432 111 424 126 c 2
 174 576 l 1
 175 559 176 542 176 526 c 2
 176 0 l 1
 92 0 l 1
 92 716 l 1
 163 716 l 2
 183 716 189 715 196 700 c 2
 444 259 l 2
 452 243 461 227 466 208 c 1
 473 227 480 244 489 260 c 2
 732 700 l 2
 740 715 745 716 766 716 c 2
 837 716 l 1
EndSplineSet
Validated: 1
EndChar

StartChar: uni039D
Encoding: 925 925 250
Width: 763
GlyphClass: 2
Flags: HMW
TopAccentHorizontal: 389
AnchorPoint: "Anchor-1" 382 -35 basechar 0
AnchorPoint: "Anchor-0" 389 756 basechar 0
LayerCount: 2
Fore
SplineSet
590 160 m 1
 589 176 587 193 587 209 c 2
 587 716 l 1
 672 716 l 1
 672 0 l 1
 624 0 l 2
 606 0 597 6 589 18 c 2
 174 558 l 1
 175 544 176 524 176 510 c 2
 176 0 l 1
 92 0 l 1
 92 716 l 1
 142 716 l 2
 161 716 167 711 175 700 c 2
 590 160 l 1
EndSplineSet
Validated: 1
EndChar

StartChar: uni039E
Encoding: 926 926 251
Width: 619
GlyphClass: 2
Flags: HMW
TopAccentHorizontal: 310
AnchorPoint: "Anchor-1" 310 -35 basechar 0
AnchorPoint: "Anchor-0" 310 756 basechar 0
LayerCount: 2
Fore
SplineSet
579 716 m 1
 579 634 l 1
 42 634 l 1
 42 716 l 1
 579 716 l 1
579 82 m 1
 579 0 l 1
 42 0 l 1
 42 82 l 1
 579 82 l 1
166 404 m 1
 454 404 l 1
 454 320 l 1
 166 320 l 1
 166 404 l 1
EndSplineSet
Validated: 1
EndChar

StartChar: uni039F
Encoding: 927 927 252
Width: 800
GlyphClass: 2
Flags: HMW
TopAccentHorizontal: 401
AnchorPoint: "Anchor-1" 400 -35 basechar 0
AnchorPoint: "Anchor-0" 401 756 basechar 0
LayerCount: 2
Fore
SplineSet
754 358 m 256
 754 245 713 154 656 94 c 128
 599 34 512 -8 400 -8 c 256
 287 -8 201 34 144 94 c 128
 86 154 47 244 47 358 c 256
 47 530 133 646 256 697 c 128
 299 715 347 724 400 724 c 256
 572 724 679 632 728 506 c 128
 745 461 754 411 754 358 c 256
654 358 m 256
 654 490 599 583 505 621 c 128
 474 634 439 640 400 640 c 256
 272 640 197 573 164 476 c 128
 152 441 146 402 146 358 c 256
 146 225 201 135 295 96 c 128
 326 83 361 76 400 76 c 256
 527 76 603 144 636 240 c 128
 648 275 654 314 654 358 c 256
EndSplineSet
Validated: 1
EndChar

StartChar: uni03A0
Encoding: 928 928 253
Width: 763
GlyphClass: 2
Flags: HMW
TopAccentHorizontal: 384
AnchorPoint: "Anchor-1" 382 -35 basechar 0
AnchorPoint: "Anchor-0" 384 756 basechar 0
LayerCount: 2
Fore
SplineSet
672 0 m 1
 575 0 l 1
 575 640 l 1
 188 640 l 1
 188 0 l 1
 92 0 l 1
 92 716 l 1
 672 716 l 1
 672 0 l 1
EndSplineSet
Validated: 1
EndChar

StartChar: uni03A1
Encoding: 929 929 254
Width: 600
GlyphClass: 2
Flags: HMW
TopAccentHorizontal: 294
TopRightVertex: 1  662,50
BottomRightVertex: 1  0,-150
AnchorPoint: "Anchor-1" 140 -35 basechar 0
AnchorPoint: "Anchor-0" 294 756 basechar 0
LayerCount: 2
Fore
SplineSet
474 494 m 0
 474 593 408 640 303 640 c 2
 188 640 l 1
 188 345 l 1
 303 345 l 2
 404 345 474 395 474 494 c 0
303 716 m 2
 463 716 570 651 570 494 c 128
 570 380 505 315 418 285 c 128
 385 274 346 268 303 268 c 2
 188 268 l 1
 188 0 l 1
 92 0 l 1
 92 716 l 1
 303 716 l 2
EndSplineSet
Validated: 1
EndChar

StartChar: uni03A3
Encoding: 931 931 255
Width: 608
GlyphClass: 2
Flags: HMW
TopAccentHorizontal: 272
AnchorPoint: "Anchor-1" 268 -35 basechar 0
AnchorPoint: "Anchor-0" 272 756 basechar 0
LayerCount: 2
Fore
SplineSet
138 72 m 1
 159 74 182 76 204 76 c 2
 570 76 l 1
 570 0 l 1
 33 0 l 1
 33 36 l 2
 33 52 43 68 51 77 c 2
 286 358 l 1
 45 646 l 2
 39 653 33 662 33 674 c 2
 33 716 l 1
 570 716 l 1
 570 640 l 1
 214 640 l 2
 184 640 161 643 136 647 c 1
 164 633 183 616 202 594 c 1
 346 413 l 2
 357 401 363 391 366 384 c 0
 370 377 372 371 372 366 c 0
 372 343 361 332 346 315 c 1
 184 114 l 2
 168 95 157 83 138 72 c 1
EndSplineSet
Validated: 1
EndChar

StartChar: uni03A4
Encoding: 932 932 256
Width: 590
GlyphClass: 2
Flags: HMW
TopAccentHorizontal: 297
BottomRightVertex: 1  0,-110
AnchorPoint: "Anchor-1" 297 -35 basechar 0
AnchorPoint: "Anchor-0" 297 756 basechar 0
LayerCount: 2
Fore
SplineSet
576 635 m 1
 344 635 l 1
 344 0 l 1
 248 0 l 1
 248 635 l 1
 15 635 l 1
 15 716 l 1
 576 716 l 1
 576 635 l 1
EndSplineSet
Validated: 1
EndChar

StartChar: uni03A5
Encoding: 933 933 257
Width: 624
GlyphClass: 2
Flags: HMW
TopAccentHorizontal: 313
TopRightVertex: 1  674,50
BottomRightVertex: 1  0,-120
AnchorPoint: "Anchor-1" 312 -35 basechar 0
AnchorPoint: "Anchor-0" 313 756 basechar 0
LayerCount: 2
Fore
SplineSet
360 286 m 1
 360 0 l 1
 264 0 l 1
 264 286 l 1
 1 716 l 1
 86 716 l 2
 105 716 113 706 120 694 c 2
 284 416 l 1
 293 398 292 398 300 383 c 128
 305 373 310 363 313 352 c 1
 322 376 330 393 341 416 c 1
 504 694 l 2
 509 705 522 716 538 716 c 2
 623 716 l 1
 360 286 l 1
EndSplineSet
Validated: 1
EndChar

StartChar: uni03A6
Encoding: 934 934 258
Width: 832
GlyphClass: 2
Flags: HMW
TopAccentHorizontal: 416
AnchorPoint: "Anchor-1" 416 -35 basechar 0
AnchorPoint: "Anchor-0" 416 756 basechar 0
LayerCount: 2
Fore
SplineSet
462 115 m 1
 540 115 598 147 638 188 c 128
 676 228 704 286 704 360 c 128
 704 473 642 548 562 584 c 128
 533 597 499 604 462 605 c 1
 462 115 l 1
370 605 m 1
 253 605 179 539 146 454 c 128
 135 425 129 393 129 360 c 128
 129 247 189 170 270 135 c 0
 299 122 333 116 370 115 c 1
 370 605 l 1
462 681 m 1
 570 681 653 641 708 586 c 128
 760 534 798 458 798 360 c 256
 798 262 760 186 708 134 c 128
 653 79 570 40 462 40 c 1
 462 -58 l 1
 370 -58 l 1
 370 40 l 1
 262 40 180 79 125 134 c 128
 74 186 36 262 36 360 c 256
 36 512 121 609 232 654 c 128
 273 671 319 680 370 681 c 1
 370 774 l 1
 462 774 l 1
 462 681 l 1
EndSplineSet
Validated: 1
EndChar

StartChar: uni03A7
Encoding: 935 935 259
Width: 649
GlyphClass: 2
Flags: HMW
TopAccentHorizontal: 324
AnchorPoint: "Anchor-1" 324 -35 basechar 0
AnchorPoint: "Anchor-0" 324 756 basechar 0
LayerCount: 2
Fore
SplineSet
638 0 m 1
 542 0 l 2
 528 0 520 10 514 18 c 2
 322 320 l 1
 319 312 317 305 314 299 c 1
 126 18 l 2
 120 9 114 0 100 0 c 2
 10 0 l 1
 256 368 l 1
 20 716 l 1
 116 716 l 2
 130 716 136 712 141 703 c 2
 328 416 l 1
 331 423 334 430 338 439 c 1
 515 701 l 2
 520 709 526 716 538 716 c 2
 630 716 l 1
 392 372 l 1
 638 0 l 1
EndSplineSet
Validated: 1
EndChar

StartChar: uni03A8
Encoding: 936 936 260
Width: 816
GlyphClass: 2
Flags: HMW
TopAccentHorizontal: 408
AnchorPoint: "Anchor-1" 408 -35 basechar 0
AnchorPoint: "Anchor-0" 408 756 basechar 0
LayerCount: 2
Fore
SplineSet
668 682 m 2
 668 701 682 716 701 716 c 2
 766 716 l 1
 766 460 l 2
 766 320 695 237 590 199 c 128
 551 185 507 177 456 175 c 1
 456 0 l 1
 358 0 l 1
 358 175 l 1
 213 181 111 238 70 346 c 0
 57 380 50 417 50 460 c 2
 50 716 l 1
 114 716 l 2
 135 716 147 702 147 682 c 2
 147 460 l 2
 147 321 222 259 358 254 c 1
 358 716 l 1
 456 716 l 1
 456 254 l 1
 592 259 668 321 668 460 c 2
 668 682 l 2
EndSplineSet
Validated: 1
EndChar

StartChar: uni03A9
Encoding: 937 937 261
Width: 808
GlyphClass: 2
Flags: HMW
TopAccentHorizontal: 404
AnchorPoint: "Anchor-1" 406 -35 basechar 0
AnchorPoint: "Anchor-0" 404 756 basechar 0
LayerCount: 2
Fore
SplineSet
537 75 m 1
 561 78 587 82 612 82 c 2
 756 82 l 1
 756 32 l 2
 756 12 742 0 722 0 c 2
 462 0 l 1
 462 112 l 1
 553 130 612 204 638 289 c 128
 648 320 653 353 653 388 c 0
 653 513 591 591 499 624 c 128
 469 635 437 640 404 640 c 256
 288 640 212 582 176 499 c 128
 162 468 155 431 155 388 c 0
 155 276 203 191 270 144 c 0
 294 128 319 117 346 112 c 1
 346 0 l 1
 86 0 l 2
 67 0 52 13 52 32 c 2
 52 82 l 1
 196 82 l 2
 222 82 248 79 271 75 c 1
 175 109 106 183 74 282 c 128
 63 315 58 351 58 390 c 0
 58 497 103 578 160 632 c 128
 216 685 299 724 404 724 c 256
 509 724 592 685 648 632 c 128
 705 578 750 496 750 390 c 0
 750 265 694 175 622 120 c 128
 596 100 568 85 537 75 c 1
EndSplineSet
Validated: 1
EndChar

StartChar: uni03AA
Encoding: 938 938 262
Width: 320
GlyphClass: 2
Flags: HMW
AnchorPoint: "Anchor-1" 140 -35 basechar 0
AnchorPoint: "Anchor-0" 140 756 basechar 0
LayerCount: 2
Fore
SplineSet
75 794 m 132
 58 779 58 779 42 779 c 4
 15 779 14 780 -2 796 c 132
 -18 812 -18 812 -18 828 c 4
 -18 854 -18 855 -2 872 c 132
 14 889 15 889 31 889 c 4
 54 889 64 883 76 872 c 132
 92 857 92 857 92 833 c 4
 92 809 92 809 75 794 c 132
246 889 m 4
 280 889 280 889 297 855 c 132
 302 845 302 846 302 834 c 4
 302 803 277 779 246 779 c 132
 225 779 224 779 208 794 c 132
 192 809 192 809 192 827 c 4
 192 869 192 869 225 884 c 4
 234 888 234 889 246 889 c 4
EndSplineSet
Refer: 74 73 N 1 0 0 1 0 0 3
Validated: 1
EndChar

StartChar: uni03AB
Encoding: 939 939 263
Width: 624
GlyphClass: 2
Flags: HMW
AnchorPoint: "Anchor-1" 312 -35 basechar 0
AnchorPoint: "Anchor-0" 312 756 basechar 0
LayerCount: 2
Fore
SplineSet
246 794 m 132
 229 779 229 779 213 779 c 4
 186 779 186 780 170 796 c 132
 154 812 153 812 153 828 c 4
 153 854 153 855 169 872 c 132
 185 889 186 889 202 889 c 4
 225 889 235 883 247 872 c 132
 263 857 263 857 263 833 c 4
 263 809 263 809 246 794 c 132
416 889 m 4
 450 889 451 889 468 855 c 132
 473 845 473 846 473 834 c 4
 473 803 448 779 417 779 c 132
 396 779 395 779 379 794 c 132
 363 809 363 809 363 827 c 4
 363 869 363 869 396 884 c 4
 405 888 404 889 416 889 c 4
EndSplineSet
Refer: 90 89 N 1 0 0 1 0 0 3
Validated: 1
EndChar

StartChar: uni03B1
Encoding: 945 945 269
Width: 592
GlyphClass: 2
Flags: HMW
TopAccentHorizontal: 266
AnchorPoint: "Anchor-3" 266 560 basechar 0
AnchorPoint: "Anchor-1" 340 -35 basechar 0
LayerCount: 2
Fore
SplineSet
412 355 m 1
 391 403 351 446 282 446 c 0
 206 446 165 397 146 336 c 128
 138 311 134 281 134 247 c 0
 134 165 159 101 214 76 c 128
 230 69 246 65 263 65 c 0
 328 65 363 106 382 155 c 128
 390 176 395 200 398 228 c 2
 412 355 l 1
478 144 m 0
 478 93 506 62 556 62 c 2
 586 62 l 1
 586 26 l 2
 586 4 553 -4 526 -4 c 0
 461 -4 423 35 410 88 c 1
 378 36 323 -7 242 -7 c 0
 178 -7 131 23 100 60 c 128
 64 102 42 166 42 244 c 0
 42 368 94 458 178 497 c 128
 205 510 234 516 266 516 c 0
 343 516 391 480 424 436 c 1
 434 488 l 1
 438 500 446 506 458 506 c 2
 511 506 l 1
 484 236 l 1
 483 207 478 173 478 144 c 0
EndSplineSet
Validated: 1
EndChar

StartChar: uni03B2
Encoding: 946 946 270
Width: 557
GlyphClass: 2
Flags: HMW
TopAccentHorizontal: 277
AnchorPoint: "Anchor-3" 277 756 basechar 0
AnchorPoint: "Anchor-1" 257 -210 basechar 0
AnchorPoint: "Anchor-0" 277 756 basechar 0
LayerCount: 2
Fore
SplineSet
278 658 m 0
 174 658 160 560 160 453 c 2
 160 124 l 1
 186 87 217 62 276 62 c 0
 372 62 428 122 428 217 c 0
 428 314 365 358 268 358 c 2
 238 358 l 1
 238 428 l 1
 258 428 l 2
 337 428 388 462 388 542 c 0
 388 614 349 658 278 658 c 0
298 -7 m 0
 234 -7 192 13 160 50 c 1
 160 -184 l 1
 70 -184 l 1
 70 456 l 2
 70 615 128 724 280 724 c 0
 346 724 393 703 426 670 c 128
 454 642 472 602 472 550 c 0
 472 468 426 418 362 396 c 1
 452 377 518 316 518 208 c 0
 518 107 460 41 388 10 c 128
 361 -2 331 -7 298 -7 c 0
EndSplineSet
Validated: 1
EndChar

StartChar: uni03B3
Encoding: 947 947 271
Width: 543
GlyphClass: 2
Flags: HMW
TopAccentHorizontal: 279
AnchorPoint: "Anchor-3" 279 560 basechar 0
AnchorPoint: "Anchor-1" 280 -210 basechar 0
LayerCount: 2
Fore
SplineSet
22 476 m 2
 22 502 41 510 68 510 c 0
 99 510 126 501 149 484 c 128
 204 443 235 368 257 284 c 128
 270 235 281 179 292 116 c 1
 355 216 398 341 426 476 c 0
 428 495 436 506 454 506 c 2
 528 506 l 1
 499 371 447 253 387 147 c 128
 366 110 344 75 321 42 c 1
 321 -171 l 1
 232 -171 l 1
 232 43 l 1
 210 143 185 247 151 328 c 128
 136 364 119 392 101 412 c 128
 83 432 63 443 40 443 c 2
 22 443 l 1
 22 476 l 2
EndSplineSet
Validated: 1
EndChar

StartChar: uni03B4
Encoding: 948 948 272
Width: 551
GlyphClass: 2
Flags: HMW
TopAccentHorizontal: 272
AnchorPoint: "Anchor-3" 272 756 basechar 0
AnchorPoint: "Anchor-1" 276 -35 basechar 0
AnchorPoint: "Anchor-0" 272 756 basechar 0
LayerCount: 2
Fore
SplineSet
276 62 m 0
 349 62 391 102 411 156 c 128
 418 176 422 198 422 223 c 0
 422 307 381 357 333 394 c 128
 316 407 299 419 280 430 c 1
 217 409 167 368 144 306 c 128
 136 285 132 260 132 232 c 0
 132 156 162 102 213 76 c 128
 231 67 252 62 276 62 c 0
40 230 m 0
 40 360 117 427 222 464 c 1
 181 489 138 514 118 558 c 128
 112 571 109 587 109 604 c 256
 109 693 188 722 280 722 c 0
 341 722 401 712 452 702 c 1
 444 648 l 2
 441 633 437 628 420 628 c 0
 404 628 380 636 362 640 c 128
 337 645 304 650 275 650 c 0
 245 650 224 646 212 637 c 128
 200 628 193 617 193 604 c 0
 193 592 197 581 206 571 c 128
 228 547 262 528 294 510 c 128
 379 463 463 410 498 312 c 128
 507 287 511 258 511 226 c 0
 511 114 455 43 374 11 c 128
 345 0 312 -6 276 -6 c 0
 160 -6 88 52 56 137 c 128
 45 166 40 197 40 230 c 0
EndSplineSet
Validated: 1
EndChar

StartChar: uni03B5
Encoding: 949 949 273
Width: 453
GlyphClass: 2
Flags: HMW
TopAccentHorizontal: 246
AnchorPoint: "Anchor-3" 246 560 basechar 0
AnchorPoint: "Anchor-1" 214 -35 basechar 0
LayerCount: 2
Fore
SplineSet
260 236 m 2
 190 236 133 214 133 152 c 0
 133 105 165 81 201 69 c 128
 215 64 231 62 250 62 c 0
 303 62 338 81 366 104 c 128
 373 109 379 112 384 112 c 0
 392 112 398 109 402 104 c 2
 426 71 l 1
 388 24 327 -6 244 -6 c 0
 157 -6 90 26 58 82 c 128
 47 101 42 122 42 145 c 0
 42 211 87 248 140 266 c 1
 100 281 71 308 59 348 c 128
 56 359 54 369 54 379 c 0
 54 449 108 486 164 503 c 128
 188 510 217 514 250 514 c 0
 325 514 378 491 415 454 c 1
 395 420 l 1
 389 412 385 407 374 407 c 256
 370 407 365 409 359 413 c 128
 332 431 298 445 250 445 c 0
 201 445 163 432 147 400 c 128
 142 391 140 381 140 371 c 0
 140 314 202 294 260 294 c 2
 342 294 l 1
 342 236 l 1
 260 236 l 2
EndSplineSet
Validated: 1
EndChar

StartChar: uni03B6
Encoding: 950 950 274
Width: 392
GlyphClass: 2
Flags: HMW
TopAccentHorizontal: 234
AnchorPoint: "Anchor-3" 234 756 basechar 0
AnchorPoint: "Anchor-1" 252 -210 basechar 0
AnchorPoint: "Anchor-0" 234 756 basechar 0
LayerCount: 2
Fore
SplineSet
104 643 m 2
 83 643 68 654 68 672 c 2
 68 716 l 1
 394 716 l 1
 402 678 l 2
 404 668 401 661 396 654 c 128
 384 637 369 622 350 605 c 0
 282 540 210 471 164 383 c 128
 144 344 127 298 127 243 c 0
 127 146 187 117 262 94 c 0
 313 79 354 62 382 32 c 128
 399 14 410 -7 410 -39 c 0
 410 -92 390 -129 368 -166 c 1
 299 -138 l 1
 311 -119 326 -89 326 -58 c 0
 326 -23 303 -10 276 2 c 128
 262 8 243 14 220 21 c 0
 120 49 41 97 41 224 c 0
 41 314 76 383 116 442 c 128
 168 518 235 586 304 652 c 1
 260 647 210 643 160 643 c 2
 104 643 l 2
EndSplineSet
Validated: 1
EndChar

StartChar: uni03B7
Encoding: 951 951 275
Width: 583
GlyphClass: 2
Flags: HMW
TopAccentHorizontal: 250
AnchorPoint: "Anchor-3" 250 560 basechar 0
AnchorPoint: "Anchor-1" 142 -35 basechar 0
LayerCount: 2
Fore
SplineSet
96 369 m 2
 96 418 78 444 30 444 c 2
 9 444 l 1
 9 480 l 2
 9 502 30 511 57 511 c 0
 118 511 155 481 170 430 c 1
 210 475 268 514 348 514 c 0
 463 514 518 437 518 322 c 2
 518 -172 l 1
 429 -172 l 1
 429 322 l 2
 429 397 396 444 322 444 c 0
 260 444 217 410 186 373 c 1
 186 0 l 1
 96 0 l 1
 96 369 l 2
EndSplineSet
Validated: 1
EndChar

StartChar: uni03B8
Encoding: 952 952 276
Width: 597
GlyphClass: 2
Flags: HMW
TopAccentHorizontal: 299
AnchorPoint: "Anchor-3" 299 756 basechar 0
AnchorPoint: "Anchor-1" 299 -35 basechar 0
AnchorPoint: "Anchor-0" 299 756 basechar 0
LayerCount: 2
Fore
SplineSet
144 333 m 1
 146 241 160 173 186 129 c 128
 212 85 250 63 299 63 c 0
 347 63 384 85 410 129 c 128
 436 173 451 241 454 333 c 1
 144 333 l 1
454 395 m 1
 451 483 436 548 410 591 c 128
 384 634 346 655 299 655 c 256
 252 655 214 634 188 592 c 128
 162 550 147 484 144 395 c 1
 454 395 l 1
299 724 m 256
 383 724 439 685 476 631 c 128
 520 566 540 471 540 359 c 0
 540 199 502 70 399 16 c 128
 369 0 336 -7 299 -7 c 0
 214 -7 159 32 122 86 c 128
 77 151 56 245 56 359 c 0
 56 518 96 646 198 700 c 128
 228 716 262 724 299 724 c 256
EndSplineSet
Validated: 1
EndChar

StartChar: uni03B9
Encoding: 953 953 277
Width: 265
GlyphClass: 2
Flags: HMW
TopAccentHorizontal: 112
AnchorPoint: "Anchor-3" 112 560 basechar 0
AnchorPoint: "Anchor-1" 168 -35 basechar 0
LayerCount: 2
Fore
SplineSet
192 -6 m 0
 108 -6 67 50 67 134 c 2
 67 506 l 1
 156 506 l 1
 156 138 l 2
 156 88 177 61 226 61 c 2
 266 61 l 1
 266 33 l 2
 266 2 224 -6 192 -6 c 0
EndSplineSet
Validated: 1
EndChar

StartChar: uni03BA
Encoding: 954 954 278
Width: 508
GlyphClass: 2
Flags: HMW
TopAccentHorizontal: 254
AnchorPoint: "Anchor-3" 254 560 basechar 0
AnchorPoint: "Anchor-1" 254 -35 basechar 0
LayerCount: 2
Fore
SplineSet
160 506 m 1
 160 303 l 1
 183 303 l 2
 200 303 205 307 214 317 c 2
 374 488 l 2
 383 498 391 506 410 506 c 2
 490 506 l 1
 304 308 l 2
 295 297 285 289 274 282 c 1
 286 274 296 263 304 250 c 1
 502 0 l 1
 423 0 l 2
 405 0 396 6 389 18 c 1
 222 225 l 2
 212 237 207 242 186 242 c 2
 160 242 l 1
 160 0 l 1
 70 0 l 1
 70 506 l 1
 160 506 l 1
EndSplineSet
Validated: 1
EndChar

StartChar: uni03BB
Encoding: 955 955 279
Width: 539
GlyphClass: 2
Flags: HMW
TopAccentHorizontal: 172
TopRightVertex: 2  275,-100 375,-150
BottomRightVertex: 1  0,50
AnchorPoint: "Anchor-3" 172 756 basechar 0
AnchorPoint: "Anchor-1" 282 -35 basechar 0
AnchorPoint: "Anchor-0" 172 756 basechar 0
LayerCount: 2
Fore
SplineSet
53 690 m 2
 53 718 80 723 110 723 c 0
 182 723 223 692 243 638 c 2
 439 117 l 2
 452 82 467 62 510 62 c 2
 540 62 l 1
 540 26 l 2
 540 -1 523 -5 495 -5 c 0
 442 -5 412 12 388 42 c 0
 378 54 369 70 362 90 c 2
 272 324 l 2
 267 337 265 349 262 363 c 1
 259 350 255 338 250 326 c 2
 126 18 l 2
 122 8 113 0 98 0 c 2
 22 0 l 1
 218 464 l 1
 168 603 l 2
 158 628 148 648 119 654 c 128
 110 656 100 656 89 656 c 2
 53 656 l 1
 53 690 l 2
EndSplineSet
Validated: 1
EndChar

StartChar: uni03BC
Encoding: 956 956 280
Width: 597
GlyphClass: 2
Flags: HMW
TopAccentHorizontal: 282
AnchorPoint: "Anchor-3" 282 560 basechar 0
AnchorPoint: "Anchor-1" 322 -210 basechar 0
LayerCount: 2
Fore
SplineSet
492 137 m 2
 492 87 518 62 566 62 c 2
 594 62 l 1
 594 26 l 2
 594 4 561 -5 534 -5 c 0
 483 -5 452 19 432 52 c 0
 424 66 419 81 416 98 c 1
 383 48 335 3 260 3 c 0
 207 3 174 22 148 50 c 1
 153 25 154 -4 154 -32 c 2
 154 -172 l 1
 110 -172 l 2
 85 -172 70 -158 70 -134 c 2
 70 506 l 1
 160 506 l 1
 160 200 l 2
 160 126 193 76 266 76 c 0
 336 76 377 120 403 170 c 1
 403 506 l 1
 492 506 l 1
 492 137 l 2
EndSplineSet
Validated: 1
EndChar

StartChar: uni03BD
Encoding: 957 957 281
Width: 513
GlyphClass: 2
Flags: HMW
TopAccentHorizontal: 258
AnchorPoint: "Anchor-3" 258 560 basechar 0
AnchorPoint: "Anchor-1" 252 -35 basechar 0
LayerCount: 2
Fore
SplineSet
498 506 m 1
 454 312 373 140 272 0 c 1
 218 0 l 1
 11 506 l 1
 84 506 l 2
 97 506 109 498 112 488 c 1
 240 162 l 1
 248 139 252 117 258 94 c 1
 326 199 367 335 396 478 c 0
 398 496 407 506 424 506 c 2
 498 506 l 1
EndSplineSet
Validated: 1
EndChar

StartChar: uni03BE
Encoding: 958 958 282
Width: 394
GlyphClass: 2
Flags: HMW
TopAccentHorizontal: 228
AnchorPoint: "Anchor-3" 228 756 basechar 0
AnchorPoint: "Anchor-1" 244 -210 basechar 0
AnchorPoint: "Anchor-0" 228 756 basechar 0
LayerCount: 2
Fore
SplineSet
82 648 m 0
 57 648 46 659 46 682 c 2
 46 716 l 1
 384 716 l 1
 384 679 l 2
 384 659 368 644 348 644 c 2
 304 644 l 2
 234 644 187 612 165 564 c 128
 158 548 154 531 154 513 c 0
 154 441 218 415 297 415 c 2
 341 415 l 1
 341 344 l 1
 276 344 l 2
 189 344 130 308 130 222 c 128
 130 156 172 130 219 108 c 128
 288 76 396 65 396 -34 c 0
 396 -89 377 -128 355 -166 c 1
 286 -138 l 1
 298 -119 314 -89 314 -58 c 0
 314 -14 276 1 238 10 c 0
 161 32 91 67 58 134 c 0
 47 157 41 183 41 214 c 0
 41 303 91 359 158 384 c 1
 107 405 71 441 71 507 c 0
 71 562 103 599 135 624 c 128
 148 634 162 641 177 648 c 1
 145 648 114 648 82 648 c 0
EndSplineSet
Validated: 1
EndChar

StartChar: uni03BF
Encoding: 959 959 283
Width: 567
GlyphClass: 2
Flags: HMW
TopAccentHorizontal: 284
AnchorPoint: "Anchor-3" 284 560 basechar 0
AnchorPoint: "Anchor-1" 284 -35 basechar 0
LayerCount: 2
Fore
SplineSet
284 514 m 128
 403 514 477 452 508 362 c 0
 519 330 525 294 525 254 c 128
 525 130 472 49 384 12 c 128
 355 0 321 -7 284 -7 c 128
 163 -7 91 56 59 146 c 128
 48 178 42 214 42 254 c 128
 42 376 95 461 183 496 c 128
 213 508 247 514 284 514 c 128
134 253 m 0
 134 141 176 62 284 62 c 0
 391 62 433 142 433 253 c 128
 433 364 391 444 284 444 c 0
 174 444 134 364 134 253 c 0
EndSplineSet
Validated: 1
EndChar

StartChar: uni03C0
Encoding: 960 960 284
Width: 615
GlyphClass: 2
Flags: HMW
TopAccentHorizontal: 310
AnchorPoint: "Anchor-3" 310 560 basechar 0
AnchorPoint: "Anchor-1" 304 -35 basechar 0
LayerCount: 2
Fore
SplineSet
37 468 m 2
 37 488 52 502 72 502 c 2
 584 502 l 1
 584 460 l 2
 584 443 572 431 554 431 c 2
 481 431 l 1
 481 394 480 364 480 328 c 0
 480 261 482 207 488 154 c 128
 494 105 501 63 552 63 c 2
 570 63 l 1
 570 27 l 2
 570 4 538 -3 512 -3 c 0
 416 -3 394 73 394 172 c 0
 394 232 402 287 406 348 c 128
 408 373 409 401 410 431 c 1
 224 431 l 1
 222 331 217 243 202 164 c 128
 191 109 176 66 151 32 c 128
 135 10 114 -4 80 -4 c 0
 65 -4 43 0 43 14 c 2
 43 74 l 1
 53 74 l 2
 63 74 74 81 84 94 c 128
 94 107 103 128 112 156 c 128
 135 231 144 323 146 431 c 1
 37 431 l 1
 37 468 l 2
EndSplineSet
Validated: 1
EndChar

StartChar: uni03C1
Encoding: 961 961 285
Width: 562
GlyphClass: 2
Flags: HMW
TopAccentHorizontal: 286
AnchorPoint: "Anchor-3" 286 560 basechar 0
AnchorPoint: "Anchor-1" 252 -210 basechar 0
LayerCount: 2
Fore
SplineSet
428 256 m 0
 428 363 393 444 289 444 c 0
 223 444 182 405 164 355 c 128
 157 336 153 314 153 290 c 2
 153 132 l 1
 181 93 222 62 282 62 c 0
 386 62 428 145 428 256 c 0
302 -7 m 0
 235 -7 188 20 153 56 c 1
 153 -172 l 1
 64 -172 l 1
 64 290 l 2
 64 398 114 468 194 498 c 128
 222 508 254 514 289 514 c 0
 402 514 470 450 502 366 c 128
 514 334 520 297 520 256 c 0
 520 138 473 54 394 14 c 128
 367 0 336 -7 302 -7 c 0
EndSplineSet
Validated: 1
EndChar

StartChar: uni03C2
Encoding: 962 962 286
Width: 464
GlyphClass: 2
Flags: HMW
TopAccentHorizontal: 242
AnchorPoint: "Anchor-3" 242 560 basechar 0
AnchorPoint: "Anchor-1" 274 -210 basechar 0
LayerCount: 2
Fore
SplineSet
318 -138 m 1
 330 -119 346 -89 346 -58 c 0
 346 -14 308 0 271 10 c 0
 141 48 41 103 41 272 c 0
 41 385 97 460 178 495 c 128
 208 508 241 514 280 514 c 0
 357 514 406 488 446 448 c 1
 422 416 l 2
 418 409 414 405 404 405 c 0
 399 405 393 408 387 412 c 128
 362 430 330 445 285 445 c 0
 185 445 132 376 132 276 c 0
 132 181 173 137 241 110 c 128
 295 88 371 69 407 30 c 128
 422 14 429 -5 429 -34 c 0
 429 -88 409 -128 388 -166 c 1
 318 -138 l 1
EndSplineSet
Validated: 1
EndChar

StartChar: uni03C3
Encoding: 963 963 287
Width: 598
GlyphClass: 2
Flags: HMW
TopAccentHorizontal: 361
AnchorPoint: "Anchor-3" 361 560 basechar 0
AnchorPoint: "Anchor-1" 283 -35 basechar 0
LayerCount: 2
Fore
SplineSet
433 252 m 0
 433 337 408 415 344 435 c 1
 319 435 l 2
 192 435 134 373 134 246 c 0
 134 136 179 62 284 62 c 0
 393 62 433 139 433 252 c 0
444 435 m 1
 495 398 524 336 524 248 c 0
 524 128 471 47 385 12 c 128
 355 0 321 -7 284 -7 c 0
 166 -7 93 53 60 141 c 128
 48 172 42 208 42 248 c 128
 42 377 103 452 200 486 c 128
 235 498 274 504 319 504 c 2
 594 504 l 1
 594 462 l 2
 594 446 580 435 564 435 c 2
 444 435 l 1
EndSplineSet
Validated: 1
EndChar

StartChar: uni03C4
Encoding: 964 964 288
Width: 467
GlyphClass: 2
Flags: HMW
TopAccentHorizontal: 228
AnchorPoint: "Anchor-3" 228 560 basechar 0
AnchorPoint: "Anchor-1" 272 -35 basechar 0
LayerCount: 2
Fore
SplineSet
13 472 m 2
 13 490 25 502 44 502 c 2
 450 502 l 1
 450 466 l 2
 450 445 439 434 418 434 c 2
 258 434 l 1
 258 140 l 2
 258 90 279 63 328 63 c 2
 369 63 l 1
 369 36 l 2
 369 5 326 -4 294 -4 c 0
 211 -4 170 53 170 136 c 2
 170 434 l 1
 13 434 l 1
 13 472 l 2
EndSplineSet
Validated: 1
EndChar

StartChar: uni03C5
Encoding: 965 965 289
Width: 552
GlyphClass: 2
Flags: HMW
TopAccentHorizontal: 270
AnchorPoint: "Anchor-3" 270 560 basechar 0
AnchorPoint: "Anchor-1" 266 -35 basechar 0
LayerCount: 2
Fore
SplineSet
154 184 m 2
 154 109 199 63 274 63 c 0
 344 63 380 114 398 172 c 128
 406 199 410 232 410 272 c 0
 410 347 384 412 384 480 c 0
 384 495 393 506 408 506 c 2
 470 506 l 1
 484 431 497 359 497 272 c 0
 497 140 448 44 354 8 c 128
 326 -3 297 -8 268 -8 c 0
 142 -8 65 59 65 184 c 2
 65 506 l 1
 154 506 l 1
 154 184 l 2
EndSplineSet
Validated: 1
EndChar

StartChar: uni03C6
Encoding: 966 966 290
Width: 737
GlyphClass: 2
Flags: HMW
TopAccentHorizontal: 370
CounterMasks: 1 70
AnchorPoint: "Anchor-3" 370 560 basechar 0
AnchorPoint: "Anchor-1" 367 -210 basechar 0
LayerCount: 2
Fore
SplineSet
478 448 m 0
 426 448 408 413 408 357 c 2
 408 60 l 1
 537 60 606 139 606 268 c 0
 606 346 575 406 526 434 c 128
 510 443 495 448 478 448 c 0
324 357 m 2
 324 461 377 514 478 514 c 0
 548 514 600 482 635 443 c 128
 671 402 696 342 696 268 c 0
 696 133 626 51 527 14 c 128
 492 1 452 -6 408 -7 c 1
 408 -171 l 1
 324 -171 l 1
 324 -7 l 1
 234 -7 165 24 117 68 c 128
 72 110 40 172 40 254 c 0
 40 390 121 470 218 511 c 1
 240 475 l 2
 242 471 243 467 243 462 c 0
 243 452 238 441 231 438 c 0
 170 406 130 343 130 253 c 0
 130 162 174 102 240 75 c 128
 264 65 292 60 324 60 c 1
 324 357 l 2
EndSplineSet
Validated: 1
EndChar

StartChar: uni03C7
Encoding: 967 967 291
Width: 478
GlyphClass: 2
Flags: HMW
TopAccentHorizontal: 228
AnchorPoint: "Anchor-3" 228 560 basechar 0
AnchorPoint: "Anchor-1" 237 -210 basechar 0
LayerCount: 2
Fore
SplineSet
488 -148 m 2
 488 -174 478 -178 452 -178 c 0
 375 -178 343 -139 319 -83 c 2
 230 118 l 1
 228 98 222 79 216 63 c 1
 109 -152 l 1
 106 -163 97 -170 82 -170 c 2
 18 -170 l 1
 190 186 l 1
 99 392 l 2
 83 426 66 445 16 445 c 2
 -1 445 l 1
 -1 478 l 2
 -1 505 9 512 37 512 c 0
 112 512 150 483 174 426 c 2
 259 234 l 1
 262 254 268 272 273 288 c 1
 370 488 l 2
 374 498 383 506 397 506 c 2
 460 506 l 1
 298 167 l 1
 398 -56 l 2
 413 -89 427 -112 470 -112 c 2
 488 -112 l 1
 488 -148 l 2
EndSplineSet
Validated: 1
EndChar

StartChar: uni03C8
Encoding: 968 968 292
Width: 763
GlyphClass: 2
Flags: HMW
ItalicCorrection: 40
TopAccentHorizontal: 382
AnchorPoint: "Anchor-3" 382 756 basechar 0
AnchorPoint: "Anchor-1" 380 -210 basechar 0
AnchorPoint: "Anchor-0" 382 756 basechar 0
LayerCount: 2
Fore
SplineSet
592 476 m 0
 592 494 602 506 617 506 c 2
 680 506 l 1
 694 431 708 361 708 272 c 0
 708 88 597 6 427 -6 c 1
 427 -171 l 1
 338 -171 l 1
 338 -7 l 1
 179 2 63 72 63 238 c 2
 63 506 l 1
 124 506 l 2
 140 506 152 488 152 472 c 2
 152 238 l 2
 152 124 235 77 338 65 c 1
 338 716 l 1
 427 716 l 1
 427 65 l 1
 549 77 619 136 619 272 c 0
 619 352 601 408 592 476 c 0
EndSplineSet
Validated: 1
EndChar

StartChar: uni03C9
Encoding: 969 969 293
Width: 763
GlyphClass: 2
Flags: HMW
TopAccentHorizontal: 382
AnchorPoint: "Anchor-3" 382 560 basechar 0
AnchorPoint: "Anchor-1" 381 -35 basechar 0
LayerCount: 2
Fore
SplineSet
44 251 m 0
 44 352 77 436 113 506 c 1
 176 506 l 2
 193 506 201 495 201 481 c 0
 201 476 200 471 198 466 c 1
 174 423 152 369 140 312 c 128
 136 291 133 271 133 251 c 0
 133 186 146 135 172 101 c 128
 189 79 215 63 248 63 c 0
 318 63 337 133 337 204 c 2
 337 338 l 1
 426 338 l 1
 426 204 l 2
 426 145 441 96 477 74 c 128
 488 67 501 63 516 63 c 0
 575 63 604 109 619 158 c 128
 626 182 630 213 630 251 c 0
 630 337 597 411 566 466 c 0
 564 471 563 476 563 481 c 0
 563 495 572 506 588 506 c 2
 650 506 l 1
 686 436 720 352 720 251 c 0
 720 137 679 48 604 10 c 128
 580 -2 554 -8 527 -8 c 0
 452 -8 407 31 382 82 c 1
 357 32 311 -8 237 -8 c 0
 136 -8 82 64 58 144 c 128
 48 176 44 211 44 251 c 0
EndSplineSet
Validated: 1
EndChar

StartChar: uni03D0
Encoding: 976 976 299
Width: 567
GlyphClass: 2
Flags: HMW
TopAccentHorizontal: 284
AnchorPoint: "Anchor-1" 284 -35 basechar 0
AnchorPoint: "Anchor-0" 284 756 basechar 0
LayerCount: 2
Fore
SplineSet
440 244 m 0
 440 318 408 372 335 372 c 128
 313 372 288 366 260 354 c 2
 144 306 l 1
 147 204 162 113 228 78 c 128
 246 69 265 64 288 64 c 0
 364 64 408 112 428 170 c 128
 436 192 440 217 440 244 c 0
402 578 m 0
 402 628 373 654 321 654 c 0
 265 654 230 627 204 590 c 128
 168 539 150 464 145 376 c 1
 265 425 l 2
 311 444 348 468 374 500 c 128
 392 521 402 544 402 578 c 0
374 430 m 1
 453 430 498 380 516 318 c 128
 523 295 526 271 526 244 c 0
 526 123 465 44 378 10 c 128
 349 -2 317 -7 284 -7 c 0
 155 -7 95 77 70 184 c 128
 61 224 56 269 56 320 c 0
 56 447 83 550 135 622 c 128
 177 680 239 724 330 724 c 0
 424 724 488 676 488 584 c 0
 488 555 480 527 462 502 c 128
 444 477 415 453 374 430 c 1
EndSplineSet
Validated: 1
EndChar

StartChar: uni03D1
Encoding: 977 977 300
Width: 635
GlyphClass: 2
Flags: HMW
TopAccentHorizontal: 318
AnchorPoint: "Anchor-1" 318 -35 basechar 0
AnchorPoint: "Anchor-0" 318 756 basechar 0
LayerCount: 2
Fore
SplineSet
316 658 m 0
 271 658 238 636 238 594 c 0
 238 556 264 540 294 528 c 128
 336 512 393 506 453 506 c 1
 436 584 401 658 316 658 c 0
466 360 m 0
 466 389 466 415 463 441 c 1
 343 441 231 460 180 527 c 128
 165 546 158 569 158 596 c 0
 158 681 224 723 310 723 c 0
 411 723 470 672 505 603 c 128
 519 576 530 543 537 506 c 1
 629 506 l 1
 629 470 l 2
 629 453 619 441 600 441 c 2
 547 441 l 1
 550 415 550 389 550 360 c 0
 550 201 513 73 412 18 c 128
 381 1 345 -8 304 -8 c 0
 170 -8 106 77 106 211 c 2
 106 305 l 2
 106 349 94 368 51 368 c 2
 22 368 l 1
 22 404 l 2
 22 427 56 435 84 435 c 0
 163 435 194 386 194 305 c 2
 194 211 l 2
 194 126 228 63 312 63 c 0
 405 63 439 139 455 222 c 0
 462 259 466 305 466 360 c 0
EndSplineSet
Validated: 1
EndChar

StartChar: uni03D2
Encoding: 978 978 301
Width: 628
GlyphClass: 2
Flags: HMW
TopAccentHorizontal: 315
TopRightVertex: 1  676,50
BottomRightVertex: 1  0,-120
AnchorPoint: "Anchor-1" 314 -35 basechar 0
AnchorPoint: "Anchor-0" 315 756 basechar 0
LayerCount: 2
Fore
SplineSet
562 722 m 0
 586 722 618 720 618 702 c 2
 618 641 l 1
 582 641 l 2
 538 641 504 623 478 599 c 128
 416 544 387 453 372 346 c 0
 366 304 363 255 363 200 c 2
 363 0 l 1
 266 0 l 1
 266 200 l 2
 266 339 247 458 196 542 c 128
 165 593 121 641 46 641 c 2
 11 641 l 1
 11 702 l 2
 11 720 43 722 67 722 c 0
 134 722 179 693 215 653 c 128
 267 594 298 509 314 405 c 1
 331 509 362 594 414 653 c 128
 450 694 495 722 562 722 c 0
EndSplineSet
Validated: 1
EndChar

StartChar: uni03D5
Encoding: 981 981 302
Width: 737
GlyphClass: 2
Flags: HMW
TopAccentHorizontal: 368
AnchorPoint: "Anchor-1" 368 -210 basechar 0
AnchorPoint: "Anchor-0" 368 756 basechar 0
LayerCount: 2
Fore
SplineSet
410 60 m 1
 534 60 607 129 607 253 c 128
 607 349 566 408 495 434 c 0
 470 444 442 448 410 448 c 1
 410 60 l 1
327 448 m 1
 202 448 130 377 130 253 c 0
 130 159 173 100 242 74 c 128
 266 65 295 60 327 60 c 1
 327 448 l 1
410 514 m 1
 544 514 636 455 676 360 c 128
 689 328 696 293 696 254 c 0
 696 125 627 45 529 12 c 128
 494 0 454 -6 410 -7 c 1
 410 -171 l 1
 327 -171 l 1
 327 -7 l 1
 192 -7 101 51 61 146 c 128
 48 178 41 214 41 254 c 0
 41 383 111 460 208 495 c 128
 243 508 283 514 327 514 c 1
 327 716 l 1
 410 716 l 1
 410 514 l 1
EndSplineSet
Validated: 1
EndChar

StartChar: uni03D6
Encoding: 982 982 303
Width: 859
GlyphClass: 2
Flags: HMW
TopAccentHorizontal: 428
AnchorPoint: "Anchor-3" 428 560 basechar 0
AnchorPoint: "Anchor-1" 428 -35 basechar 0
LayerCount: 2
Fore
SplineSet
221 431 m 1
 199 382 180 321 180 251 c 0
 180 185 192 134 219 101 c 128
 237 79 261 63 294 63 c 0
 363 63 384 134 384 204 c 2
 384 325 l 1
 472 325 l 1
 472 204 l 1
 473 204 l 1
 473 144 486 97 523 74 c 128
 534 67 547 63 562 63 c 0
 622 63 650 108 666 158 c 128
 674 182 677 213 677 251 c 0
 677 304 664 351 651 392 c 128
 646 406 641 419 636 431 c 1
 221 431 l 1
18 468 m 2
 18 488 31 502 52 502 c 2
 846 502 l 1
 846 460 l 2
 846 443 834 431 816 431 c 2
 726 431 l 1
 748 379 766 320 766 251 c 0
 766 137 725 48 650 10 c 0
 627 -2 602 -8 574 -8 c 0
 498 -8 454 31 428 82 c 1
 403 31 358 -8 283 -8 c 0
 182 -8 130 65 105 144 c 128
 95 176 90 211 90 251 c 0
 90 320 108 379 130 431 c 1
 18 431 l 1
 18 468 l 2
EndSplineSet
Validated: 1
EndChar

StartChar: uni03D8
Encoding: 984 984 304
Width: 701
GlyphClass: 2
Flags: HMW
TopAccentHorizontal: 351
AnchorPoint: "Anchor-3" 408 756 basechar 0
AnchorPoint: "Anchor-1" 408 -35 basechar 0
AnchorPoint: "Anchor-0" 408 756 basechar 0
LayerCount: 2
Fore
SplineSet
350 232 m 256
 450 232 516 277 544 350 c 128
 554 375 559 404 559 435 c 256
 559 535 511 597 437 624 c 128
 411 633 382 638 350 638 c 256
 250 638 186 592 157 520 c 128
 147 495 142 466 142 435 c 0
 142 335 191 273 264 246 c 128
 289 237 318 232 350 232 c 256
302 151 m 1
 183 167 99 232 62 330 c 128
 50 362 43 397 43 435 c 0
 43 525 80 594 128 640 c 128
 178 688 255 722 350 722 c 0
 494 722 593 652 636 550 c 128
 651 515 658 476 658 435 c 0
 658 308 593 225 506 182 c 128
 474 166 438 156 398 151 c 1
 398 0 l 1
 302 0 l 1
 302 151 l 1
EndSplineSet
Validated: 1
EndChar

StartChar: uni03D9
Encoding: 985 985 305
Width: 567
GlyphClass: 2
Flags: HMW
TopAccentHorizontal: 284
AnchorPoint: "Anchor-3" 284 560 basechar 0
AnchorPoint: "Anchor-1" 284 -210 basechar 0
LayerCount: 2
Fore
SplineSet
134 253 m 0
 134 141 176 62 284 62 c 0
 391 62 433 142 433 253 c 128
 433 364 391 444 284 444 c 0
 174 444 134 364 134 253 c 0
239 -4 m 1
 143 11 82 71 56 156 c 128
 47 185 42 218 42 254 c 0
 42 376 95 461 183 496 c 128
 213 508 247 514 284 514 c 128
 403 514 477 452 508 362 c 0
 519 330 525 294 525 254 c 0
 525 142 481 66 410 24 c 128
 386 10 359 1 328 -4 c 1
 328 -172 l 1
 239 -172 l 1
 239 -4 l 1
EndSplineSet
Validated: 1
EndChar

StartChar: uni03DA
Encoding: 986 986 306
Width: 580
GlyphClass: 2
Flags: HMW
TopAccentHorizontal: 404
AnchorPoint: "Anchor-3" 404 756 basechar 0
AnchorPoint: "Anchor-1" 365 -210 basechar 0
AnchorPoint: "Anchor-0" 404 756 basechar 0
LayerCount: 2
Fore
SplineSet
554 762 m 2
 567 762 576 755 576 743 c 128
 576 738 576 738 576 734 c 0
 576 649 486 638 396 638 c 0
 273 638 198 575 164 484 c 0
 152 452 145 415 145 372 c 128
 145 195 266 124 406 86 c 0
 456 73 496 57 522 27 c 128
 538 8 546 -15 546 -46 c 0
 546 -101 526 -141 504 -178 c 1
 434 -150 l 1
 446 -131 462 -101 462 -70 c 0
 462 -36 447 -25 421 -13 c 128
 408 -7 391 -1 368 4 c 0
 231 38 123 111 72 231 c 128
 55 272 46 319 46 372 c 0
 46 483 86 568 144 626 c 128
 202 684 285 722 396 722 c 0
 401 722 405 722 410 722 c 0
 460 722 509 724 516 762 c 1
 554 762 l 2
EndSplineSet
Validated: 1
EndChar

StartChar: uni03DB
Encoding: 987 987 307
Width: 459
GlyphClass: 2
Flags: HMW
TopAccentHorizontal: 260
AnchorPoint: "Anchor-3" 260 560 basechar 0
AnchorPoint: "Anchor-1" 274 -210 basechar 0
LayerCount: 2
Fore
SplineSet
313 425 m 0
 202 425 133 385 133 276 c 0
 133 181 173 137 241 110 c 128
 295 89 373 69 408 30 c 128
 423 14 430 -6 430 -34 c 0
 430 -89 410 -129 388 -166 c 1
 318 -138 l 1
 330 -119 347 -89 347 -58 c 0
 347 -28 331 -16 310 -4 c 0
 301 1 288 6 272 10 c 0
 141 48 42 102 42 272 c 0
 42 384 101 450 185 481 c 128
 216 492 253 498 296 498 c 0
 338 498 382 502 382 538 c 1
 420 538 l 2
 433 538 442 531 442 519 c 128
 442 514 442 514 442 510 c 0
 442 442 387 425 313 425 c 0
EndSplineSet
Validated: 1
EndChar

StartChar: uni03DC
Encoding: 988 988 308
Width: 567
GlyphClass: 2
Flags: HMW
TopAccentHorizontal: 255
TopRightVertex: 1  662,50
BottomRightVertex: 1  0,-150
AnchorPoint: "Anchor-3" 255 756 basechar 0
AnchorPoint: "Anchor-1" 140 -35 basechar 0
AnchorPoint: "Anchor-0" 255 756 basechar 0
LayerCount: 2
Fore
SplineSet
440 258 m 1
 440 302 409 308 364 308 c 2
 188 308 l 1
 188 0 l 1
 92 0 l 1
 92 716 l 1
 533 716 l 1
 533 638 l 1
 188 638 l 1
 188 386 l 1
 368 386 l 2
 427 386 473 375 486 332 c 128
 490 320 491 306 491 290 c 0
 491 270 488 258 468 258 c 2
 440 258 l 1
EndSplineSet
Validated: 1
EndChar

StartChar: uni03DD
Encoding: 989 989 309
Width: 453
GlyphClass: 2
Flags: HMW
TopAccentHorizontal: 291
AnchorPoint: "Anchor-3" 291 560 basechar 0
AnchorPoint: "Anchor-1" 132 -210 basechar 0
LayerCount: 2
Fore
SplineSet
355 104 m 1
 355 145 324 152 282 152 c 2
 152 152 l 1
 152 -172 l 1
 64 -172 l 1
 64 250 l 2
 64 420 127 514 297 514 c 0
 344 514 387 508 426 498 c 1
 422 461 l 2
 420 443 410 437 392 437 c 0
 383 437 370 438 353 441 c 128
 336 444 317 445 295 445 c 0
 177 445 152 368 152 250 c 2
 152 222 l 1
 284 222 l 2
 358 222 402 206 402 134 c 0
 402 117 398 104 380 104 c 2
 355 104 l 1
EndSplineSet
Validated: 1
EndChar

StartChar: uni03DE
Encoding: 990 990 310
Width: 572
GlyphClass: 2
Flags: HMW
AnchorPoint: "Anchor-3" 280 756 basechar 0
AnchorPoint: "Anchor-1" 354 -35 basechar 0
AnchorPoint: "Anchor-0" 280 756 basechar 0
LayerCount: 2
Fore
SplineSet
381 0 m 1
 318 0 l 2
 304 0 294 7 294 19 c 0
 294 23 295 28 298 34 c 2
 427 320 l 1
 12 320 l 1
 190 716 l 1
 253 716 l 2
 268 716 277 708 277 695 c 0
 277 691 276 687 274 682 c 1
 144 397 l 1
 560 397 l 1
 381 0 l 1
EndSplineSet
Validated: 1
EndChar

StartChar: uni03DF
Encoding: 991 991 311
Width: 506
GlyphClass: 2
Flags: HMW
CounterMasks: 1 e0
AnchorPoint: "Anchor-3" 206 560 basechar 0
AnchorPoint: "Anchor-1" 373 -210 basechar 0
LayerCount: 2
Fore
SplineSet
318 -172 m 1
 258 -172 l 2
 244 -172 234 -165 234 -152 c 0
 234 -148 235 -143 237 -138 c 2
 366 136 l 1
 13 136 l 1
 185 506 l 1
 244 506 l 2
 258 506 269 498 269 484 c 0
 269 480 268 477 266 472 c 1
 143 211 l 1
 496 211 l 1
 318 -172 l 1
EndSplineSet
Validated: 1
EndChar

StartChar: uni03E0
Encoding: 992 992 312
Width: 720
GlyphClass: 2
Flags: HMW
AnchorPoint: "Anchor-3" 362 756 basechar 0
AnchorPoint: "Anchor-1" 516 -35 basechar 0
AnchorPoint: "Anchor-0" 362 756 basechar 0
LayerCount: 2
Fore
SplineSet
12 634 m 1
 95 685 184 724 317 724 c 0
 491 724 602 645 648 516 c 128
 664 472 671 423 671 368 c 0
 671 305 660 243 637 182 c 0
 615 121 581 60 534 0 c 1
 475 0 l 2
 458 0 450 10 450 23 c 0
 450 30 453 39 458 46 c 0
 507 103 549 179 570 266 c 128
 578 298 581 331 581 366 c 0
 581 379 580 392 579 404 c 1
 549 378 518 354 480 333 c 2
 274 210 l 1
 234 276 l 1
 565 474 l 1
 556 504 542 529 524 550 c 1
 193 353 l 1
 152 419 l 1
 364 544 l 2
 401 566 433 583 473 598 c 1
 432 625 382 642 316 642 c 0
 221 642 149 619 86 583 c 0
 77 578 69 575 62 575 c 0
 55 575 48 579 42 587 c 1
 12 634 l 1
EndSplineSet
Validated: 1
EndChar

StartChar: uni03E1
Encoding: 993 993 313
Width: 596
GlyphClass: 2
Flags: HMW
AnchorPoint: "Anchor-3" 284 560 basechar 0
AnchorPoint: "Anchor-1" 380 -210 basechar 0
LayerCount: 2
Fore
SplineSet
8 425 m 1
 74 474 149 512 261 512 c 0
 408 512 493 431 528 317 c 128
 540 276 547 231 547 180 c 0
 547 26 487 -76 426 -172 c 1
 374 -172 l 2
 358 -172 351 -161 351 -148 c 0
 351 -141 353 -132 358 -126 c 0
 381 -91 407 -50 427 -6 c 128
 450 45 468 107 468 180 c 0
 468 192 466 203 466 215 c 1
 441 187 411 160 378 137 c 1
 232 30 l 1
 194 85 l 1
 454 275 l 1
 446 302 435 327 420 350 c 1
 156 156 l 1
 121 212 l 1
 285 332 l 1
 317 354 351 372 385 390 c 1
 354 417 314 436 260 436 c 0
 185 436 123 413 76 380 c 0
 66 375 58 372 52 372 c 128
 46 372 39 376 34 384 c 2
 8 425 l 1
EndSplineSet
Validated: 1
EndChar

StartChar: uni03F0
Encoding: 1008 1008 314
Width: 591
GlyphClass: 2
Flags: HMW
TopAccentHorizontal: 290
AnchorPoint: "Anchor-3" 290 560 basechar 0
AnchorPoint: "Anchor-1" 300 -35 basechar 0
LayerCount: 2
Fore
SplineSet
31 500 m 2
 31 513 60 513 80 513 c 0
 167 513 209 476 209 391 c 0
 209 385 208 379 208 373 c 128
 206 344 199 309 188 268 c 128
 177 227 161 178 139 122 c 1
 155 147 175 175 194 194 c 1
 486 514 l 1
 544 466 l 1
 510 373 483 297 469 206 c 128
 466 187 464 168 464 150 c 0
 464 101 480 63 534 63 c 2
 560 63 l 1
 560 7 l 2
 560 -6 530 -6 510 -6 c 0
 425 -6 382 31 382 114 c 0
 382 120 383 127 383 134 c 128
 385 163 391 197 402 238 c 128
 413 279 429 328 452 385 c 1
 436 360 416 331 397 312 c 1
 104 -8 l 1
 48 40 l 1
 82 133 109 210 122 301 c 128
 125 320 127 340 127 357 c 0
 127 407 111 443 57 443 c 2
 31 443 l 1
 31 500 l 2
EndSplineSet
Validated: 1
EndChar

StartChar: uni03F1
Encoding: 1009 1009 315
Width: 562
GlyphClass: 2
Flags: HMW
TopAccentHorizontal: 286
AnchorPoint: "Anchor-3" 286 560 basechar 0
AnchorPoint: "Anchor-1" 247 -210 basechar 0
LayerCount: 2
Fore
SplineSet
282 70 m 0
 386 70 428 150 428 260 c 0
 428 346 404 408 346 433 c 128
 329 440 310 444 289 444 c 0
 223 444 182 405 164 355 c 128
 157 336 153 314 153 290 c 2
 153 140 l 1
 181 101 222 70 282 70 c 0
302 1 m 0
 234 1 182 32 148 70 c 1
 148 60 l 2
 148 -14 160 -62 217 -78 c 128
 234 -83 254 -85 279 -85 c 0
 310 -85 346 -80 378 -80 c 0
 450 -80 488 -102 488 -173 c 0
 488 -190 484 -204 467 -204 c 2
 442 -204 l 1
 442 -163 415 -156 374 -156 c 0
 341 -156 312 -161 278 -161 c 0
 130 -161 64 -90 64 60 c 2
 64 290 l 2
 64 399 114 468 194 498 c 128
 222 508 254 514 289 514 c 0
 401 514 471 452 502 368 c 128
 514 336 520 300 520 260 c 0
 520 144 472 58 393 20 c 128
 366 7 335 1 302 1 c 0
EndSplineSet
Validated: 1
EndChar

StartChar: uni03F4
Encoding: 1012 1012 316
Width: 800
GlyphClass: 2
Flags: HMW
TopAccentHorizontal: 400
AnchorPoint: "Anchor-3" 400 756 basechar 0
AnchorPoint: "Anchor-1" 400 -35 basechar 0
AnchorPoint: "Anchor-0" 400 756 basechar 0
LayerCount: 2
Fore
SplineSet
147 328 m 1
 155 210 210 127 301 93 c 128
 331 82 364 76 400 76 c 256
 520 76 594 137 630 222 c 128
 643 253 650 288 653 328 c 1
 147 328 l 1
652 402 m 1
 640 513 586 591 496 624 c 128
 467 635 435 640 400 640 c 0
 284 640 211 583 174 502 c 128
 161 473 152 439 148 402 c 1
 652 402 l 1
400 724 m 256
 572 724 679 632 728 506 c 128
 745 461 754 411 754 358 c 256
 754 245 713 154 656 94 c 128
 599 34 512 -8 400 -8 c 256
 287 -8 201 34 144 94 c 128
 86 154 47 244 47 358 c 256
 47 530 133 646 256 697 c 128
 299 715 347 724 400 724 c 256
EndSplineSet
Validated: 1
EndChar

StartChar: uni03F5
Encoding: 1013 1013 317
Width: 468
GlyphClass: 2
Flags: HMW
TopAccentHorizontal: 269
AnchorPoint: "Anchor-3" 269 560 basechar 0
AnchorPoint: "Anchor-1" 254 -35 basechar 0
LayerCount: 2
Fore
SplineSet
131 228 m 1
 139 126 194 62 301 62 c 0
 335 62 359 65 386 70 c 128
 391 71 396 72 400 72 c 0
 420 72 427 64 430 46 c 2
 434 14 l 1
 397 0 348 -7 299 -7 c 0
 134 -7 42 89 42 254 c 0
 42 423 140 514 311 514 c 0
 354 514 389 507 424 498 c 1
 418 461 l 2
 416 443 407 437 388 437 c 0
 377 437 368 440 356 441 c 128
 339 443 321 445 300 445 c 0
 194 445 143 386 132 290 c 1
 400 290 l 1
 400 228 l 1
 131 228 l 1
EndSplineSet
Validated: 1
EndChar

StartChar: uni03F6
Encoding: 1014 1014 318
Width: 469
GlyphClass: 2
Flags: HMW
TopAccentHorizontal: 207
AnchorPoint: "Anchor-3" 258 560 basechar 0
LayerCount: 2
Fore
SplineSet
336 290 m 1
 325 386 274 445 168 445 c 0
 141 445 116 442 94 438 c 128
 89 437 85 437 80 437 c 0
 61 437 52 443 50 461 c 2
 45 498 l 1
 85 508 112 514 158 514 c 0
 329 514 427 423 427 254 c 0
 427 126 372 44 278 10 c 128
 246 -2 210 -7 170 -7 c 0
 121 -7 71 0 34 14 c 1
 39 46 l 2
 42 64 50 72 70 72 c 0
 81 72 89 70 101 68 c 128
 121 65 141 62 168 62 c 0
 276 62 330 126 338 228 c 1
 69 228 l 1
 69 290 l 1
 336 290 l 1
EndSplineSet
Validated: 1
EndChar

StartChar: uni0401
Encoding: 1025 1025 319
Width: 577
GlyphClass: 2
Flags: HMW
AnchorPoint: "Anchor-3" 288 756 basechar 0
AnchorPoint: "Anchor-1" 288 -35 basechar 0
AnchorPoint: "Anchor-0" 288 756 basechar 0
LayerCount: 2
Fore
SplineSet
212 889 m 0
 244 889 268 866 268 833 c 0
 268 801 244 779 212 779 c 0
 183 779 158 804 158 833 c 0
 158 863 182 889 212 889 c 0
368 833 m 0
 368 865 390 889 422 889 c 0
 448 889 464 873 473 855 c 128
 476 848 478 841 478 833 c 0
 478 802 453 779 422 779 c 128
 391 779 368 802 368 833 c 0
534 79 m 1
 533 0 l 1
 92 0 l 1
 92 716 l 1
 533 716 l 1
 533 638 l 1
 188 638 l 1
 188 400 l 1
 468 400 l 1
 468 324 l 1
 188 324 l 1
 188 79 l 1
 534 79 l 1
EndSplineSet
Validated: 1
EndChar

StartChar: uni0402
Encoding: 1026 1026 320
Width: 739
GlyphClass: 2
Flags: HMW
AnchorPoint: "Anchor-3" 271 756 basechar 0
AnchorPoint: "Anchor-1" 422 -35 basechar 0
AnchorPoint: "Anchor-0" 271 756 basechar 0
LayerCount: 2
Fore
SplineSet
620 206 m 0
 620 299 559 331 465 331 c 2
 310 331 l 1
 310 0 l 1
 214 0 l 1
 214 638 l 1
 14 638 l 1
 14 716 l 1
 537 716 l 1
 537 638 l 1
 310 638 l 1
 310 408 l 1
 465 408 l 2
 582 408 669 373 702 292 c 128
 712 268 716 243 716 215 c 0
 716 104 656 42 571 15 c 128
 540 5 504 0 464 0 c 2
 416 0 l 1
 416 77 l 1
 464 77 l 2
 558 77 620 114 620 206 c 0
EndSplineSet
Validated: 1
EndChar

StartChar: uni0403
Encoding: 1027 1027 321
Width: 538
GlyphClass: 2
Flags: HMW
AnchorPoint: "Anchor-3" 269 756 basechar 0
AnchorPoint: "Anchor-1" 269 -35 basechar 0
AnchorPoint: "Anchor-0" 269 756 basechar 0
LayerCount: 2
Fore
SplineSet
496 926 m 1
 334 783 l 2
 324 775 318 773 302 773 c 2
 238 773 l 1
 354 910 l 1
 364 924 373 926 396 926 c 2
 496 926 l 1
523 640 m 1
 188 640 l 1
 188 0 l 1
 92 0 l 1
 92 716 l 1
 523 716 l 1
 523 640 l 1
EndSplineSet
Validated: 1
EndChar

StartChar: uni0404
Encoding: 1028 1028 322
Width: 676
GlyphClass: 2
Flags: HMW
AnchorPoint: "Anchor-3" 406 756 basechar 0
AnchorPoint: "Anchor-1" 388 -35 basechar 0
AnchorPoint: "Anchor-0" 406 756 basechar 0
LayerCount: 2
Fore
SplineSet
647 100 m 1
 589 33 511 -8 388 -8 c 0
 278 -8 196 35 141 94 c 128
 84 154 48 244 48 358 c 256
 48 531 132 647 256 698 c 128
 299 716 346 724 398 724 c 0
 504 724 580 687 636 634 c 1
 604 589 l 2
 600 582 595 578 584 578 c 0
 578 578 571 582 562 588 c 128
 521 617 472 640 398 640 c 0
 284 640 213 581 175 502 c 128
 161 473 152 439 148 402 c 1
 508 402 l 1
 508 328 l 1
 148 328 l 1
 156 210 213 128 302 93 c 0
 330 82 361 76 394 76 c 0
 481 76 532 99 578 140 c 0
 583 145 589 148 594 148 c 128
 599 148 604 146 608 142 c 2
 647 100 l 1
EndSplineSet
Validated: 1
EndChar

StartChar: uni0405
Encoding: 1029 1029 323
Width: 542
GlyphClass: 2
Flags: HMW
AnchorPoint: "Anchor-3" 294 756 basechar 0
AnchorPoint: "Anchor-1" 258 -35 basechar 0
AnchorPoint: "Anchor-0" 294 756 basechar 0
LayerCount: 2
Fore
SplineSet
458 604 m 2
 454 595 448 590 436 590 c 128
 431 590 424 593 416 598 c 128
 382 620 345 644 286 644 c 0
 225 644 180 619 162 576 c 128
 156 563 154 548 154 532 c 0
 154 489 179 466 208 449 c 128
 241 430 286 417 326 403 c 128
 413 373 498 335 498 218 c 0
 498 109 439 41 359 10 c 128
 329 -2 295 -8 258 -8 c 0
 158 -8 83 32 33 86 c 1
 61 132 l 2
 66 139 72 144 84 144 c 0
 96 144 107 133 117 126 c 128
 154 99 194 72 260 72 c 0
 328 72 376 102 396 150 c 128
 403 166 406 184 406 204 c 0
 406 298 307 313 235 336 c 128
 191 350 148 366 117 394 c 128
 84 424 64 465 64 528 c 0
 64 621 122 681 191 708 c 128
 218 719 250 724 286 724 c 0
 373 724 435 694 482 650 c 1
 458 604 l 2
EndSplineSet
Validated: 1
EndChar

StartChar: uni0406
Encoding: 1030 1030 324
Width: 280
GlyphClass: 2
Flags: HMW
AnchorPoint: "Anchor-3" 142 756 basechar 0
AnchorPoint: "Anchor-1" 140 -35 basechar 0
AnchorPoint: "Anchor-0" 142 756 basechar 0
LayerCount: 2
Fore
SplineSet
188 0 m 1
 92 0 l 1
 92 716 l 1
 188 716 l 1
 188 0 l 1
EndSplineSet
Validated: 1
EndChar

StartChar: uni0407
Encoding: 1031 1031 325
Width: 280
GlyphClass: 2
Flags: HMW
AnchorPoint: "Anchor-3" 140 756 basechar 0
AnchorPoint: "Anchor-1" 140 -35 basechar 0
AnchorPoint: "Anchor-0" 140 756 basechar 0
LayerCount: 2
Fore
SplineSet
36 889 m 0
 68 889 92 866 92 833 c 0
 92 801 68 779 36 779 c 0
 7 779 -18 804 -18 833 c 0
 -18 863 6 889 36 889 c 0
192 833 m 0
 192 865 214 889 246 889 c 0
 272 889 288 873 297 855 c 128
 300 848 302 841 302 833 c 0
 302 802 277 779 246 779 c 128
 215 779 192 802 192 833 c 0
188 0 m 1
 92 0 l 1
 92 716 l 1
 188 716 l 1
 188 0 l 1
EndSplineSet
Validated: 1
EndChar

StartChar: uni0408
Encoding: 1032 1032 326
Width: 422
GlyphClass: 2
Flags: HMW
AnchorPoint: "Anchor-3" 290 756 basechar 0
AnchorPoint: "Anchor-1" 159 -35 basechar 0
AnchorPoint: "Anchor-0" 290 756 basechar 0
LayerCount: 2
Fore
SplineSet
103 73 m 0
 205 73 242 142 242 246 c 2
 242 716 l 1
 338 716 l 1
 338 248 l 2
 338 127 295 45 210 10 c 128
 182 -2 150 -8 113 -8 c 0
 80 -8 46 -3 12 6 c 1
 13 25 16 44 17 63 c 0
 19 75 25 82 40 82 c 0
 46 82 54 81 64 78 c 128
 74 75 86 73 103 73 c 0
EndSplineSet
Validated: 1
EndChar

StartChar: uni0409
Encoding: 1033 1033 327
Width: 1054
GlyphClass: 2
Flags: HMW
AnchorPoint: "Anchor-3" 419 756 basechar 0
AnchorPoint: "Anchor-1" 480 -35 basechar 0
AnchorPoint: "Anchor-0" 419 756 basechar 0
LayerCount: 2
Fore
SplineSet
929 206 m 0
 929 298 868 331 774 331 c 2
 634 331 l 1
 634 77 l 1
 773 77 l 2
 867 77 929 114 929 206 c 0
52 -6 m 0
 29 -6 -4 -5 -4 12 c 2
 -4 74 l 1
 32 74 l 2
 68 74 89 89 108 113 c 128
 120 128 131 151 142 180 c 128
 171 261 183 357 194 470 c 0
 201 538 205 620 208 716 c 1
 634 716 l 1
 634 408 l 1
 774 408 l 2
 891 408 977 373 1010 292 c 128
 1020 268 1024 243 1024 215 c 0
 1024 105 965 42 880 15 c 128
 849 5 813 0 773 0 c 2
 537 0 l 1
 537 640 l 1
 300 640 l 1
 292 482 282 348 253 227 c 128
 234 147 212 82 168 38 c 128
 139 8 105 -6 52 -6 c 0
EndSplineSet
Validated: 1
EndChar

StartChar: uni040A
Encoding: 1034 1034 328
Width: 1092
GlyphClass: 2
Flags: HMW
AnchorPoint: "Anchor-3" 382 756 basechar 0
AnchorPoint: "Anchor-1" 535 -35 basechar 0
AnchorPoint: "Anchor-0" 382 756 basechar 0
LayerCount: 2
Fore
SplineSet
967 206 m 0
 967 298 906 331 812 331 c 2
 672 331 l 1
 672 77 l 1
 811 77 l 2
 905 77 967 114 967 206 c 0
812 408 m 2
 929 408 1015 373 1048 292 c 128
 1058 268 1063 243 1063 215 c 0
 1063 104 1003 42 918 15 c 128
 887 5 851 0 811 0 c 2
 575 0 l 1
 575 326 l 1
 188 326 l 1
 188 0 l 1
 92 0 l 1
 92 716 l 1
 188 716 l 1
 188 397 l 1
 575 397 l 1
 575 716 l 1
 672 716 l 1
 672 408 l 1
 812 408 l 2
EndSplineSet
Validated: 1
EndChar

StartChar: uni040B
Encoding: 1035 1035 329
Width: 747
GlyphClass: 2
Flags: HMW
AnchorPoint: "Anchor-3" 271 756 basechar 0
AnchorPoint: "Anchor-1" 458 -35 basechar 0
AnchorPoint: "Anchor-0" 271 756 basechar 0
LayerCount: 2
Fore
SplineSet
606 232 m 2
 606 325 565 362 478 362 c 0
 468 362 458 362 447 361 c 128
 409 358 363 349 310 334 c 1
 310 0 l 1
 214 0 l 1
 214 638 l 1
 14 638 l 1
 14 716 l 1
 537 716 l 1
 537 638 l 1
 310 638 l 1
 310 404 l 1
 366 419 439 435 506 435 c 0
 564 435 617 423 652 388 c 128
 686 354 704 303 704 232 c 2
 704 -0 l 1
 606 -0 l 1
 606 232 l 2
EndSplineSet
Validated: 1
EndChar

StartChar: uni040C
Encoding: 1036 1036 330
Width: 670
GlyphClass: 2
Flags: HMW
AnchorPoint: "Anchor-3" 335 756 basechar 0
AnchorPoint: "Anchor-1" 335 -35 basechar 0
AnchorPoint: "Anchor-0" 335 756 basechar 0
LayerCount: 2
Fore
SplineSet
542 926 m 1
 380 783 l 2
 370 775 364 773 348 773 c 2
 284 773 l 1
 400 910 l 1
 410 924 419 926 442 926 c 2
 542 926 l 1
664 0 m 1
 576 0 l 2
 554 0 543 15 532 30 c 2
 343 293 l 1
 327 318 312 328 274 328 c 2
 188 328 l 1
 188 0 l 1
 92 0 l 1
 92 716 l 1
 188 716 l 1
 188 402 l 1
 262 402 l 2
 298 402 314 413 332 437 c 2
 520 689 l 2
 529 703 541 716 563 716 c 2
 644 716 l 1
 428 422 l 2
 412 399 391 383 365 374 c 1
 404 364 425 343 444 310 c 1
 664 0 l 1
EndSplineSet
Validated: 1
EndChar

StartChar: uni040E
Encoding: 1038 1038 331
Width: 625
GlyphClass: 2
Flags: HMW
AnchorPoint: "Anchor-3" 312 756 basechar 0
AnchorPoint: "Anchor-1" 312 -35 basechar 0
AnchorPoint: "Anchor-0" 312 756 basechar 0
LayerCount: 2
Fore
SplineSet
250 895 m 1
 250 837 267 810 324 810 c 256
 381 810 398 837 398 895 c 1
 450 895 l 2
 463 895 470 881 470 868 c 0
 470 794 404 764 324 764 c 256
 244 764 178 794 178 868 c 0
 178 881 185 895 198 895 c 2
 250 895 l 1
188 -6 m 0
 165 -6 132 -5 132 12 c 2
 132 74 l 1
 166 74 l 2
 213 74 241 101 256 135 c 1
 292 208 l 1
 4 716 l 1
 94 716 l 2
 113 716 121 706 128 694 c 2
 304 369 l 2
 316 345 326 321 334 297 c 1
 342 322 352 346 362 369 c 2
 512 694 l 2
 517 705 530 716 546 716 c 2
 626 716 l 1
 334 94 l 2
 306 35 272 -6 188 -6 c 0
EndSplineSet
Validated: 1
EndChar

StartChar: uni040F
Encoding: 1039 1039 332
Width: 735
GlyphClass: 2
Flags: HMW
AnchorPoint: "Anchor-3" 368 756 basechar 0
AnchorPoint: "Anchor-1" 368 -210 basechar 0
AnchorPoint: "Anchor-0" 368 756 basechar 0
LayerCount: 2
Fore
SplineSet
412 -146 m 2
 412 -163 398 -174 381 -174 c 2
 323 -174 l 1
 323 0 l 1
 92 0 l 1
 92 716 l 1
 188 716 l 1
 188 76 l 1
 546 76 l 1
 546 716 l 1
 644 716 l 1
 644 0 l 1
 412 0 l 1
 412 -146 l 2
EndSplineSet
Validated: 1
EndChar

StartChar: uni0410
Encoding: 1040 1040 333
Width: 675
GlyphClass: 2
Flags: HMW
AnchorPoint: "Anchor-3" 337 756 basechar 0
AnchorPoint: "Anchor-1" 336 -35 basechar 0
AnchorPoint: "Anchor-0" 337 756 basechar 0
LayerCount: 2
Fore
SplineSet
471 266 m 1
 358 558 l 2
 350 578 343 600 338 624 c 1
 331 597 324 575 316 557 c 1
 204 266 l 1
 471 266 l 1
673 0 m 1
 598 0 l 2
 580 0 570 10 565 23 c 2
 498 196 l 1
 176 196 l 1
 110 23 l 2
 106 10 94 0 76 0 c 2
 2 0 l 1
 288 716 l 1
 386 716 l 1
 673 0 l 1
EndSplineSet
Validated: 1
EndChar

StartChar: uni0411
Encoding: 1041 1041 334
Width: 620
GlyphClass: 2
Flags: HMW
AnchorPoint: "Anchor-3" 262 756 basechar 0
AnchorPoint: "Anchor-1" 293 -35 basechar 0
AnchorPoint: "Anchor-0" 262 756 basechar 0
LayerCount: 2
Fore
SplineSet
483 206 m 0
 483 298 422 331 328 331 c 2
 188 331 l 1
 188 77 l 1
 327 77 l 2
 421 77 483 114 483 206 c 0
328 408 m 2
 445 408 531 373 564 292 c 128
 574 268 579 243 579 215 c 0
 579 104 519 42 434 15 c 128
 403 5 367 0 327 0 c 2
 92 0 l 1
 92 716 l 1
 554 716 l 1
 554 640 l 1
 188 640 l 1
 188 408 l 1
 328 408 l 2
EndSplineSet
Validated: 1
EndChar

StartChar: uni0412
Encoding: 1042 1042 335
Width: 646
GlyphClass: 2
Flags: HMW
AnchorPoint: "Anchor-3" 297 756 basechar 0
AnchorPoint: "Anchor-1" 320 -35 basechar 0
AnchorPoint: "Anchor-0" 297 756 basechar 0
LayerCount: 2
Fore
SplineSet
501 206 m 0
 501 291 435 326 343 326 c 2
 188 326 l 1
 188 77 l 1
 343 77 l 2
 437 77 501 115 501 206 c 0
476 518 m 0
 476 611 418 640 320 640 c 2
 188 640 l 1
 188 396 l 1
 316 396 l 2
 407 396 476 429 476 518 c 0
438 368 m 1
 530 351 596 305 596 204 c 0
 596 99 533 41 451 15 c 128
 420 5 384 0 344 0 c 2
 92 0 l 1
 92 716 l 1
 320 716 l 2
 464 716 572 670 572 530 c 0
 572 464 538 423 497 396 c 0
 480 384 461 375 438 368 c 1
EndSplineSet
Validated: 1
EndChar

StartChar: uni0413
Encoding: 1043 1043 336
Width: 538
GlyphClass: 2
Flags: HMW
AnchorPoint: "Anchor-3" 307 756 basechar 0
AnchorPoint: "Anchor-1" 140 -35 basechar 0
AnchorPoint: "Anchor-0" 307 756 basechar 0
LayerCount: 2
Fore
SplineSet
523 640 m 1
 188 640 l 1
 188 0 l 1
 92 0 l 1
 92 716 l 1
 523 716 l 1
 523 640 l 1
EndSplineSet
Validated: 1
EndChar

StartChar: uni0414
Encoding: 1044 1044 337
Width: 786
GlyphClass: 2
Flags: HMW
AnchorPoint: "Anchor-3" 430 756 basechar 0
AnchorPoint: "Anchor-1" 384 -210 basechar 0
AnchorPoint: "Anchor-0" 430 756 basechar 0
LayerCount: 2
Fore
SplineSet
548 76 m 1
 548 640 l 1
 310 640 l 1
 303 499 292 375 267 264 c 128
 250 187 231 124 194 76 c 1
 548 76 l 1
96 -146 m 2
 96 -163 82 -174 65 -174 c 2
 7 -174 l 1
 7 76 l 1
 80 76 l 1
 129 101 151 163 168 227 c 128
 189 307 199 401 208 504 c 128
 213 565 217 636 220 716 c 1
 645 716 l 1
 645 76 l 1
 762 76 l 1
 762 -146 l 2
 762 -164 749 -174 731 -174 c 2
 674 -174 l 1
 674 0 l 1
 96 0 l 1
 96 -146 l 2
EndSplineSet
Validated: 1
EndChar

StartChar: uni0415
Encoding: 1045 1045 338
Width: 577
GlyphClass: 2
Flags: HMW
AnchorPoint: "Anchor-3" 318 756 basechar 0
AnchorPoint: "Anchor-1" 329 -35 basechar 0
AnchorPoint: "Anchor-0" 318 756 basechar 0
LayerCount: 2
Fore
SplineSet
534 79 m 1
 533 0 l 1
 92 0 l 1
 92 716 l 1
 533 716 l 1
 533 638 l 1
 188 638 l 1
 188 400 l 1
 468 400 l 1
 468 324 l 1
 188 324 l 1
 188 79 l 1
 534 79 l 1
EndSplineSet
Validated: 1
EndChar

StartChar: uni0416
Encoding: 1046 1046 339
Width: 1038
GlyphClass: 2
Flags: HMW
AnchorPoint: "Anchor-3" 520 756 basechar 0
AnchorPoint: "Anchor-1" 520 -35 basechar 0
AnchorPoint: "Anchor-0" 520 756 basechar 0
LayerCount: 2
Fore
SplineSet
1030 0 m 1
 966 0 l 2
 936 0 916 15 904 34 c 1
 722 288 l 1
 705 313 687 328 648 328 c 2
 565 328 l 1
 565 0 l 1
 474 0 l 1
 474 328 l 1
 391 328 l 2
 351 328 333 315 316 288 c 1
 134 34 l 1
 123 15 103 0 74 0 c 2
 8 0 l 1
 222 310 l 1
 241 341 264 364 300 375 c 1
 268 385 251 404 234 430 c 1
 26 716 l 1
 101 716 l 2
 124 716 141 704 150 688 c 1
 330 439 l 2
 348 414 365 402 402 402 c 2
 474 402 l 1
 474 716 l 1
 565 716 l 1
 565 402 l 1
 636 402 l 2
 673 402 691 414 709 439 c 2
 888 688 l 1
 897 704 914 716 938 716 c 2
 1014 716 l 1
 804 430 l 1
 787 404 770 385 740 375 c 1
 776 363 799 342 818 310 c 1
 1030 0 l 1
EndSplineSet
Validated: 1
EndChar

StartChar: uni0417
Encoding: 1047 1047 340
Width: 575
GlyphClass: 2
Flags: HMW
AnchorPoint: "Anchor-3" 275 756 basechar 0
AnchorPoint: "Anchor-1" 264 -35 basechar 0
AnchorPoint: "Anchor-0" 275 756 basechar 0
LayerCount: 2
Fore
SplineSet
268 74 m 0
 367 74 434 116 434 213 c 0
 434 301 365 340 276 340 c 2
 178 340 l 1
 178 420 l 1
 272 420 l 2
 336 420 381 443 403 485 c 128
 410 499 414 515 414 532 c 0
 414 611 346 644 266 644 c 0
 201 644 155 623 118 598 c 128
 110 592 102 589 96 589 c 0
 84 589 79 595 74 604 c 2
 50 650 l 1
 101 696 171 724 266 724 c 0
 372 724 454 685 488 614 c 128
 499 591 505 567 505 540 c 0
 505 460 461 408 403 382 c 1
 455 360 497 324 517 270 c 0
 523 254 526 237 526 218 c 0
 526 148 496 93 457 58 c 128
 413 18 348 -7 265 -7 c 0
 158 -7 77 33 21 86 c 1
 49 132 l 2
 54 139 61 146 72 146 c 0
 79 146 87 142 97 134 c 128
 139 102 191 74 268 74 c 0
EndSplineSet
Validated: 1
EndChar

StartChar: uni0418
Encoding: 1048 1048 341
Width: 763
GlyphClass: 2
Flags: HMW
AnchorPoint: "Anchor-3" 384 756 basechar 0
AnchorPoint: "Anchor-1" 382 -35 basechar 0
AnchorPoint: "Anchor-0" 384 756 basechar 0
LayerCount: 2
Fore
SplineSet
672 716 m 1
 672 0 l 1
 575 0 l 1
 575 509 l 2
 575 524 575 539 576 554 c 0
 576 569 577 586 580 603 c 1
 570 576 557 548 543 527 c 2
 207 30 l 1
 199 16 185 0 164 0 c 2
 92 0 l 1
 92 716 l 1
 188 716 l 1
 188 207 l 2
 188 174 187 143 183 112 c 1
 193 140 206 167 220 190 c 2
 556 686 l 1
 564 700 579 716 600 716 c 2
 672 716 l 1
EndSplineSet
Validated: 1
EndChar

StartChar: uni0419
Encoding: 1049 1049 342
Width: 763
GlyphClass: 2
Flags: HMW
AnchorPoint: "Anchor-3" 382 756 basechar 0
AnchorPoint: "Anchor-1" 382 -35 basechar 0
AnchorPoint: "Anchor-0" 382 756 basechar 0
LayerCount: 2
Fore
SplineSet
310 895 m 1
 310 837 327 810 384 810 c 256
 441 810 458 837 458 895 c 1
 510 895 l 2
 523 895 530 881 530 868 c 0
 530 794 464 764 384 764 c 256
 304 764 238 794 238 868 c 0
 238 881 245 895 258 895 c 2
 310 895 l 1
672 716 m 1
 672 0 l 1
 575 0 l 1
 575 509 l 2
 575 524 575 539 576 554 c 0
 576 569 577 586 580 603 c 1
 570 576 557 548 543 527 c 2
 207 30 l 1
 199 16 185 0 164 0 c 2
 92 0 l 1
 92 716 l 1
 188 716 l 1
 188 207 l 2
 188 174 187 143 183 112 c 1
 193 140 206 167 220 190 c 2
 556 686 l 1
 564 700 579 716 600 716 c 2
 672 716 l 1
EndSplineSet
Validated: 1
EndChar

StartChar: uni041A
Encoding: 1050 1050 343
Width: 670
GlyphClass: 2
Flags: HMW
AnchorPoint: "Anchor-3" 354 756 basechar 0
AnchorPoint: "Anchor-1" 360 -35 basechar 0
AnchorPoint: "Anchor-0" 354 756 basechar 0
LayerCount: 2
Fore
SplineSet
664 0 m 1
 576 0 l 2
 554 0 543 15 532 30 c 2
 343 293 l 1
 327 318 312 328 274 328 c 2
 188 328 l 1
 188 0 l 1
 92 0 l 1
 92 716 l 1
 188 716 l 1
 188 402 l 1
 262 402 l 2
 298 402 314 413 332 437 c 2
 520 689 l 2
 529 703 541 716 563 716 c 2
 644 716 l 1
 428 422 l 2
 412 399 391 383 365 374 c 1
 404 364 425 343 444 310 c 1
 664 0 l 1
EndSplineSet
Validated: 1
EndChar

StartChar: uni041B
Encoding: 1051 1051 344
Width: 725
GlyphClass: 2
Flags: HMW
AnchorPoint: "Anchor-3" 420 756 basechar 0
AnchorPoint: "Anchor-1" 327 -35 basechar 0
AnchorPoint: "Anchor-0" 420 756 basechar 0
LayerCount: 2
Fore
SplineSet
52 -6 m 0
 29 -6 -4 -5 -4 12 c 2
 -4 74 l 1
 32 74 l 2
 68 74 89 89 108 113 c 128
 120 128 131 151 142 180 c 128
 171 261 183 357 194 470 c 0
 201 538 205 620 208 716 c 1
 634 716 l 1
 634 0 l 1
 537 0 l 1
 537 640 l 1
 300 640 l 1
 292 482 282 348 253 227 c 128
 234 147 212 82 168 38 c 128
 139 8 105 -6 52 -6 c 0
EndSplineSet
Validated: 1
EndChar

StartChar: uni041C
Encoding: 1052 1052 345
Width: 928
GlyphClass: 2
Flags: HMW
AnchorPoint: "Anchor-3" 466 756 basechar 0
AnchorPoint: "Anchor-1" 464 -35 basechar 0
AnchorPoint: "Anchor-0" 466 756 basechar 0
LayerCount: 2
Fore
SplineSet
837 716 m 1
 837 0 l 1
 752 0 l 1
 752 526 l 2
 752 540 754 560 754 574 c 1
 508 126 l 2
 500 111 489 104 474 103 c 2
 460 103 l 2
 444 104 432 111 424 126 c 2
 174 576 l 1
 175 559 176 542 176 526 c 2
 176 0 l 1
 92 0 l 1
 92 716 l 1
 163 716 l 2
 183 716 189 715 196 700 c 2
 444 259 l 2
 452 243 461 227 466 208 c 1
 473 227 480 244 489 260 c 2
 732 700 l 2
 740 715 745 716 766 716 c 2
 837 716 l 1
EndSplineSet
Validated: 1
EndChar

StartChar: uni041D
Encoding: 1053 1053 346
Width: 763
GlyphClass: 2
Flags: HMW
AnchorPoint: "Anchor-3" 384 756 basechar 0
AnchorPoint: "Anchor-1" 385 -35 basechar 0
AnchorPoint: "Anchor-0" 384 756 basechar 0
LayerCount: 2
Fore
SplineSet
672 716 m 1
 672 0 l 1
 575 0 l 1
 575 326 l 1
 188 326 l 1
 188 0 l 1
 92 0 l 1
 92 716 l 1
 188 716 l 1
 188 397 l 1
 575 397 l 1
 575 716 l 1
 672 716 l 1
EndSplineSet
Validated: 1
EndChar

StartChar: uni041E
Encoding: 1054 1054 347
Width: 800
GlyphClass: 2
Flags: HMW
AnchorPoint: "Anchor-3" 401 756 basechar 0
AnchorPoint: "Anchor-1" 400 -35 basechar 0
AnchorPoint: "Anchor-0" 401 756 basechar 0
LayerCount: 2
Fore
SplineSet
754 358 m 256
 754 245 713 154 656 94 c 128
 599 34 512 -8 400 -8 c 256
 287 -8 201 34 144 94 c 128
 86 154 47 244 47 358 c 256
 47 530 133 646 256 697 c 128
 299 715 347 724 400 724 c 256
 572 724 679 632 728 506 c 128
 745 461 754 411 754 358 c 256
654 358 m 256
 654 490 599 583 505 621 c 128
 474 634 439 640 400 640 c 256
 272 640 197 573 164 476 c 128
 152 441 146 402 146 358 c 256
 146 225 201 135 295 96 c 128
 326 83 361 76 400 76 c 256
 527 76 603 144 636 240 c 128
 648 275 654 314 654 358 c 256
EndSplineSet
Validated: 1
EndChar

StartChar: uni041F
Encoding: 1055 1055 348
Width: 735
GlyphClass: 2
Flags: HMW
AnchorPoint: "Anchor-3" 368 756 basechar 0
AnchorPoint: "Anchor-1" 368 -35 basechar 0
AnchorPoint: "Anchor-0" 368 756 basechar 0
LayerCount: 2
Fore
SplineSet
644 0 m 1
 546 0 l 1
 546 640 l 1
 188 640 l 1
 188 0 l 1
 92 0 l 1
 92 716 l 1
 644 716 l 1
 644 0 l 1
EndSplineSet
Validated: 1
EndChar

StartChar: uni0420
Encoding: 1056 1056 349
Width: 600
GlyphClass: 2
Flags: HMW
AnchorPoint: "Anchor-3" 294 756 basechar 0
AnchorPoint: "Anchor-1" 140 -35 basechar 0
AnchorPoint: "Anchor-0" 294 756 basechar 0
LayerCount: 2
Fore
SplineSet
474 494 m 0
 474 593 408 640 303 640 c 2
 188 640 l 1
 188 345 l 1
 303 345 l 2
 404 345 474 395 474 494 c 0
303 716 m 2
 463 716 570 651 570 494 c 128
 570 380 505 315 418 285 c 128
 385 274 346 268 303 268 c 2
 188 268 l 1
 188 0 l 1
 92 0 l 1
 92 716 l 1
 303 716 l 2
EndSplineSet
Validated: 1
EndChar

StartChar: uni0421
Encoding: 1057 1057 350
Width: 668
GlyphClass: 2
Flags: HMW
AnchorPoint: "Anchor-3" 406 756 basechar 0
AnchorPoint: "Anchor-1" 388 -35 basechar 0
AnchorPoint: "Anchor-0" 406 756 basechar 0
LayerCount: 2
Fore
SplineSet
647 100 m 1
 589 33 511 -8 388 -8 c 0
 278 -8 196 35 141 94 c 128
 84 154 48 244 48 358 c 256
 48 531 132 647 256 698 c 128
 299 716 346 724 398 724 c 0
 504 724 580 687 636 634 c 1
 604 589 l 2
 600 582 595 578 584 578 c 0
 578 578 571 582 562 588 c 128
 521 617 472 640 398 640 c 0
 272 640 199 570 165 476 c 128
 152 441 146 402 146 358 c 0
 146 226 205 134 297 95 c 128
 327 82 359 76 394 76 c 0
 481 76 532 99 578 140 c 0
 583 145 589 148 594 148 c 128
 599 148 604 146 608 142 c 2
 647 100 l 1
EndSplineSet
Validated: 1
EndChar

StartChar: uni0422
Encoding: 1058 1058 351
Width: 590
GlyphClass: 2
Flags: HMW
AnchorPoint: "Anchor-3" 297 756 basechar 0
AnchorPoint: "Anchor-1" 297 -35 basechar 0
AnchorPoint: "Anchor-0" 297 756 basechar 0
LayerCount: 2
Fore
SplineSet
576 635 m 1
 344 635 l 1
 344 0 l 1
 248 0 l 1
 248 635 l 1
 15 635 l 1
 15 716 l 1
 576 716 l 1
 576 635 l 1
EndSplineSet
Validated: 1
EndChar

StartChar: uni0423
Encoding: 1059 1059 352
Width: 625
GlyphClass: 2
Flags: HMW
AnchorPoint: "Anchor-3" 316 756 basechar 0
AnchorPoint: "Anchor-1" 230 -35 basechar 0
AnchorPoint: "Anchor-0" 316 756 basechar 0
LayerCount: 2
Fore
SplineSet
188 -6 m 0
 165 -6 132 -5 132 12 c 2
 132 74 l 1
 166 74 l 2
 213 74 241 101 256 135 c 1
 292 208 l 1
 4 716 l 1
 94 716 l 2
 113 716 121 706 128 694 c 2
 304 369 l 2
 316 345 326 321 334 297 c 1
 342 322 352 346 362 369 c 2
 512 694 l 2
 517 705 530 716 546 716 c 2
 626 716 l 1
 334 94 l 2
 306 35 272 -6 188 -6 c 0
EndSplineSet
Validated: 1
EndChar

StartChar: uni0424
Encoding: 1060 1060 353
Width: 782
GlyphClass: 2
Flags: HMW
AnchorPoint: "Anchor-3" 392 756 basechar 0
AnchorPoint: "Anchor-1" 392 -35 basechar 0
AnchorPoint: "Anchor-0" 392 756 basechar 0
LayerCount: 2
Fore
SplineSet
438 163 m 1
 506 163 555 191 590 227 c 128
 624 262 648 311 648 376 c 128
 648 475 594 540 524 571 c 0
 499 582 470 589 438 590 c 1
 438 163 l 1
346 590 m 1
 245 590 180 532 151 458 c 128
 141 432 136 405 136 376 c 128
 136 278 189 211 259 181 c 128
 285 170 314 164 346 163 c 1
 346 590 l 1
438 665 m 1
 579 661 678 588 722 486 c 0
 737 451 744 415 744 376 c 0
 744 288 708 221 660 174 c 128
 609 124 533 89 438 86 c 1
 438 0 l 1
 346 0 l 1
 346 86 l 1
 204 90 104 163 60 266 c 128
 45 301 38 337 38 376 c 128
 38 463 77 532 124 578 c 128
 174 627 251 664 346 665 c 1
 346 749 l 1
 438 749 l 1
 438 665 l 1
EndSplineSet
Validated: 1
EndChar

StartChar: uni0425
Encoding: 1061 1061 354
Width: 649
GlyphClass: 2
Flags: HMW
AnchorPoint: "Anchor-3" 324 756 basechar 0
AnchorPoint: "Anchor-1" 324 -35 basechar 0
AnchorPoint: "Anchor-0" 324 756 basechar 0
LayerCount: 2
Fore
SplineSet
638 0 m 1
 542 0 l 2
 528 0 520 10 514 18 c 2
 322 320 l 1
 319 312 317 305 314 299 c 1
 126 18 l 2
 120 9 114 0 100 0 c 2
 10 0 l 1
 256 368 l 1
 20 716 l 1
 116 716 l 2
 130 716 136 712 141 703 c 2
 328 416 l 1
 331 423 334 430 338 439 c 1
 515 701 l 2
 520 709 526 716 538 716 c 2
 630 716 l 1
 392 372 l 1
 638 0 l 1
EndSplineSet
Validated: 1
EndChar

StartChar: uni0426
Encoding: 1062 1062 355
Width: 780
GlyphClass: 2
Flags: HMW
AnchorPoint: "Anchor-3" 368 756 basechar 0
AnchorPoint: "Anchor-1" 412 -210 basechar 0
AnchorPoint: "Anchor-0" 368 756 basechar 0
LayerCount: 2
Fore
SplineSet
754 -146 m 2
 754 -164 740 -174 722 -174 c 2
 664 -174 l 1
 664 0 l 1
 92 0 l 1
 92 716 l 1
 188 716 l 1
 188 76 l 1
 546 76 l 1
 546 716 l 1
 644 716 l 1
 644 76 l 1
 754 76 l 1
 754 -146 l 2
EndSplineSet
Validated: 1
EndChar

StartChar: uni0427
Encoding: 1063 1063 356
Width: 661
GlyphClass: 2
Flags: HMW
AnchorPoint: "Anchor-3" 314 756 basechar 0
AnchorPoint: "Anchor-1" 522 -35 basechar 0
AnchorPoint: "Anchor-0" 314 756 basechar 0
LayerCount: 2
Fore
SplineSet
143 482 m 2
 143 386 199 352 291 352 c 0
 302 352 314 352 326 353 c 128
 367 356 416 365 472 380 c 1
 472 716 l 1
 570 716 l 1
 570 0 l 1
 472 0 l 1
 472 310 l 1
 406 293 335 278 260 278 c 128
 123 278 46 343 46 482 c 2
 46 716 l 1
 143 716 l 1
 143 482 l 2
EndSplineSet
Validated: 1
EndChar

